<svg width="35" height="35" viewBox="0 0 35 35" fill="none" xmlns="http://www.w3.org/2000/svg">
<path fill-rule="evenodd" clip-rule="evenodd" d="M17.5 0C7.83502 0 0 7.83502 0 17.5C0 27.165 7.83502 35 17.5 35C27.165 35 35 27.165 35 17.5C35 7.83502 27.165 0 17.5 0ZM13.6506 8.22123C14.6461 8.17593 14.9642 8.16484 17.4991 8.16484H17.4961C20.0317 8.16484 20.3487 8.17593 21.3442 8.22123C22.3379 8.26673 23.0165 8.42404 23.6115 8.65485C24.2259 8.89305 24.7451 9.21194 25.2643 9.73111C25.7834 10.2499 26.1023 10.7706 26.3415 11.3845C26.571 11.9779 26.7285 12.6562 26.7751 13.6498C26.8198 14.6454 26.8315 14.9635 26.8315 17.4983C26.8315 20.0331 26.8198 20.3504 26.7751 21.346C26.7285 22.3392 26.571 23.0176 26.3415 23.6113C26.1023 24.225 25.7834 24.7457 25.2643 25.2645C24.7457 25.7836 24.2257 26.1033 23.6121 26.3417C23.0182 26.5725 22.3392 26.7298 21.3456 26.7753C20.35 26.8206 20.0329 26.8317 17.4979 26.8317C14.9633 26.8317 14.6454 26.8206 13.6498 26.7753C12.6564 26.7298 11.9779 26.5725 11.3841 26.3417C10.7706 26.1033 10.2499 25.7836 9.7313 25.2645C9.21233 24.7457 8.89343 24.225 8.65485 23.6111C8.42424 23.0176 8.26693 22.3394 8.22123 21.3458C8.17612 20.3502 8.16484 20.0331 8.16484 17.4983C8.16484 14.9635 8.17651 14.6452 8.22104 13.6496C8.26576 12.6564 8.42326 11.9779 8.65465 11.3843C8.89382 10.7706 9.21272 10.2499 9.73189 9.73111C10.2507 9.21213 10.7714 8.89324 11.3853 8.65485C11.9787 8.42404 12.6569 8.26673 13.6506 8.22123Z" fill="white"/>
<path fill-rule="evenodd" clip-rule="evenodd" d="M16.6657 9.84999C16.8283 9.84974 17.0032 9.84981 17.192 9.8499L17.503 9.84999C19.9951 9.84999 20.2904 9.85893 21.2745 9.90366C22.1845 9.94527 22.6784 10.0973 23.0074 10.2251C23.443 10.3942 23.7535 10.5965 24.08 10.9231C24.4067 11.2498 24.6089 11.5609 24.7784 11.9965C24.9062 12.3251 25.0584 12.819 25.0999 13.729C25.1446 14.7129 25.1543 15.0085 25.1543 17.4993C25.1543 19.9902 25.1446 20.2857 25.0999 21.2696C25.0582 22.1796 24.9062 22.6735 24.7784 23.0022C24.6093 23.4377 24.4067 23.7479 24.08 24.0743C23.7533 24.401 23.4432 24.6032 23.0074 24.7724C22.6788 24.9007 22.1845 25.0524 21.2745 25.094C20.2906 25.1387 19.9951 25.1485 17.503 25.1485C15.0108 25.1485 14.7154 25.1387 13.7315 25.094C12.8215 25.052 12.3276 24.9 11.9984 24.7722C11.5629 24.603 11.2518 24.4008 10.9251 24.0741C10.5984 23.7475 10.3962 23.4371 10.2266 23.0014C10.0989 22.6728 9.94665 22.1789 9.90523 21.2689C9.86051 20.285 9.85156 19.9894 9.85156 17.497C9.85156 15.0046 9.86051 14.7106 9.90523 13.7267C9.94684 12.8167 10.0989 12.3228 10.2266 11.9938C10.3958 11.5582 10.5984 11.2471 10.9251 10.9204C11.2518 10.5937 11.5629 10.3915 11.9984 10.222C12.3274 10.0936 12.8215 9.94196 13.7315 9.90016C14.5926 9.86127 14.9262 9.8496 16.6657 9.84766V9.84999ZM22.4833 11.4012C21.865 11.4012 21.3633 11.9023 21.3633 12.5208C21.3633 13.1391 21.865 13.6408 22.4833 13.6408C23.1016 13.6408 23.6033 13.1391 23.6033 12.5208C23.6033 11.9025 23.1016 11.4008 22.4833 11.4008V11.4012ZM12.7117 17.5009C12.7117 14.8539 14.8578 12.7078 17.5048 12.7078H17.5046C20.1516 12.7078 22.2972 14.8539 22.2972 17.5009C22.2972 20.1479 20.1518 22.2931 17.5048 22.2931C14.8578 22.2931 12.7117 20.1479 12.7117 17.5009Z" fill="white"/>
<path d="M17.5018 14.3887C19.2199 14.3887 20.6129 15.7815 20.6129 17.4998C20.6129 19.2179 19.2199 20.611 17.5018 20.611C15.7834 20.611 14.3906 19.2179 14.3906 17.4998C14.3906 15.7815 15.7834 14.3887 17.5018 14.3887Z" fill="white"/>
</svg>
