<svg width="50" height="50" viewBox="0 0 50 50" fill="none" xmlns="http://www.w3.org/2000/svg">
<path fill-rule="evenodd" clip-rule="evenodd" d="M25 0C11.1929 0 0 11.1929 0 25C0 38.8071 11.1929 50 25 50C38.8071 50 50 38.8071 50 25C50 11.1929 38.8071 0 25 0ZM19.5026 11.7464C20.9248 11.6817 21.3793 11.6659 25.0004 11.6659H24.9963C28.6185 11.6659 29.0713 11.6817 30.4936 11.7464C31.913 11.8114 32.8825 12.0361 33.7325 12.3659C34.6103 12.7061 35.3519 13.1617 36.0936 13.9034C36.8353 14.6445 37.2908 15.3884 37.6325 16.2653C37.9603 17.1131 38.1853 18.082 38.252 19.5015C38.3159 20.9237 38.3325 21.3782 38.3325 24.9993C38.3325 28.6205 38.3159 29.0738 38.252 30.496C38.1853 31.915 37.9603 32.8841 37.6325 33.7322C37.2908 34.6089 36.8353 35.3528 36.0936 36.0939C35.3528 36.8356 34.61 37.2922 33.7333 37.6328C32.885 37.9625 31.915 38.1872 30.4955 38.2522C29.0733 38.317 28.6202 38.3328 24.9988 38.3328C21.3779 38.3328 20.9237 38.317 19.5015 38.2522C18.0823 38.1872 17.1131 37.9625 16.2648 37.6328C15.3884 37.2922 14.6445 36.8356 13.9037 36.0939C13.1623 35.3528 12.7067 34.6089 12.3659 33.7319C12.0364 32.8841 11.8117 31.9152 11.7464 30.4958C11.682 29.0735 11.6659 28.6205 11.6659 24.9993C11.6659 21.3782 11.6825 20.9234 11.7461 19.5012C11.81 18.0823 12.035 17.1131 12.3656 16.2651C12.7073 15.3884 13.1628 14.6445 13.9045 13.9034C14.6456 13.162 15.3895 12.7064 16.2665 12.3659C17.1142 12.0361 18.0831 11.8114 19.5026 11.7464Z" fill="#A08D70"/>
<path fill-rule="evenodd" clip-rule="evenodd" d="M23.8049 14.0697C24.0371 14.0694 24.287 14.0695 24.5566 14.0696L25.001 14.0697C28.561 14.0697 28.983 14.0825 30.3888 14.1464C31.6888 14.2059 32.3944 14.4231 32.8644 14.6056C33.4866 14.8472 33.9302 15.1361 34.3966 15.6028C34.8633 16.0695 35.1522 16.5139 35.3944 17.1362C35.5769 17.6056 35.7944 18.3112 35.8536 19.6112C35.9175 21.0168 35.9314 21.439 35.9314 24.9974C35.9314 28.5557 35.9175 28.9779 35.8536 30.3835C35.7942 31.6835 35.5769 32.3891 35.3944 32.8585C35.1528 33.4808 34.8633 33.9238 34.3966 34.3902C33.93 34.8569 33.4869 35.1458 32.8644 35.3875C32.3949 35.5708 31.6888 35.7875 30.3888 35.8469C28.9832 35.9108 28.561 35.9247 25.001 35.9247C21.4407 35.9247 21.0187 35.9108 19.6131 35.8469C18.3131 35.7869 17.6076 35.5697 17.1373 35.3872C16.5151 35.1455 16.0706 34.8566 15.6039 34.39C15.1373 33.9233 14.8484 33.4799 14.6062 32.8574C14.4236 32.388 14.2061 31.6824 14.147 30.3824C14.0831 28.9768 14.0703 28.5546 14.0703 24.994C14.0703 21.4334 14.0831 21.0134 14.147 19.6079C14.2064 18.3078 14.4236 17.6023 14.6062 17.1323C14.8478 16.51 15.1373 16.0656 15.6039 15.5989C16.0706 15.1323 16.5151 14.8434 17.1373 14.6011C17.6073 14.4178 18.3131 14.2011 19.6131 14.1414C20.8432 14.0859 21.3198 14.0692 23.8049 14.0664V14.0697ZM32.1173 16.2846C31.2339 16.2846 30.5173 17.0004 30.5173 17.884C30.5173 18.7674 31.2339 19.4841 32.1173 19.4841C33.0006 19.4841 33.7173 18.7674 33.7173 17.884C33.7173 17.0007 33.0006 16.284 32.1173 16.284V16.2846ZM18.1556 25.001C18.1556 21.2197 21.2213 18.1539 25.0026 18.1537C28.784 18.1537 31.8491 21.2196 31.8491 25.001C31.8491 28.7824 28.7843 31.8469 25.0029 31.8469C21.2215 31.8469 18.1556 28.7824 18.1556 25.001Z" fill="#A08D70"/>
<path d="M24.9992 20.5566C27.4536 20.5566 29.4437 22.5464 29.4437 25.0011C29.4437 27.4556 27.4536 29.4456 24.9992 29.4456C22.5444 29.4456 20.5547 27.4556 20.5547 25.0011C20.5547 22.5464 22.5444 20.5566 24.9992 20.5566Z" fill="#A08D70"/>
</svg>
