<svg width="35" height="35" viewBox="0 0 35 35" fill="none" xmlns="http://www.w3.org/2000/svg">
<path fill-rule="evenodd" clip-rule="evenodd" d="M0 17.5C0 27.165 7.83502 35 17.5 35C27.165 35 35 27.165 35 17.5C35 7.83502 27.165 0 17.5 0C7.83502 0 0 7.83502 0 17.5ZM14.2944 25.5192L14.5921 21.0583L14.5919 21.0581L22.7067 13.7351C23.0629 13.419 22.629 13.2649 22.1562 13.5516L12.1414 19.8698L7.81552 18.5196C6.88133 18.2336 6.87462 17.5917 8.02526 17.1301L24.8821 10.6302C25.652 10.2807 26.3951 10.8151 26.1012 11.9935L23.2305 25.5214C23.03 26.4827 22.4492 26.7126 21.6444 26.2686L17.2714 23.0377L15.1694 25.0817C15.1628 25.0881 15.1562 25.0945 15.1496 25.1009C14.9145 25.3298 14.72 25.5192 14.2944 25.5192Z" fill="white"/>
</svg>
