<svg width="50" height="50" viewBox="0 0 50 50" fill="none" xmlns="http://www.w3.org/2000/svg">
<path fill-rule="evenodd" clip-rule="evenodd" d="M25 50C11.1929 50 0 38.8071 0 25C0 11.1929 11.1929 0 25 0C38.8071 0 50 11.1929 50 25C50 38.8071 38.8071 50 25 50ZM20.4167 36.4579L20.842 30.0852L20.8417 30.085L32.4343 19.6235C32.9431 19.172 32.3232 18.9518 31.6478 19.3613L17.3409 28.3874L11.1611 26.4586C9.82656 26.05 9.81698 25.1329 11.4607 24.4736L35.542 15.188C36.6418 14.6886 37.7034 15.4521 37.2835 17.1355L33.1825 36.4611C32.8961 37.8344 32.0663 38.1629 30.9167 37.5285L24.6695 32.913L21.6667 35.8329C21.6572 35.8421 21.6478 35.8513 21.6384 35.8604C21.3026 36.1874 21.0247 36.4579 20.4167 36.4579Z" fill="#A08D70"/>
</svg>
