<svg width="50" height="50" viewBox="0 0 50 50" fill="none" xmlns="http://www.w3.org/2000/svg">
<path fill-rule="evenodd" clip-rule="evenodd" d="M25 0C11.1929 0 0 11.1929 0 25C0 38.8071 11.1929 50 25 50C38.8071 50 50 38.8071 50 25C50 11.1929 38.8071 0 25 0ZM27.033 32.8906C26.7864 33.1505 26.3052 33.2029 26.3052 33.2029H24.7114C24.7114 33.2029 21.195 33.4104 18.0974 30.2455C14.7194 26.7927 11.7365 19.942 11.7365 19.942C11.7365 19.942 11.5643 19.4926 11.7508 19.2762C11.9608 19.0317 12.5334 19.0163 12.5334 19.0163L16.3432 18.992C16.3432 18.992 16.7018 19.0496 16.9588 19.2353C17.1714 19.3889 17.2901 19.6744 17.2901 19.6744C17.2901 19.6744 17.9057 21.203 18.7209 22.5857C20.3134 25.2858 21.0542 25.876 21.5942 25.5867C22.3819 25.1654 22.1459 21.7702 22.1459 21.7702C22.1459 21.7702 22.1602 20.5386 21.7494 19.9893C21.4311 19.5643 20.8312 19.4401 20.5664 19.4055C20.3512 19.3774 20.7033 18.8883 21.1598 18.6694C21.8459 18.3404 23.0562 18.3212 24.487 18.3352C25.6022 18.3468 25.923 18.4146 26.3586 18.5183C27.3697 18.7578 27.3381 19.5253 27.27 21.1817C27.2496 21.6771 27.226 22.252 27.226 22.916C27.226 23.0652 27.2216 23.2243 27.217 23.3879C27.1934 24.2366 27.1663 25.2083 27.736 25.57C28.0281 25.7544 28.7415 25.5969 30.5271 22.6216C31.3736 21.2107 32.0074 19.5528 32.0074 19.5528C32.0074 19.5528 32.147 19.257 32.3622 19.1303C32.5826 19.001 32.88 19.0407 32.88 19.0407L36.8893 19.0163C36.8893 19.0163 38.0944 18.8742 38.2888 19.4094C38.4936 19.9689 37.8388 21.2773 36.2006 23.4204C34.6467 25.454 33.8905 26.2027 33.9599 26.8648C34.0106 27.3487 34.5022 27.7863 35.4455 28.6452C37.4147 30.4398 37.9425 31.384 38.0693 31.6108C38.0798 31.6297 38.0875 31.6435 38.0931 31.6525C38.9761 33.0903 37.1136 33.2029 37.1136 33.2029L33.5517 33.2516C33.5517 33.2516 32.7874 33.4001 31.7805 32.7216C31.253 32.3664 30.7376 31.7864 30.2467 31.2339C29.497 30.3902 28.8044 29.6108 28.2133 29.7949C27.2208 30.1047 27.2508 32.2031 27.2508 32.2031C27.2508 32.2031 27.2586 32.6524 27.033 32.8906Z" fill="#A08D70"/>
</svg>
