<svg width="35" height="35" viewBox="0 0 35 35" fill="none" xmlns="http://www.w3.org/2000/svg">
<path fill-rule="evenodd" clip-rule="evenodd" d="M17.5 0C7.83502 0 0 7.83502 0 17.5C0 27.165 7.83502 35 17.5 35C27.165 35 35 27.165 35 17.5C35 7.83502 27.165 0 17.5 0ZM18.9231 23.0234C18.7505 23.2053 18.4136 23.2421 18.4136 23.2421H17.2979C17.2979 23.2421 14.8365 23.3872 12.6682 21.1719C10.3036 18.7549 8.21555 13.9594 8.21555 13.9594C8.21555 13.9594 8.09503 13.6448 8.22559 13.4934C8.37258 13.3222 8.77339 13.3114 8.77339 13.3114L11.4402 13.2944C11.4402 13.2944 11.6913 13.3347 11.8712 13.4647C12.02 13.5722 12.103 13.7721 12.103 13.7721C12.103 13.7721 12.534 14.8421 13.1046 15.81C14.2194 17.7001 14.7379 18.1132 15.1159 17.9107C15.6674 17.6158 15.5021 15.2391 15.5021 15.2391C15.5021 15.2391 15.5121 14.377 15.2246 13.9925C15.0018 13.695 14.5818 13.6081 14.3965 13.5839C14.2458 13.5642 14.4923 13.2218 14.8119 13.0686C15.2921 12.8382 16.1394 12.8248 17.1409 12.8347C17.9215 12.8427 18.1461 12.8902 18.451 12.9628C19.1588 13.1305 19.1367 13.6677 19.089 14.8272C19.0747 15.174 19.0582 15.5764 19.0582 16.0412C19.0582 16.1457 19.0551 16.257 19.0519 16.3716C19.0353 16.9656 19.0164 17.6458 19.4152 17.899C19.6197 18.0281 20.1191 17.9178 21.369 15.8351C21.9615 14.8475 22.4052 13.6869 22.4052 13.6869C22.4052 13.6869 22.5029 13.4799 22.6535 13.3912C22.8078 13.3007 23.016 13.3285 23.016 13.3285L25.8225 13.3114C25.8225 13.3114 26.6661 13.212 26.8021 13.5866C26.9455 13.9782 26.4872 14.8941 25.3405 16.3943C24.2527 17.8178 23.7233 18.3419 23.7719 18.8054C23.8074 19.1441 24.1515 19.4504 24.8118 20.0516C26.1902 21.3079 26.5597 21.9688 26.6485 22.1276C26.6559 22.1408 26.6613 22.1505 26.6652 22.1568C27.2833 23.1632 25.9795 23.2421 25.9795 23.2421L23.4862 23.2761C23.4862 23.2761 22.9512 23.3801 22.2463 22.9051C21.8771 22.6565 21.5163 22.2505 21.1727 21.8637C20.6479 21.2731 20.1631 20.7275 19.7493 20.8564C19.0545 21.0733 19.0755 22.5421 19.0755 22.5421C19.0755 22.5421 19.081 22.8567 18.9231 23.0234Z" fill="white"/>
</svg>
