<svg width="50" height="50" viewBox="0 0 50 50" fill="none" xmlns="http://www.w3.org/2000/svg">
<path fill-rule="evenodd" clip-rule="evenodd" d="M0 25C0 38.8071 11.1929 50 25 50C38.8071 50 50 38.8071 50 25C50 11.1929 38.8071 0 25 0C11.1929 0 0 11.1929 0 25ZM40.6884 24.0445C40.6851 32.2391 34.019 38.9068 25.8227 38.9102H25.8166C23.3286 38.9093 20.8839 38.2851 18.7126 37.1007L10.832 39.168L12.941 31.4647C11.6401 29.2102 10.9556 26.6529 10.9567 24.0328C10.9599 15.8364 17.6287 9.16797 25.8226 9.16797C29.7994 9.16969 33.5318 10.7178 36.3385 13.5278C39.1451 16.3376 40.69 20.0725 40.6884 24.0445Z" fill="#A08D70"/>
<path fill-rule="evenodd" clip-rule="evenodd" d="M14.4034 35.6351L19.0799 34.4084L19.5311 34.6762C21.4281 35.8019 23.6027 36.3976 25.8199 36.3985H25.8249C32.6351 36.3985 38.1779 30.8555 38.1806 24.0426C38.1819 20.741 36.8979 17.6367 34.5651 15.3012C32.2323 12.9657 29.13 11.6789 25.8298 11.6777C19.0143 11.6777 13.4715 17.2201 13.4688 24.0326C13.4678 26.3672 14.121 28.6409 15.3579 30.6082L15.6517 31.0756L14.4034 35.6351ZM32.8038 27.2434C33.0629 27.3686 33.2378 27.4532 33.3125 27.5779C33.4053 27.7327 33.4053 28.4764 33.096 29.3442C32.7863 30.2119 31.3024 31.0038 30.5887 31.1104C29.9488 31.206 29.1389 31.246 28.2492 30.9632C27.7096 30.792 27.0178 30.5635 26.1316 30.1807C22.6494 28.6771 20.2961 25.3021 19.8513 24.6642C19.8202 24.6195 19.7984 24.5883 19.7862 24.572L19.7832 24.568C19.5867 24.3058 18.2695 22.5484 18.2695 20.7296C18.2695 19.0186 19.11 18.1218 19.4969 17.709C19.5234 17.6807 19.5477 17.6547 19.5696 17.6309C19.91 17.259 20.3125 17.166 20.5601 17.166C20.8077 17.166 21.0556 17.1683 21.272 17.1792C21.2987 17.1805 21.3265 17.1804 21.3552 17.1802C21.5716 17.1789 21.8415 17.1773 22.1077 17.8168C22.2101 18.0629 22.36 18.4278 22.5181 18.8126C22.8377 19.5907 23.1908 20.4504 23.253 20.5748C23.3458 20.7608 23.4077 20.9776 23.2839 21.2256C23.2653 21.2628 23.2481 21.2979 23.2317 21.3314C23.1387 21.5213 23.0703 21.6609 22.9125 21.8452C22.8504 21.9177 22.7863 21.9958 22.7221 22.0739C22.5943 22.2295 22.4666 22.3851 22.3553 22.496C22.1694 22.6812 21.9758 22.8822 22.1925 23.254C22.4091 23.6259 23.1546 24.8422 24.2588 25.8272C25.4458 26.886 26.4775 27.3335 27.0004 27.5603C27.1025 27.6046 27.1853 27.6404 27.2459 27.6708C27.6172 27.8568 27.8339 27.8257 28.0506 27.5779C28.2673 27.33 28.9792 26.4932 29.2268 26.1214C29.4743 25.7497 29.7221 25.8116 30.0625 25.9355C30.403 26.0596 32.2292 26.9581 32.6007 27.144C32.6732 27.1803 32.741 27.213 32.8038 27.2434Z" fill="#A08D70"/>
</svg>
