<svg width="1920" height="960" viewBox="0 0 1920 960" fill="none" xmlns="http://www.w3.org/2000/svg">
<path d="M1105.71 882.001C1099.11 879.101 1092.41 876.201 1085.81 873.101C1054.61 858.201 1026.31 836.501 1005.91 808.601C985.205 780.301 973.305 746.701 957.905 715.201C942.505 683.701 922.005 652.601 890.805 636.601C883.805 633.001 875.905 630.201 868.205 631.901C860.505 633.701 854.005 641.701 856.305 649.201C858.305 655.501 865.105 658.701 870.905 662.001C895.105 675.801 909.305 702.101 918.405 728.301C927.605 754.601 933.105 782.301 946.005 806.901C960.605 834.501 984.005 856.801 1010.21 873.901C1036.41 891.001 1065.41 903.201 1094.61 914.401C1110.21 920.401 1128.11 928.501 1131.91 944.801C1135.91 961.801 1120.81 978.401 1104.01 983.201C1087.21 987.901 1069.31 984.201 1052.11 981.501C1016.51 975.801 977.905 974.801 946.605 992.701C940.905 996.001 935.105 1000.4 933.605 1006.8C927.405 1033.8 1005.21 1014.8 1017.41 1014.5C1047.11 1013.8 1077.51 1022.7 1106.21 1014.8C1128.91 1008.5 1148.31 991.401 1157.41 969.701C1162.51 957.501 1164.41 943.801 1160.71 931.101C1156.21 915.401 1143.81 903.101 1129.91 894.501C1122.21 889.501 1114.01 885.701 1105.71 882.001Z" fill="#474747" fill-opacity="0.5"/>
<path d="M2089.2 484.3C2088.7 484.1 2088.2 483.9 2087.7 483.7C2076.2 479.9 2065.8 491.2 2058.4 500.7C2014.1 557.2 1948 594.1 1878.5 612.2C1809 630.3 1736 631 1664.5 624.8C1621.7 621.1 1578.6 615 1535.8 619.3C1493.3 623.6 1452.5 637.9 1410.2 643.6C1355.5 650.9 1298.2 643.8 1246.3 662.5C1214 674.2 1184.5 696.7 1170.1 727.9C1128.4 818.2 1224.6 929.1 1182.7 1019.3C1160.8 1066.4 1108.5 1089.9 1060.4 1109.6C1043.7 1116.4 1026.3 1123.4 1008.3 1121.9C988.499 1120.2 971.199 1108.6 955.099 1097C916.999 1069.6 877.299 1035.4 871.999 988.8C865.899 934.5 909.499 882.6 899.299 829C894.799 805.2 880.199 784.7 865.899 765.2C861.599 759.3 857.199 753.3 852.399 747.6C837.999 730.1 810.399 747.7 820.199 768.1C833.099 795.1 849.399 821.3 854.199 850.6C863.299 906 830.199 962.3 840.899 1017.4C852.599 1077.9 910.799 1113.5 963.199 1135.9C1035.4 1166.8 1100.8 1136.3 1165.2 1100.1C1182 1090.6 1199.3 1080.8 1211.7 1066.1C1236.2 1037 1237.2 994.7 1230.2 957.4C1221.1 909 1200.7 862.7 1196.8 813.6C1192.9 764.5 1211.4 708.1 1256.9 689.2C1305.2 669.1 1360.8 698.8 1412.3 689.5C1432.7 685.8 1451.5 676.2 1470.9 668.9C1615.3 614.2 1782 687.8 1929.8 643C1994.1 623.5 2051.2 581.5 2089 525.9C2097.8 512.9 2103 490.5 2089.2 484.3Z" fill="#474747" fill-opacity="0.5"/>
<path d="M1358.9 733.3H1358.8C1333.2 742.2 1307.9 753.1 1286.4 769.6C1264.9 786.1 1247.3 808.7 1240.8 835C1234.3 861.2 1239.2 888.8 1244.1 915.3C1250.3 948.8 1256.4 982.3 1262.6 1015.8C1264.9 1028.2 1267.2 1040.7 1270.8 1052.9C1272.5 1058.6 1274.2 1065 1277.2 1070.2C1279.4 1073.9 1284.4 1073.9 1288.1 1072.4C1289.4 1071.9 1290.7 1071.1 1291.8 1070.1C1295.1 1067.2 1296.8 1063 1297.9 1058.7C1300.8 1047.3 1299.4 1035.2 1297.6 1023.6C1292.5 991.3 1283.8 959.5 1280.4 926.9C1277 894.3 1279.3 860 1294.8 831.2C1306 810.4 1323.3 793.7 1341.3 778.4C1351.4 769.8 1361.8 761.5 1372.5 753.5C1375.8 751 1379.2 748.5 1381.3 744.9C1383.4 741.3 1383.7 736.4 1380.9 733.4C1379.1 731.4 1376.4 730.6 1373.7 730.4C1368.6 730.1 1363.6 731.6 1358.9 733.3Z" fill="#474747" fill-opacity="0.5"/>
<path d="M317.305 689.799C313.205 690.999 309.005 693.899 305.905 696.899C263.405 738.099 221.305 780.399 189.205 830.099C157.105 879.799 135.305 937.899 137.605 996.999C138.905 1030.8 147.105 1068 128.105 1096C116.105 1113.7 95.605 1123.4 76.105 1132.3C-11.9949 1172.4 -109.295 1213.4 -202.495 1187.6C-251.695 1174 -296.395 1142.2 -347.395 1140C-394.395 1138 -439.695 1162.5 -471.795 1196.8C-503.895 1231.2 -524.495 1274.6 -541.295 1318.6C-547.395 1334.7 -553.595 1351.7 -566.495 1363.1C-579.395 1374.6 -601.395 1377.9 -613.095 1365.2C-618.695 1359.2 -620.995 1350.9 -626.195 1344.6C-631.395 1338.3 -642.195 1335 -647.195 1341.3C-650.095 1345 -649.695 1350.3 -648.695 1354.9C-642.595 1381.8 -616.795 1402.9 -589.195 1403.7C-546.395 1404.9 -514.795 1363.7 -498.395 1324.1C-481.995 1284.5 -471.295 1239.6 -438.495 1212C-415.295 1192.5 -383.895 1184.8 -353.595 1185.2C-291.995 1186.2 -235.995 1217.9 -175.095 1223C-142.295 1225.8 -109.195 1223.7 -76.6949 1218.3C-14.7949 1207.8 44.3051 1185.2 102.105 1160.7C135.405 1146.6 171.305 1128.8 184.805 1095.2C199.105 1059.5 182.705 1019.6 180.705 981.199C178.905 947.099 189.105 912.399 209.205 884.799C230.705 855.199 262.105 834.299 285.705 806.299C310.305 776.999 325.705 739.999 329.005 701.899C329.305 698.499 329.405 694.699 327.305 691.899C324.705 689.099 321.105 688.699 317.305 689.799Z" fill="#474747" fill-opacity="0.5"/>
<path d="M813.304 819.499C811.404 812.599 809.104 805.699 806.304 798.899C780.204 736.799 714.504 698.699 648.104 687.199C581.704 675.699 513.804 686.699 447.304 697.699C430.104 700.499 412.004 703.699 398.404 714.699C373.104 734.999 372.804 772.999 357.704 801.699C328.304 857.699 244.704 875.699 229.904 937.199C218.304 985.299 256.704 1031.7 257.804 1081.2C259.204 1147.1 194.504 1196.1 130.904 1213.6C104.904 1220.8 78.2037 1224.7 51.4037 1228.5C27.8037 1231.9 31.7037 1267.1 55.4037 1265.2C130.104 1259.1 203.004 1228.9 258.404 1178.3C281.704 1157 303.104 1129.6 303.204 1098C303.304 1066.6 282.404 1039.3 275.204 1008.8C251.904 910.499 383.004 861.599 409.604 776.399C415.904 756.299 420.904 732.999 439.204 722.599C450.204 716.399 463.504 716.599 476.204 716.899C515.904 717.999 555.504 719.099 595.204 720.199C631.204 721.199 669.104 722.699 699.704 741.699C741.904 767.799 759.704 820.399 764.004 869.799C775.104 995.699 714.404 1125.5 610.704 1197.7C548.304 1241.1 469.804 1267.2 428.104 1330.7C405.604 1364.9 394.404 1409 360.104 1431.2C319.704 1457.4 266.204 1441.5 218.704 1449.1C176.104 1455.9 139.104 1481.8 97.8037 1494.4C13.1038 1520.3 -77.1963 1488.2 -165.696 1484.4C-310.596 1478.2 -447.796 1548.4 -567.196 1630.5C-615.596 1663.8 -663.796 1700 -720.496 1715.6C-776.096 1730.9 -834.896 1725.1 -892.596 1726.9C-983.496 1729.9 -1073.6 1752.6 -1155 1793.2C-1186.8 1809.1 -1217.6 1827.7 -1251.9 1837C-1286.2 1846.3 -1325.7 1844.8 -1353.7 1823C-1388.7 1795.7 -1395.7 1746.7 -1412.2 1705.5C-1417.3 1692.7 -1426 1678.7 -1439.7 1677.7C-1453.7 1676.7 -1465 1691 -1466 1705C-1467 1719 -1460.7 1732.3 -1454.5 1744.9C-1409.5 1836.3 -1361.9 1926.5 -1311.8 2015.3C-1302.4 2032 -1276.6 2019.6 -1284.3 2002C-1284.5 2001.6 -1284.7 2001.2 -1284.9 2000.8C-1292 1986.8 -1306.1 1977.3 -1312.6 1963.1C-1329.2 1927 -1289.9 1890.9 -1254.8 1872.3C-1147.6 1815.3 -1029.5 1778.8 -908.896 1765.4C-824.596 1756.1 -737.096 1757.4 -658.996 1724.3C-570.796 1687 -504.596 1609.6 -417.196 1570.4C-263.696 1501.5 -82.6963 1563.4 82.3037 1530.4C143.104 1518.2 201.004 1493.2 262.504 1484.8C312.404 1478 368.904 1480.2 405.304 1445.3C441.204 1410.9 443.504 1352.2 477.704 1316.1C510.604 1281.3 563.404 1276.6 607.104 1256.9C695.804 1216.8 740.104 1118.6 776.904 1028.5C804.104 961.899 831.404 887.299 813.304 819.499Z" fill="#474747" fill-opacity="0.5"/>
<path d="M889.199 484.3C888.699 484.1 888.199 483.9 887.699 483.7C876.199 479.9 865.799 491.2 858.399 500.7C814.099 557.2 747.999 594.1 678.499 612.2C608.999 630.3 535.999 631 464.499 624.8C421.699 621.1 378.599 615 335.799 619.3C293.299 623.6 252.499 637.9 210.199 643.6C155.499 650.9 98.199 643.8 46.299 662.5C13.999 674.2 -15.5011 696.7 -29.9011 727.9C-71.6011 818.2 24.5989 929.1 -17.3011 1019.3C-39.2011 1066.4 -91.501 1089.9 -139.601 1109.6C-156.301 1116.4 -173.701 1123.4 -191.701 1121.9C-211.501 1120.2 -228.801 1108.6 -244.901 1097C-283.001 1069.6 -322.701 1035.4 -328.001 988.8C-334.101 934.5 -290.501 882.6 -300.701 829C-305.201 805.2 -319.801 784.7 -334.101 765.2C-338.401 759.3 -342.801 753.3 -347.601 747.6C-362.001 730.1 -389.601 747.7 -379.801 768.1C-366.901 795.1 -350.601 821.3 -345.801 850.6C-336.701 906 -369.801 962.3 -359.101 1017.4C-347.401 1077.9 -289.201 1113.5 -236.801 1135.9C-164.601 1166.8 -99.2011 1136.3 -34.8011 1100.1C-18.0011 1090.6 -0.701111 1080.8 11.6989 1066.1C36.1989 1037 37.1989 994.7 30.1989 957.4C21.0989 909 0.698975 862.7 -3.20102 813.6C-7.10101 764.5 11.399 708.1 56.899 689.2C105.199 669.1 160.799 698.8 212.299 689.5C232.699 685.8 251.499 676.2 270.899 668.9C415.299 614.2 581.999 687.8 729.799 643C794.099 623.5 851.199 581.5 888.999 525.9C897.799 512.9 902.999 490.5 889.199 484.3Z" fill="#474747" fill-opacity="0.5"/>
<path d="M158.905 733.3H158.805C133.205 742.2 107.905 753.1 86.4047 769.6C64.9047 786.1 47.3047 808.7 40.8047 835C34.3047 861.2 39.2046 888.8 44.1046 915.3C50.3046 948.8 56.4046 982.3 62.6046 1015.8C64.9046 1028.2 67.2047 1040.7 70.8047 1052.9C72.5047 1058.6 74.2046 1065 77.2046 1070.2C79.4046 1073.9 84.4046 1073.9 88.1046 1072.4C89.4046 1071.9 90.7047 1071.1 91.8047 1070.1C95.1047 1067.2 96.8047 1063 97.9047 1058.7C100.805 1047.3 99.4046 1035.2 97.6046 1023.6C92.5046 991.3 83.8047 959.5 80.4047 926.9C77.0047 894.3 79.3047 860 94.8047 831.2C106.005 810.4 123.305 793.7 141.305 778.4C151.405 769.8 161.805 761.5 172.505 753.5C175.805 751 179.205 748.5 181.305 744.9C183.405 741.3 183.705 736.4 180.905 733.4C179.105 731.4 176.405 730.6 173.705 730.4C168.605 730.1 163.605 731.6 158.905 733.3Z" fill="#474747" fill-opacity="0.5"/>
<path d="M683.001 855.4C677.701 825.5 672.301 795.6 667.001 765.7C666.201 761.5 665.301 757 662.201 754.1C653.901 746.5 641.101 757 636.901 767.4C615.301 820.4 655.701 877.2 661.701 934.1C667.001 983.7 645.001 1033.1 612.801 1071.3C580.701 1109.5 539.001 1138.3 497.901 1166.6C419.101 1220.9 340.301 1275.2 261.401 1329.4C223.701 1355.4 185.301 1381.7 141.901 1396.1C51.3013 1426.2 -46.9988 1401 -140.599 1382.6C-194.899 1371.9 -253.899 1364.1 -303.599 1388.7C-334.799 1404.1 -358.799 1430.7 -385.499 1453C-450.199 1507.2 -534.299 1537.5 -618.699 1537.2C-651.499 1537.1 -685.999 1532.8 -715.899 1546.3C-751.299 1562.3 -772.299 1599.9 -805.499 1620.2C-857.999 1652.4 -925.499 1634.5 -986.699 1640.7C-1043.5 1646.4 -1095.6 1673.4 -1149.4 1692.6C-1203.2 1711.9 -1264.6 1723.1 -1316 1698.2C-1331.9 1690.5 -1359.6 1686.2 -1359.2 1703.9C-1359.1 1708.5 -1356.3 1712.6 -1353.4 1716.2C-1316.4 1761.5 -1247 1763.7 -1191.1 1746.8C-1135.2 1729.9 -1083.9 1698.1 -1026.4 1687.5C-948.699 1673.1 -861.699 1697.5 -793.699 1657.1C-760.499 1637.4 -735.899 1603.8 -699.799 1590C-675.599 1580.8 -649.099 1580.7 -623.599 1580.4C-599.099 1580.2 -573.099 1580.9 -549.799 1572.4C-538.899 1568.4 -529.199 1562.1 -521.499 1553.5C-518.199 1549.8 -515.599 1546.3 -510.899 1544.6C-503.799 1542 -496.099 1540.7 -488.799 1538.6C-458.199 1529.5 -428.799 1516.5 -401.399 1500C-389.499 1492.8 -377.999 1485 -366.999 1476.5C-334.399 1451.4 -303.699 1419.7 -263.299 1411.7C-235.999 1406.3 -207.999 1412.6 -180.699 1418.2C-81.1987 1439 22.0012 1452.4 121.901 1433.8C300.701 1400.5 444.101 1271.3 577.301 1147.4C624.501 1103.5 674.001 1055.8 688.901 993C699.301 949.2 691.401 903.4 683.501 859.1C683.501 857.9 683.301 856.6 683.001 855.4Z" fill="#474747" fill-opacity="0.5"/>
<path d="M597.303 940.6L581.003 766.1C580.303 758.1 569.703 755.7 565.603 762.6C550.803 787.7 548.503 820.1 552.003 849.8C556.403 886.8 568.303 923 568.703 960.2C568.903 974.1 567.303 988.5 560.803 1000.8C552.703 1016 538.103 1026.5 524.003 1036.4C430.903 1101.6 337.703 1166.9 244.603 1232.1C201.302 1262.4 157.103 1293.2 106.603 1308.7C22.3025 1334.6 -68.1974 1315 -155.697 1303.6C-224.697 1294.6 -297.797 1291.4 -360.797 1320.8C-429.098 1352.7 -479.597 1420.3 -553.197 1436.8C-595.997 1446.4 -641.497 1437 -684.197 1446.8C-742.697 1460.2 -787.597 1506.9 -843.097 1529.7C-924.397 1563.1 -1018.5 1541.6 -1103.3 1564.6C-1180.5 1585.5 -1252.9 1643 -1331.3 1627.5C-1373.6 1619.1 -1410.9 1589.8 -1454.1 1588.3C-1483.8 1587.3 -1512.1 1599.7 -1539.3 1611.9L-1770.3 1715.7C-1789.2 1724.2 -1777.3 1752.7 -1758 1745.1C-1755.4 1744.1 -1752.9 1743 -1750.5 1742C-1697 1718.8 -1643.6 1695.7 -1590.1 1672.5C-1548.3 1654.4 -1505.1 1636 -1459.6 1635.6C-1408.2 1635.2 -1359.1 1657.9 -1307.7 1660.4C-1227.4 1664.3 -1153.1 1619.1 -1073.5 1607.3C-1034.7 1601.6 -994.997 1603.9 -955.997 1599.1C-869.697 1588.5 -792.597 1544.8 -714.997 1508.7C-676.097 1490.7 -636.397 1473.8 -594.597 1463.9C-574.097 1459 -553.197 1456 -532.097 1455.2C-516.897 1454.6 -503.497 1455.9 -490.297 1447.3C-465.797 1431.5 -445.597 1409.2 -420.597 1393.5C-394.997 1377.4 -367.698 1364 -339.297 1353.6C-281.698 1332.5 -219.497 1323.7 -158.297 1329.3C-71.5975 1337.2 15.7025 1371.9 100.103 1350.8C145.703 1339.4 185.603 1312.6 224.503 1286.3C332.302 1213.3 440.103 1140.4 547.103 1066.3C565.603 1053.5 584.903 1039.7 594.103 1019.1C602.703 999.8 600.903 977.6 598.903 956.5C598.302 951.2 597.803 945.9 597.303 940.6Z" fill="#474747" fill-opacity="0.5"/>
<path d="M3213.3 -380.501C3211.4 -387.401 3209.1 -394.301 3206.3 -401.101C3180.2 -463.201 3114.5 -501.301 3048.1 -512.801C2981.7 -524.301 2913.8 -513.301 2847.3 -502.301C2830.1 -499.501 2812 -496.301 2798.4 -485.301C2773.1 -465.001 2772.8 -427.001 2757.7 -398.301C2728.3 -342.301 2644.7 -324.301 2629.9 -262.801C2618.3 -214.701 2656.7 -168.301 2657.8 -118.801C2659.2 -52.9011 2594.5 -3.90106 2530.9 13.5989C2504.9 20.799 2478.2 24.699 2451.4 28.499C2427.8 31.899 2431.7 67.099 2455.4 65.199C2530.1 59.099 2603 28.8989 2658.4 -21.7011C2681.7 -43.0011 2703.1 -70.4011 2703.2 -102.001C2703.3 -133.401 2682.4 -160.701 2675.2 -191.201C2651.9 -289.501 2783 -338.401 2809.6 -423.601C2815.9 -443.701 2820.9 -467.001 2839.2 -477.401C2850.2 -483.601 2863.5 -483.401 2876.2 -483.101C2915.9 -482.001 2955.5 -480.901 2995.2 -479.801C3031.2 -478.801 3069.1 -477.301 3099.7 -458.301C3141.9 -432.201 3159.7 -379.601 3164 -330.201C3175.1 -204.301 3114.4 -74.501 3010.7 -2.30103C2948.3 41.099 2869.8 67.199 2828.1 130.699C2805.6 164.899 2794.4 208.999 2760.1 231.199C2719.7 257.399 2666.2 241.499 2618.7 249.099C2576.1 255.899 2539.1 281.799 2497.8 294.399C2413.1 320.299 2322.8 288.199 2234.3 284.399C2089.4 278.199 1952.2 348.399 1832.8 430.499C1784.4 463.799 1736.2 499.999 1679.5 515.599C1623.9 530.899 1565.1 525.099 1507.4 526.899C1416.5 529.899 1326.4 552.599 1245 593.199C1213.2 609.099 1182.4 627.699 1148.1 636.999C1113.8 646.299 1074.3 644.799 1046.3 622.999C1011.3 595.699 1004.3 546.699 987.804 505.499C982.704 492.699 974.004 478.699 960.304 477.699C946.304 476.699 935.004 490.999 934.004 504.999C933.004 518.999 939.304 532.299 945.504 544.899C990.504 636.299 1038.1 726.499 1088.2 815.299C1097.6 831.999 1123.4 819.599 1115.7 801.999C1115.5 801.599 1115.3 801.199 1115.1 800.799C1108 786.799 1093.9 777.299 1087.4 763.099C1070.8 726.999 1110.1 690.899 1145.2 672.299C1252.4 615.299 1370.5 578.799 1491.1 565.399C1575.4 556.099 1662.9 557.399 1741 524.299C1829.2 486.999 1895.4 409.599 1982.8 370.399C2136.3 301.499 2317.3 363.399 2482.3 330.399C2543.1 318.199 2601 293.199 2662.5 284.799C2712.4 277.999 2768.9 280.199 2805.3 245.299C2841.2 210.899 2843.5 152.199 2877.7 116.099C2910.6 81.299 2963.4 76.599 3007.1 56.899C3095.8 16.799 3140.1 -81.4011 3176.9 -171.501C3204.1 -238.101 3231.4 -312.701 3213.3 -380.501Z" fill="#474747" fill-opacity="0.5"/>
<path d="M2013.3 -380.501C2011.4 -387.401 2009.1 -394.301 2006.3 -401.101C1980.2 -463.201 1914.5 -501.301 1848.1 -512.801C1781.7 -524.301 1713.8 -513.301 1647.3 -502.301C1630.1 -499.501 1612 -496.301 1598.4 -485.301C1573.1 -465.001 1572.8 -427.001 1557.7 -398.301C1528.3 -342.301 1444.7 -324.301 1429.9 -262.801C1418.3 -214.701 1456.7 -168.301 1457.8 -118.801C1459.2 -52.9011 1394.5 -3.90106 1330.9 13.5989C1304.9 20.799 1278.2 24.699 1251.4 28.499C1227.8 31.899 1231.7 67.099 1255.4 65.199C1330.1 59.099 1403 28.8989 1458.4 -21.7011C1481.7 -43.0011 1503.1 -70.4011 1503.2 -102.001C1503.3 -133.401 1482.4 -160.701 1475.2 -191.201C1451.9 -289.501 1583 -338.401 1609.6 -423.601C1615.9 -443.701 1620.9 -467.001 1639.2 -477.401C1650.2 -483.601 1663.5 -483.401 1676.2 -483.101C1715.9 -482.001 1755.5 -480.901 1795.2 -479.801C1831.2 -478.801 1869.1 -477.301 1899.7 -458.301C1941.9 -432.201 1959.7 -379.601 1964 -330.201C1975.1 -204.301 1914.4 -74.501 1810.7 -2.30103C1748.3 41.099 1669.8 67.199 1628.1 130.699C1605.6 164.899 1594.4 208.999 1560.1 231.199C1519.7 257.399 1466.2 241.499 1418.7 249.099C1376.1 255.899 1339.1 281.799 1297.8 294.399C1213.1 320.299 1122.8 288.199 1034.3 284.399C889.404 278.199 752.204 348.399 632.804 430.499C584.404 463.799 536.204 499.999 479.504 515.599C423.904 530.899 365.104 525.099 307.404 526.899C216.504 529.899 126.404 552.599 45.0037 593.199C13.2037 609.099 -17.5963 627.699 -51.8963 636.999C-86.1963 646.299 -125.696 644.799 -153.696 622.999C-188.696 595.699 -195.696 546.699 -212.196 505.499C-217.296 492.699 -225.996 478.699 -239.696 477.699C-253.696 476.699 -264.996 490.999 -265.996 504.999C-266.996 518.999 -260.696 532.299 -254.496 544.899C-209.496 636.299 -161.896 726.499 -111.796 815.299C-102.396 831.999 -76.5964 819.599 -84.2964 801.999C-84.4964 801.599 -84.6963 801.199 -84.8963 800.799C-91.9963 786.799 -106.096 777.299 -112.596 763.099C-129.196 726.999 -89.8964 690.899 -54.7964 672.299C52.4036 615.299 170.504 578.799 291.104 565.399C375.404 556.099 462.904 557.399 541.004 524.299C629.204 486.999 695.404 409.599 782.804 370.399C936.304 301.499 1117.3 363.399 1282.3 330.399C1343.1 318.199 1401 293.199 1462.5 284.799C1512.4 277.999 1568.9 280.199 1605.3 245.299C1641.2 210.899 1643.5 152.199 1677.7 116.099C1710.6 81.299 1763.4 76.599 1807.1 56.899C1895.8 16.799 1940.1 -81.4011 1976.9 -171.501C2004.1 -238.101 2031.4 -312.701 2013.3 -380.501Z" fill="#474747" fill-opacity="0.5"/>
<path d="M813.304 -380.501C811.404 -387.401 809.104 -394.301 806.304 -401.101C780.204 -463.201 714.504 -501.301 648.104 -512.801C581.704 -524.301 513.804 -513.301 447.304 -502.301C430.104 -499.501 412.004 -496.301 398.404 -485.301C373.104 -465.001 372.804 -427.001 357.704 -398.301C328.304 -342.301 244.704 -324.301 229.904 -262.801C218.304 -214.701 256.704 -168.301 257.804 -118.801C259.204 -52.9011 194.504 -3.90106 130.904 13.5989C104.904 20.799 78.2037 24.699 51.4037 28.499C27.8037 31.899 31.7037 67.099 55.4037 65.199C130.104 59.099 203.004 28.8989 258.404 -21.7011C281.704 -43.0011 303.104 -70.4011 303.204 -102.001C303.304 -133.401 282.404 -160.701 275.204 -191.201C251.904 -289.501 383.004 -338.401 409.604 -423.601C415.904 -443.701 420.904 -467.001 439.204 -477.401C450.204 -483.601 463.504 -483.401 476.204 -483.101C515.904 -482.001 555.504 -480.901 595.204 -479.801C631.204 -478.801 669.104 -477.301 699.704 -458.301C741.904 -432.201 759.704 -379.601 764.004 -330.201C775.104 -204.301 714.404 -74.501 610.704 -2.30103C548.304 41.099 469.804 67.199 428.104 130.699C405.604 164.899 394.404 208.999 360.104 231.199C319.704 257.399 266.204 241.499 218.704 249.099C176.104 255.899 139.104 281.799 97.8037 294.399C13.1038 320.299 -77.1963 288.199 -165.696 284.399C-310.596 278.199 -447.796 348.399 -567.196 430.499C-615.596 463.799 -663.796 499.999 -720.496 515.599C-776.096 530.899 -834.896 525.099 -892.596 526.899C-983.496 529.899 -1073.6 552.599 -1155 593.199C-1186.8 609.099 -1217.6 627.699 -1251.9 636.999C-1286.2 646.299 -1325.7 644.799 -1353.7 622.999C-1388.7 595.699 -1395.7 546.699 -1412.2 505.499C-1417.3 492.699 -1426 478.699 -1439.7 477.699C-1453.7 476.699 -1465 490.999 -1466 504.999C-1467 518.999 -1460.7 532.299 -1454.5 544.899C-1409.5 636.299 -1361.9 726.499 -1311.8 815.299C-1302.4 831.999 -1276.6 819.599 -1284.3 801.999C-1284.5 801.599 -1284.7 801.199 -1284.9 800.799C-1292 786.799 -1306.1 777.299 -1312.6 763.099C-1329.2 726.999 -1289.9 690.899 -1254.8 672.299C-1147.6 615.299 -1029.5 578.799 -908.896 565.399C-824.596 556.099 -737.096 557.399 -658.996 524.299C-570.796 486.999 -504.596 409.599 -417.196 370.399C-263.696 301.499 -82.6963 363.399 82.3037 330.399C143.104 318.199 201.004 293.199 262.504 284.799C312.404 277.999 368.904 280.199 405.304 245.299C441.204 210.899 443.504 152.199 477.704 116.099C510.604 81.299 563.404 76.599 607.104 56.899C695.804 16.799 740.104 -81.4011 776.904 -171.501C804.104 -238.101 831.404 -312.701 813.304 -380.501Z" fill="#474747" fill-opacity="0.5"/>
<path d="M3083 -344.6C3077.7 -374.5 3072.3 -404.4 3067 -434.3C3066.2 -438.5 3065.3 -443 3062.2 -445.9C3053.9 -453.5 3041.1 -443 3036.9 -432.6C3015.3 -379.6 3055.7 -322.8 3061.7 -265.9C3067 -216.3 3045 -166.9 3012.8 -128.7C2980.7 -90.5001 2939 -61.7001 2897.9 -33.4001C2819.1 20.8999 2740.3 75.1999 2661.4 129.4C2623.7 155.4 2585.3 181.7 2541.9 196.1C2451.3 226.2 2353 201 2259.4 182.6C2205.1 171.9 2146.1 164.1 2096.4 188.7C2065.2 204.1 2041.2 230.7 2014.5 253C1949.8 307.2 1865.7 337.5 1781.3 337.2C1748.5 337.1 1714 332.8 1684.1 346.3C1648.7 362.3 1627.7 399.9 1594.5 420.2C1542 452.4 1474.5 434.5 1413.3 440.7C1356.5 446.4 1304.4 473.4 1250.6 492.6C1196.8 511.9 1135.4 523.1 1084 498.2C1068.1 490.5 1040.4 486.2 1040.8 503.9C1040.9 508.5 1043.7 512.6 1046.6 516.2C1083.6 561.5 1153 563.7 1208.9 546.8C1264.8 529.9 1316.1 498.1 1373.6 487.5C1451.3 473.1 1538.3 497.5 1606.3 457.1C1639.5 437.4 1664.1 403.8 1700.2 390C1724.4 380.8 1750.9 380.7 1776.4 380.4C1800.9 380.2 1826.9 380.9 1850.2 372.4C1861.1 368.4 1870.8 362.1 1878.5 353.5C1881.8 349.8 1884.4 346.3 1889.1 344.6C1896.2 342 1903.9 340.7 1911.2 338.6C1941.8 329.5 1971.2 316.5 1998.6 300C2010.5 292.8 2022 285 2033 276.5C2065.6 251.4 2096.3 219.7 2136.7 211.7C2164 206.3 2192 212.6 2219.3 218.2C2318.8 239 2422 252.4 2521.9 233.8C2700.7 200.5 2844.1 71.2999 2977.3 -52.6001C3024.5 -96.5001 3074 -144.2 3088.9 -207C3099.3 -250.8 3091.4 -296.6 3083.5 -340.9C3083.5 -342.1 3083.3 -343.4 3083 -344.6Z" fill="#474747" fill-opacity="0.5"/>
<path d="M2997.3 -259.4L2981 -433.9C2980.3 -441.9 2969.7 -444.3 2965.6 -437.4C2950.8 -412.3 2948.5 -379.9 2952 -350.2C2956.4 -313.2 2968.3 -277 2968.7 -239.8C2968.9 -225.9 2967.3 -211.5 2960.8 -199.2C2952.7 -184 2938.1 -173.5 2924 -163.6C2830.9 -98.4 2737.7 -33.1001 2644.6 32.0999C2601.3 62.3999 2557.1 93.2 2506.6 108.7C2422.3 134.6 2331.8 115 2244.3 103.6C2175.3 94.5999 2102.2 91.3999 2039.2 120.8C1970.9 152.7 1920.4 220.3 1846.8 236.8C1804 246.4 1758.5 237 1715.8 246.8C1657.3 260.2 1612.4 306.9 1556.9 329.7C1475.6 363.1 1381.5 341.6 1296.7 364.6C1219.5 385.5 1147.1 443 1068.7 427.5C1026.4 419.1 989.103 389.8 945.902 388.3C916.202 387.3 887.903 399.7 860.703 411.9L629.703 515.7C610.803 524.2 622.703 552.7 642.003 545.1C644.603 544.1 647.103 543 649.503 542C703.003 518.8 756.402 495.7 809.902 472.5C851.702 454.4 894.902 436 940.402 435.6C991.802 435.2 1040.9 457.9 1092.3 460.4C1172.6 464.3 1246.9 419.1 1326.5 407.3C1365.3 401.6 1405 403.9 1444 399.1C1530.3 388.5 1607.4 344.8 1685 308.7C1723.9 290.7 1763.6 273.8 1805.4 263.9C1825.9 259 1846.8 256 1867.9 255.2C1883.1 254.6 1896.5 255.9 1909.7 247.3C1934.2 231.5 1954.4 209.2 1979.4 193.5C2005 177.4 2032.3 164 2060.7 153.6C2118.3 132.5 2180.5 123.7 2241.7 129.3C2328.4 137.2 2415.7 171.9 2500.1 150.8C2545.7 139.4 2585.6 112.6 2624.5 86.2999C2732.3 13.2999 2840.1 -59.6001 2947.1 -133.7C2965.6 -146.5 2984.9 -160.3 2994.1 -180.9C3002.7 -200.2 3000.9 -222.4 2998.9 -243.5C2998.3 -248.8 2997.8 -254.1 2997.3 -259.4Z" fill="#474747" fill-opacity="0.5"/>
<path d="M1517.31 -510.201C1513.21 -509.001 1509 -506.101 1505.9 -503.101C1463.4 -461.901 1421.3 -419.601 1389.21 -369.901C1357.11 -320.201 1335.31 -262.101 1337.61 -203.001C1338.91 -169.201 1347.11 -132.001 1328.11 -104.001C1316.11 -86.3009 1295.61 -76.6009 1276.11 -67.7009C1188.01 -27.6009 1090.71 13.399 997.505 -12.4009C948.305 -26.0009 903.605 -57.8009 852.605 -60.0009C805.605 -62.0009 760.305 -37.5009 728.205 -3.20093C696.105 31.1991 675.505 74.5991 658.705 118.599C652.605 134.699 646.405 151.699 633.505 163.099C620.605 174.499 598.605 177.899 586.905 165.199C581.305 159.199 579.005 150.899 573.805 144.599C568.605 138.299 557.805 134.999 552.805 141.299C549.905 144.999 550.305 150.299 551.305 154.899C557.405 181.799 583.205 202.899 610.805 203.699C653.605 204.899 685.205 163.699 701.605 124.099C718.005 84.4991 728.705 39.5991 761.505 11.9991C784.705 -7.50092 816.105 -15.2009 846.405 -14.8009C908.005 -13.8009 964.005 17.8991 1024.9 22.9991C1057.7 25.7991 1090.81 23.6991 1123.31 18.2991C1185.21 7.79907 1244.31 -14.8009 1302.11 -39.3009C1335.41 -53.4009 1371.31 -71.2009 1384.81 -104.801C1399.11 -140.501 1382.71 -180.401 1380.71 -218.801C1378.91 -252.901 1389.11 -287.601 1409.21 -315.201C1430.71 -344.801 1462.11 -365.701 1485.71 -393.701C1510.3 -423.001 1525.71 -460.001 1529.01 -498.101C1529.31 -501.501 1529.41 -505.301 1527.31 -508.101C1524.71 -510.901 1521.11 -511.301 1517.31 -510.201Z" fill="#474747" fill-opacity="0.5"/>
<path d="M1883 -344.6C1877.7 -374.5 1872.3 -404.4 1867 -434.3C1866.2 -438.5 1865.3 -443 1862.2 -445.9C1853.9 -453.5 1841.1 -443 1836.9 -432.6C1815.3 -379.6 1855.7 -322.8 1861.7 -265.9C1867 -216.3 1845 -166.9 1812.8 -128.7C1780.7 -90.5001 1739 -61.7001 1697.9 -33.4001C1619.1 20.8999 1540.3 75.1999 1461.4 129.4C1423.7 155.4 1385.3 181.7 1341.9 196.1C1251.3 226.2 1153 201 1059.4 182.6C1005.1 171.9 946.101 164.1 896.401 188.7C865.201 204.1 841.201 230.7 814.501 253C749.801 307.2 665.701 337.5 581.301 337.2C548.501 337.1 514.001 332.8 484.101 346.3C448.701 362.3 427.701 399.9 394.501 420.2C342.001 452.4 274.501 434.5 213.301 440.7C156.501 446.4 104.401 473.4 50.6011 492.6C-3.19891 511.9 -64.5989 523.1 -115.999 498.2C-131.899 490.5 -159.599 486.2 -159.199 503.9C-159.099 508.5 -156.299 512.6 -153.399 516.2C-116.399 561.5 -46.9989 563.7 8.90114 546.8C64.8011 529.9 116.101 498.1 173.601 487.5C251.301 473.1 338.301 497.5 406.301 457.1C439.501 437.4 464.101 403.8 500.201 390C549.701 371.1 611.701 397.7 657.201 368.4C667.901 361.5 677.501 353.1 688.601 347C723.701 327.7 763.701 321.2 798.701 300C810.601 292.8 822.101 285 833.101 276.5C865.701 251.4 896.401 219.7 936.801 211.7C964.101 206.3 992.101 212.6 1019.4 218.2C1118.9 239 1222.1 252.4 1322 233.8C1500.8 200.5 1644.2 71.2999 1777.4 -52.6001C1824.6 -96.5001 1874.1 -144.2 1889 -207C1899.4 -250.8 1891.5 -296.6 1883.6 -340.9C1883.5 -342.1 1883.3 -343.4 1883 -344.6Z" fill="#474747" fill-opacity="0.5"/>
<path d="M1797.3 -259.4L1781 -433.9C1780.3 -441.9 1769.7 -444.3 1765.6 -437.4C1750.8 -412.3 1748.5 -379.9 1752 -350.2C1756.4 -313.2 1768.3 -277 1768.7 -239.8C1768.9 -225.9 1767.3 -211.5 1760.8 -199.2C1752.7 -184 1738.1 -173.5 1724 -163.6C1630.9 -98.4 1537.7 -33.1001 1444.6 32.0999C1401.3 62.3999 1357.1 93.2 1306.6 108.7C1222.3 134.6 1131.8 115 1044.3 103.6C975.303 94.5999 902.203 91.3999 839.203 120.8C770.902 152.7 720.403 220.3 646.803 236.8C604.003 246.4 558.503 237 515.803 246.8C457.303 260.2 412.403 306.9 356.903 329.7C275.603 363.1 181.503 341.6 96.7026 364.6C19.5026 385.5 -52.8975 443 -131.297 427.5C-173.597 419.1 -210.897 389.8 -254.097 388.3C-283.797 387.3 -312.097 399.7 -339.297 411.9L-570.297 515.7C-589.197 524.2 -577.297 552.7 -557.997 545.1C-555.397 544.1 -552.897 543 -550.497 542C-496.997 518.8 -443.597 495.7 -390.097 472.5C-348.297 454.4 -305.097 436 -259.597 435.6C-208.197 435.2 -159.097 457.9 -107.697 460.4C-27.3973 464.3 46.9026 419.1 126.503 407.3C165.303 401.6 205.003 403.9 244.003 399.1C330.303 388.5 407.403 344.8 485.003 308.7C523.903 290.7 563.602 273.8 605.402 263.9C625.902 259 646.802 256 667.902 255.2C683.102 254.6 696.503 255.9 709.703 247.3C734.203 231.5 754.402 209.2 779.402 193.5C805.002 177.4 832.302 164 860.703 153.6C918.302 132.5 980.503 123.7 1041.7 129.3C1128.4 137.2 1215.7 171.9 1300.1 150.8C1345.7 139.4 1385.6 112.6 1424.5 86.2999C1532.3 13.2999 1640.1 -59.6001 1747.1 -133.7C1765.6 -146.5 1784.9 -160.3 1794.1 -180.9C1802.7 -200.2 1800.9 -222.4 1798.9 -243.5C1798.3 -248.8 1797.8 -254.1 1797.3 -259.4Z" fill="#474747" fill-opacity="0.5"/>
<path d="M317.305 -510.201C313.205 -509.001 309.005 -506.101 305.905 -503.101C263.405 -461.901 221.305 -419.601 189.205 -369.901C157.105 -320.201 135.305 -262.101 137.605 -203.001C138.905 -169.201 147.105 -132.001 128.105 -104.001C116.105 -86.3009 95.605 -76.6009 76.105 -67.7009C-11.9949 -27.6009 -109.295 13.399 -202.495 -12.4009C-251.695 -26.0009 -296.395 -57.8009 -347.395 -60.0009C-394.395 -62.0009 -439.695 -37.5009 -471.795 -3.20093C-503.895 31.1991 -524.495 74.5991 -541.295 118.599C-547.395 134.699 -553.595 151.699 -566.495 163.099C-579.395 174.599 -601.395 177.899 -613.095 165.199C-618.695 159.199 -620.995 150.899 -626.195 144.599C-631.395 138.299 -642.195 134.999 -647.195 141.299C-650.095 144.999 -649.695 150.299 -648.695 154.899C-642.595 181.799 -616.795 202.899 -589.195 203.699C-546.395 204.899 -514.795 163.699 -498.395 124.099C-481.995 84.4991 -471.295 39.5991 -438.495 11.9991C-415.295 -7.50092 -383.895 -15.2009 -353.595 -14.8009C-291.995 -13.8009 -235.995 17.8991 -175.095 22.9991C-142.295 25.7991 -109.195 23.6991 -76.6949 18.2991C-14.7949 7.79907 44.3051 -14.8009 102.105 -39.3009C135.405 -53.4009 171.305 -71.2009 184.805 -104.801C199.105 -140.501 182.705 -180.401 180.705 -218.801C178.905 -252.901 189.105 -287.601 209.205 -315.201C230.705 -344.801 262.105 -365.701 285.705 -393.701C310.305 -423.001 325.705 -460.001 329.005 -498.101C329.305 -501.501 329.405 -505.301 327.305 -508.101C324.705 -510.901 321.105 -511.301 317.305 -510.201Z" fill="#474747" fill-opacity="0.5"/>
<path d="M683.001 -344.6C677.701 -374.5 672.301 -404.4 667.001 -434.3C666.201 -438.5 665.301 -443 662.201 -445.9C653.901 -453.5 641.101 -443 636.901 -432.6C615.301 -379.6 655.701 -322.8 661.701 -265.9C667.001 -216.3 645.001 -166.9 612.801 -128.7C580.701 -90.5001 539.001 -61.7001 497.901 -33.4001C419.101 20.8999 340.301 75.1999 261.401 129.4C223.701 155.4 185.301 181.7 141.901 196.1C51.3013 226.2 -46.9988 201 -140.599 182.6C-194.899 171.9 -253.899 164.1 -303.599 188.7C-334.799 204.1 -358.799 230.7 -385.499 253C-450.199 307.2 -534.299 337.5 -618.699 337.2C-651.499 337.1 -685.999 332.8 -715.899 346.3C-751.299 362.3 -772.299 399.9 -805.499 420.2C-857.999 452.4 -925.499 434.5 -986.699 440.7C-1043.5 446.4 -1095.6 473.4 -1149.4 492.6C-1203.2 511.8 -1264.6 523.1 -1316 498.2C-1331.9 490.5 -1359.6 486.2 -1359.2 503.9C-1359.1 508.5 -1356.3 512.6 -1353.4 516.2C-1316.4 561.5 -1247 563.7 -1191.1 546.8C-1135.2 529.9 -1083.9 498.1 -1026.4 487.5C-948.699 473.1 -861.699 497.5 -793.699 457.1C-760.499 437.4 -735.899 403.8 -699.799 390C-675.599 380.8 -649.099 380.7 -623.599 380.4C-599.099 380.2 -573.099 380.9 -549.799 372.4C-538.899 368.4 -529.199 362.1 -521.499 353.5C-518.199 349.8 -515.599 346.3 -510.899 344.6C-503.799 342 -496.099 340.7 -488.799 338.6C-458.199 329.5 -428.799 316.5 -401.399 300C-389.499 292.8 -377.999 285 -366.999 276.5C-334.399 251.4 -303.699 219.7 -263.299 211.7C-235.999 206.3 -207.999 212.6 -180.699 218.2C-81.1987 239 22.0012 252.4 121.901 233.8C300.701 200.5 444.101 71.2999 577.301 -52.6001C624.501 -96.5001 674.001 -144.2 688.901 -207C699.301 -250.8 691.401 -296.6 683.501 -340.9C683.501 -342.1 683.301 -343.4 683.001 -344.6Z" fill="#474747" fill-opacity="0.5"/>
<path d="M597.303 -259.4L581.003 -433.9C580.303 -441.9 569.703 -444.3 565.603 -437.4C550.803 -412.3 548.503 -379.9 552.003 -350.2C556.403 -313.2 568.303 -277 568.703 -239.8C568.903 -225.9 567.303 -211.5 560.803 -199.2C552.703 -184 538.103 -173.5 524.003 -163.6C430.903 -98.4 337.703 -33.1001 244.603 32.0999C201.302 62.3999 157.103 93.2 106.603 108.7C22.3025 134.6 -68.1974 115 -155.697 103.6C-224.697 94.5999 -297.797 91.3999 -360.797 120.8C-429.098 152.7 -479.597 220.3 -553.197 236.8C-595.997 246.4 -641.497 237 -684.197 246.8C-742.697 260.2 -787.597 306.9 -843.097 329.7C-924.397 363.1 -1018.5 341.6 -1103.3 364.6C-1180.5 385.5 -1252.9 443 -1331.3 427.5C-1373.6 419.1 -1410.9 389.8 -1454.1 388.3C-1483.8 387.3 -1512.1 399.7 -1539.3 411.9L-1770.3 515.7C-1789.2 524.2 -1777.3 552.7 -1758 545.1C-1755.4 544.1 -1752.9 543 -1750.5 542C-1697 518.8 -1643.6 495.7 -1590.1 472.5C-1548.3 454.4 -1505.1 436 -1459.6 435.6C-1408.2 435.2 -1359.1 457.9 -1307.7 460.4C-1227.4 464.3 -1153.1 419.1 -1073.5 407.3C-1034.7 401.6 -994.997 403.9 -955.997 399.1C-869.697 388.5 -792.597 344.8 -714.997 308.7C-676.097 290.7 -636.397 273.8 -594.597 263.9C-574.097 259 -553.197 256 -532.097 255.2C-516.897 254.6 -503.497 255.9 -490.297 247.3C-465.797 231.5 -445.597 209.2 -420.597 193.5C-394.997 177.4 -367.698 164 -339.297 153.6C-281.698 132.5 -219.497 123.7 -158.297 129.3C-71.5975 137.2 15.7025 171.9 100.103 150.8C145.703 139.4 185.603 112.6 224.503 86.2999C332.302 13.2999 440.103 -59.6001 547.103 -133.7C565.603 -146.5 584.903 -160.3 594.103 -180.9C602.703 -200.2 600.903 -222.4 598.903 -243.5C598.302 -248.8 597.803 -254.1 597.303 -259.4Z" fill="#474747" fill-opacity="0.5"/>
</svg>
