<svg width="1920" height="960" viewBox="0 0 1920 960" fill="none" xmlns="http://www.w3.org/2000/svg">
<path d="M-19.2006 1123.4C-51.6006 1100.1 -86.9006 1080 -125.901 1071.2C-156.601 1064.3 -181.401 1074.8 -206.601 1091.2C-220.701 1100.4 -234.701 1109.5 -248.801 1118.7C-252.401 1121.1 -267.301 1131.6 -271.401 1125.1C-273.801 1121.3 -268.601 1113.8 -265.701 1110.3C-247.501 1088.1 -228.801 1068.2 -209.601 1050.7C-203.801 1045.4 -196.801 1040.2 -188.601 1035.2C-157.601 1016.3 -128.601 1023.7 -99.2006 1041.2C-66.0006 1060.9 -32.6006 1080.6 0.699432 1100.1C36.6994 1121.1 72.2994 1140.5 113.699 1146.3C166.199 1153.6 220.899 1132.4 262.199 1101.2C283.699 1085 300.599 1069.1 322.499 1049.1C337.699 1035.2 352.099 1028.6 372.499 1025.2C408.999 1019.2 448.099 1009.6 482.199 991.8C500.499 982.2 516.099 969.2 528.999 952.6C543.099 934.4 553.699 916.7 560.899 899.6C573.499 869.5 567.699 841.3 553.999 812.8C539.999 783.6 526.099 759 518.599 730.6C517.399 726.1 514.299 706.8 523.899 708.1C528.599 708.7 532.299 715.2 534.199 719.2C541.399 733.9 548.399 748.7 556.299 763.1C565.499 779.9 574.599 796.7 583.699 813.6C594.099 832.9 603.599 853.2 606.099 874.7C607.899 889.9 603.399 895.7 593.599 908C585.599 918 578.999 928.8 573.599 940.5C569.599 949.3 564.699 963.7 560.299 972.7C544.899 1004.3 518.699 1026.3 486.299 1039.7C467.899 1047.3 448.099 1051 426.799 1055.6C394.799 1062.6 357.799 1075.3 331.199 1095.3C301.799 1117.3 273.899 1139.1 239.599 1153.3C209.999 1165.6 178.099 1172.8 143.799 1175C99.0994 1177.8 60.1994 1175.8 22.6994 1152C9.69943 1143.6 -4.3006 1134.1 -19.2006 1123.4Z" fill="#474747"/>
<path d="M1445.8 1044C1458.6 1013.5 1478.7 989.801 1504.5 969.501C1538.4 942.801 1573.4 917.601 1609.4 894.001C1625 883.701 1638.8 868.101 1646 850.501C1653.1 832.801 1659.3 815.401 1657.2 798.501C1656.3 790.801 1653.7 780.801 1652.6 773.801C1645.8 728.301 1659.7 681.301 1678.9 640.401C1683.9 629.701 1688.6 621.301 1693 615.101C1695.6 611.401 1707.4 596.101 1711.1 603.901C1711.9 605.701 1710.9 609.901 1710 612.301C1705.4 624.101 1700.3 636.301 1696.9 647.901C1682.7 696.301 1674.3 749.501 1685.5 799.701C1692.5 831.1 1709.2 890.101 1663.4 901.601C1649.7 905.101 1635.9 910.501 1622 918.001C1583.5 938.701 1544.3 959 1510.2 986.701C1500.3 994.801 1491.6 1003.8 1483.9 1013.9C1475.9 1024.5 1468.1 1038.8 1460.7 1051.5C1458.4 1055.4 1446.4 1070.3 1443.3 1057.3C1442.6 1053.7 1444.1 1048.1 1445.8 1044Z" fill="#474747"/>
<path d="M1704.7 291.7C1699 289.1 1692.9 287.9 1686.3 288C1669.5 288.3 1652.7 289 1635.9 290C1602.4 292 1569.1 305 1555.9 338.2C1546.2 362.4 1548.5 385 1558.4 408.5C1566.8 428.2 1572.2 444.9 1567.1 466C1564.2 478 1559.9 489.7 1554.6 500.8C1549.6 511.4 1543.9 521.9 1537.4 531.6C1524.2 551.4 1507.6 568.7 1492.2 586.8C1481.9 598.9 1474.4 614.3 1469.7 629.5C1463.6 649.2 1462 671 1460.3 692.7C1458.6 714.3 1452.2 734.4 1441.2 753.2C1427.8 775.9 1411.8 799.3 1397.3 819.2C1382.4 839.7 1362.7 854.1 1338.2 862.6C1321.1 868.5 1301.2 876.3 1278.3 886.1C1257.5 895 1236.1 902.4 1213.3 896.9C1185.3 890.2 1159.8 871.8 1137.4 853.6C1113.6 834.3 1090.6 813.7 1063.2 799.9C1035.2 785.8 1007.6 792.7 981.004 806.1C969.004 812.1 956.904 818 944.804 823.7C932.604 829.4 920.304 835 907.904 840.4C896.104 845.5 884.104 850.3 872.304 855.6C860.904 860.7 849.704 866.3 839.304 873.2C830.904 878.8 823.004 885.2 816.204 892.7C810.004 899.5 804.804 907.2 800.704 915.4C796.104 924.6 793.004 934.4 790.904 944.5C790.204 948 789.604 951.6 789.104 955.2C783.104 999.8 787.504 1043.3 802.304 1085.4C807.504 1100.4 815.404 1120.2 822.004 1136.1C835.004 1167.3 845.604 1198.7 853.804 1230.4C861.204 1258.8 868.304 1289 877.304 1317.6C886.304 1345.8 906.104 1376.2 902.304 1406.7C901.104 1416.1 897.904 1430.6 907.904 1437C922.704 1446.7 940.104 1424.3 944.304 1413.3C948.804 1401.5 946.804 1390.2 941.404 1379.1C918.704 1331.7 900.004 1284.1 887.804 1232.8C877.104 1187.7 862.004 1146.5 844.004 1104C820.304 1048.2 798.904 975.6 842.704 923.3C850.704 913.7 859.004 904.2 868.604 896.1C878.004 888.1 888.604 881.8 899.504 875.9C909.804 870.2 920.504 865.1 931.304 860.4C942.204 855.7 953.304 851.5 964.504 847.6C976.204 843.6 988.004 840 999.804 836.7C1001.4 836.3 1003 835.8 1004.6 835.4C1041.2 825.3 1065.8 844 1092.5 865.8C1112.8 882.4 1130.1 895.3 1152.8 907.9C1194 930.9 1240.9 937.5 1287.7 932.4C1301.5 930.9 1315.4 928.2 1327.7 922.8C1346.4 914.5 1363.7 899.7 1377.7 886.6C1399.4 866.5 1420.1 845.4 1439.8 823.3C1453.6 807.9 1464.6 793.2 1472.9 779.3C1485.2 758.6 1488.6 739 1490 715.3C1491.8 685.4 1503.7 656.6 1513.8 627.8C1517.2 618 1520.1 610.8 1522.4 606C1528.7 593 1537.1 581.6 1547.4 571.4C1555.6 563.3 1564.3 555.8 1571.9 547.2C1587.9 529 1599.6 506 1604.3 482.2C1608.5 461.2 1606.9 439.3 1599.5 419.2C1589.9 393.2 1574.4 362 1599.6 338.5C1621.9 317.8 1655.9 318.6 1684.2 318.5C1692 318.5 1701.9 317.6 1708.2 312.9C1716.2 306.4 1713.5 295.7 1704.7 291.7Z" fill="#474747"/>
<path d="M1173.1 158.799C1149.9 151.899 1130.5 150.899 1106.6 154.699C1083.6 158.399 1058.2 162.199 1035 159.499C997.802 155.199 990.402 120.799 981.502 91.3993C976.302 73.9993 968.802 57.0993 959.002 40.6993C944.602 16.4993 948.302 -14.3008 971.702 -31.4008C992.902 -46.9008 1015.6 -59.8007 1039.8 -70.0007C1051 -74.7007 1062.7 -77.7008 1074.8 -78.9008C1091.5 -80.5008 1104.2 -75.0007 1117.7 -65.5007C1141.4 -48.7007 1164.7 -31.3007 1187.6 -13.3007C1189.4 -11.9007 1190.5 -9.40073 1188.9 -7.50072C1186 -3.90073 1174.5 -4.90075 1169.9 -5.90075C1147.2 -10.8008 1130.3 -25.9007 1106.2 -37.2007C1056.7 -60.5007 986.002 -38.1007 989.802 26.7993C991.602 57.9993 1002.7 84.0993 1023 105.299C1041.1 124.199 1058.8 134.799 1085.8 134.399C1100.5 134.199 1115.1 131.799 1129.7 129.999C1156.8 126.799 1182.5 130.999 1207 142.599C1212.9 145.399 1220.1 149.799 1223.1 155.299C1226.6 161.699 1223.3 167.299 1216.6 168.699C1202.9 171.699 1186.1 162.699 1173.1 158.799Z" fill="#474747"/>
<path d="M1207.4 366.999C1186 353.299 1162.7 344.299 1136.3 347.399C1128.2 348.399 1120.2 349.399 1112.2 350.399C1091.1 353.099 1078.9 333.999 1102 323.499C1125.1 312.999 1152 310.899 1175.3 321.699C1207.5 336.499 1237.9 364.299 1273.7 368.299C1300.8 371.399 1324.3 355.299 1343.7 335.899C1351.5 328.099 1364.3 314.899 1382 296.499C1408.1 269.299 1441.3 246.399 1472.3 223.299C1500.9 202.099 1522.9 179.099 1539.2 146.999C1543.5 138.599 1547.8 130.199 1552.1 121.899C1569.6 88.099 1598.9 63.799 1634.6 51.199C1638.1 49.999 1645.9 47.399 1657.9 43.399C1674.2 37.999 1687.1 24.899 1703.4 20.699C1719.3 16.599 1732.1 21.4989 1740.2 36.2989C1753.2 59.8989 1772.1 74.999 1792.3 91.999C1799.9 98.399 1813.2 110.199 1810 121.599C1807.4 130.699 1798 129.999 1790.4 126.499C1777.6 120.599 1767.5 109.699 1754 97.5989C1739.3 84.3989 1722.2 74.699 1702.5 71.399C1659.4 64.099 1622.2 79.299 1594.8 112.899C1580.7 130.299 1571.7 147.999 1561.8 166.799C1546.5 195.799 1526.4 219.299 1501.5 237.199C1484.8 249.199 1468.1 261.299 1451.4 273.499C1425 292.699 1401.5 314.899 1380.9 340.099C1367.2 356.799 1351.4 379.799 1341.3 393.099C1315.3 427.299 1286.6 425.399 1254.3 400.499C1237.7 387.499 1222.1 376.399 1207.4 366.999Z" fill="#474747"/>
<path d="M1302.6 116.5C1303.2 118.4 1302.21 120.5 1300.31 121.1L1288.9 124.9C1287 125.5 1285.01 124.5 1284.31 122.6L1284.2 122.3C1283.6 120.4 1284.6 118.3 1286.5 117.7L1297.9 113.9C1299.8 113.3 1301.8 114.3 1302.5 116.2L1302.6 116.5Z" fill="#474747"/>
<path d="M1476.7 114.5C1473.7 114.3 1471 114.5 1468.5 114.9C1450.1 118.2 1437.6 120.5 1421.5 120.6C1394 120.8 1369.4 113.6 1350 138.8C1339 153.1 1331 162.7 1319.1 172.4C1280.5 203.6 1236 222.4 1187.2 231.5C1134.3 241.3 1077.3 247.5 1022.4 256.3C982.899 262.7 937.999 277.7 943.499 328.3C945.999 351.2 957.499 378.3 968.599 397C986.599 427.4 1019.1 435.9 1052 437.2C1102.2 439.1 1154 434.5 1200.2 461.3C1220.5 473.1 1239.4 487.6 1255.6 504.6C1265.3 514.8 1274.8 525.9 1279.9 539.2C1285 552.7 1283.4 566 1280.2 579.7C1273.8 606.4 1260.4 633.2 1238.7 650.7C1236.6 652.4 1234.4 654 1232.2 655.5C1225 660.2 1217.9 665 1210.7 669.8C1200.4 676.7 1189.5 689.4 1202.7 700.8C1215.3 711.7 1242 702.6 1253.8 694.2C1280.7 675.2 1293 640.3 1303.1 608.3C1312.2 579.3 1323.6 547.1 1310.5 517.5C1298.8 490.9 1273.1 468.5 1250.1 451.7C1234.1 440.1 1217 430 1199.1 421.7C1155.6 401.5 1109.5 406.9 1063.3 408.1C1022.5 409.1 971.799 393.6 974.099 343.3C975.799 305.1 1011.9 296.3 1042.3 290.4C1103.2 278.7 1163.5 267.6 1223.2 250.4C1278.2 234.5 1327.1 211.2 1376.8 182.2C1382.5 178.9 1395.4 171.3 1415.5 159.5C1432.3 149.6 1450.1 143.7 1469.1 141.6C1474.3 141 1478.9 139.1 1483 135.8C1491.6 128.6 1489.4 115.2 1476.7 114.5Z" fill="#474747"/>
<path d="M1264 317.501C1257.3 314.701 1255.2 308.801 1258.5 302.101C1263.7 291.601 1273.9 283.701 1283.8 277.701C1305.1 264.801 1327 253.101 1349.7 242.901C1354.5 240.701 1365.2 238.001 1364.4 246.401C1363.8 253.001 1357.9 258.701 1353.6 262.501C1338 276.401 1322.2 290.101 1306.3 303.701C1296.8 311.701 1275.8 322.501 1264 317.501Z" fill="#474747"/>
<path d="M1704.7 -908.3C1699 -910.9 1692.9 -912.1 1686.3 -912C1669.5 -911.7 1652.7 -911 1635.9 -910C1602.4 -908 1569.1 -895 1555.9 -861.8C1546.2 -837.6 1548.5 -815 1558.4 -791.5C1566.8 -771.8 1572.2 -755.1 1567.1 -734C1564.2 -722 1559.9 -710.3 1554.6 -699.2C1549.6 -688.6 1543.9 -678.1 1537.4 -668.4C1524.2 -648.6 1507.6 -631.3 1492.2 -613.2C1481.9 -601.1 1474.4 -585.7 1469.7 -570.5C1463.6 -550.8 1462 -529 1460.3 -507.3C1458.6 -485.7 1452.2 -465.6 1441.2 -446.8C1427.8 -424.1 1411.8 -400.7 1397.3 -380.8C1382.4 -360.3 1362.7 -345.9 1338.2 -337.4C1321.1 -331.5 1301.2 -323.7 1278.3 -313.9C1257.5 -305 1236.1 -297.6 1213.3 -303.1C1185.3 -309.8 1159.8 -328.2 1137.4 -346.4C1113.6 -365.7 1090.6 -386.3 1063.2 -400.1C1035.2 -414.2 1007.6 -407.3 981.004 -393.9C969.004 -387.9 956.904 -382 944.804 -376.3C932.604 -370.6 920.304 -365 907.904 -359.6C896.104 -354.5 884.104 -349.7 872.304 -344.4C860.904 -339.3 849.704 -333.7 839.304 -326.8C830.904 -321.2 823.004 -314.8 816.204 -307.3C810.004 -300.5 804.804 -292.8 800.704 -284.6C796.104 -275.4 793.004 -265.6 790.904 -255.5C790.204 -252 789.604 -248.4 789.104 -244.8C783.104 -200.2 787.504 -156.7 802.304 -114.6C807.504 -99.6001 815.404 -79.8002 822.004 -63.9001C835.004 -32.7001 845.604 -1.30011 853.804 30.3999C861.204 58.7999 868.304 88.9999 877.304 117.6C886.304 145.8 906.104 176.2 902.304 206.7C901.104 216.1 897.904 230.6 907.904 237C922.704 246.7 940.104 224.3 944.304 213.3C948.804 201.5 946.804 190.2 941.404 179.1C918.704 131.7 900.004 84.0999 887.804 32.7999C877.104 -12.3001 862.004 -53.5001 844.004 -96.0001C820.304 -151.8 798.904 -224.4 842.704 -276.7C850.704 -286.3 859.004 -295.8 868.604 -303.9C878.004 -311.9 888.604 -318.2 899.504 -324.1C909.804 -329.8 920.504 -334.9 931.304 -339.6C942.204 -344.3 953.304 -348.5 964.504 -352.4C976.204 -356.4 988.004 -360 999.804 -363.3C1001.4 -363.7 1003 -364.2 1004.6 -364.6C1041.2 -374.7 1065.8 -356 1092.5 -334.2C1112.8 -317.6 1130.1 -304.7 1152.8 -292.1C1194 -269.1 1240.9 -262.5 1287.7 -267.6C1301.5 -269.1 1315.4 -271.8 1327.7 -277.2C1346.4 -285.5 1363.7 -300.3 1377.7 -313.4C1399.4 -333.5 1420.1 -354.6 1439.8 -376.7C1453.6 -392.1 1464.6 -406.8 1472.9 -420.7C1485.2 -441.4 1488.6 -461 1490 -484.7C1491.8 -514.6 1503.7 -543.4 1513.8 -572.2C1517.2 -582 1520.1 -589.2 1522.4 -594C1528.7 -607 1537.1 -618.4 1547.4 -628.6C1555.6 -636.7 1564.3 -644.2 1571.9 -652.8C1587.9 -671 1599.6 -694 1604.3 -717.8C1608.5 -738.8 1606.9 -760.7 1599.5 -780.8C1589.9 -806.8 1574.4 -838 1599.6 -861.5C1621.9 -882.2 1655.9 -881.4 1684.2 -881.5C1692 -881.5 1701.9 -882.4 1708.2 -887.1C1716.2 -893.6 1713.5 -904.3 1704.7 -908.3Z" fill="#474747"/>
<path d="M2432.6 541.8C2431.4 538.6 2429.9 535.7 2428.2 532.9C2424.1 526.1 2418.5 520.3 2412.4 515.1C2404.4 508.3 2395.1 503 2385.3 499.2C2375.4 495.4 2365.1 493.2 2354.7 491.6C2343.7 490 2332.7 489.1 2321.7 488.4C2320.6 488.3 2319.6 488.3 2318.5 488.2C2286.4 486 2254.7 481.7 2223.2 475.1C2188.8 467.9 2158 458.5 2137 427.9C2122.8 407.1 2115.6 384.2 2107.2 360.8C2102.8 348.4 2097.5 336.2 2091.8 324.3C2086.1 312.3 2080 300.6 2073.4 289.2C2067 278.2 2060.4 267.3 2053.6 256.5C2046.8 245.8 2039.7 235.2 2032.4 224.8C1999.2 177.3 1961.2 128.3 1912.1 95.5004C1897.7 85.9003 1886.7 78.0004 1879.1 71.9004C1859.4 56.1004 1843 36.4003 1829.8 12.8003C1823.5 1.50034 1817.2 -9.69964 1811 -20.9996C1792.7 -54.1996 1765.1 -68.3997 1726.9 -69.3997C1703.9 -69.9997 1681.1 -67.7996 1658.6 -62.7996C1636.5 -57.8996 1617.3 -49.2996 1601.1 -37.0996C1591 -29.4996 1577.2 -17.0997 1566.8 -9.69965C1525.8 20.0004 1478.7 34.0004 1427.8 31.7004C1402.2 30.6004 1376.6 29.6004 1351 28.7004C1311.9 27.3004 1269.1 28.6004 1231.3 41.4004C1213.9 47.3004 1198.3 57.6003 1179.8 59.6003C1158.1 61.9003 1132.5 52.9003 1113.9 42.1003C1096.6 32.0003 1079.6 18.0004 1058.3 18.0004C1047.8 18.0004 1038.8 23.6004 1040.3 35.4004C1041.8 47.8004 1056.7 59.4004 1067.6 63.9004C1075.9 67.3004 1086.9 68.9003 1096.7 71.0004C1111.7 74.2003 1129.3 81.3003 1140.4 85.1003C1168.8 94.9003 1198.9 93.4003 1227.9 85.8003C1271 74.5003 1307.6 63.6003 1349.5 62.3003C1365.9 61.8003 1390.7 62.5004 1423.8 64.4004C1450.1 65.9004 1472.9 66.5004 1496.7 59.7004C1508.2 56.5004 1525.3 48.5003 1539.3 45.6003C1547.7 43.9003 1556 42.1004 1564.4 40.4004C1587.6 35.5004 1608.7 24.7004 1626.8 9.50036C1652.8 -12.1996 1674.7 -30.5997 1709.3 -30.6997C1738 -30.7997 1763.3 -17.5996 1780.2 5.70037C1784.1 11.1004 1789.8 19.7004 1797.2 31.4004C1812.8 56.1004 1833.8 78.5004 1857 101C1877.1 120.5 1897.4 139.9 1917.9 159C1942.8 182.3 1958.5 197 1964.9 203.2C1973.4 211.5 1981.7 220.1 1989.6 229C1997.8 238.2 2005.7 247.6 2013.2 257.3C2020.8 267.1 2028.1 277.3 2035 287.6C2041.9 297.9 2048.3 308.5 2054.3 319.4C2060.2 330.1 2065.6 341 2070.4 352.2C2075.6 364.3 2080.4 376.7 2084.9 389.2C2102.7 439 2117.3 489.1 2174.1 505.7C2195.2 511.9 2216.7 515.7 2238.6 517.1C2273.1 519.4 2307.5 516.8 2341.9 519.7C2354.2 520.7 2366.8 524.1 2377.7 530.1C2379.9 531.3 2382.1 532.7 2384.1 534.2C2387 536.5 2389.7 539.1 2392.1 541.9C2399.4 550.6 2403.5 561.4 2403.4 572.8C2403.3 583.2 2399.8 593.4 2393.5 601.6C2391 604.8 2388.1 607.8 2384.8 610.3C2373 619.4 2355.6 623.3 2340.3 624.3C2315.9 625.8 2291.6 624.2 2267.5 619.5C2251.6 616.4 2235.6 613.3 2219.7 610.3C2206.4 607.8 2193 606.1 2179.6 605.2C2166.3 604.3 2153 604.2 2139.6 604.6C2126.2 605.1 2112.8 606.3 2099.4 607.9C2085.9 609.5 2072.4 611.7 2059 613.6C2056.7 614.2 2054.1 614.3 2051.8 614.6C2049.5 614.9 2047.2 615.3 2044.9 615.6C2039.6 616.3 2034.3 617.1 2029 617.8C2013.5 619.9 1993.1 620.1 1980.6 611.6C1967.1 602.5 1964.6 585.3 1968.5 570C1972 555.9 1977.8 545.7 1985.9 533.1C2000.6 513.5 2015.6 494.1 2030.9 475C2033.5 471.7 2037.6 465.8 2043.1 457.3C2073.2 410.9 2035 365.5 2002 335.4C1988 322.6 1974.1 309.8 1960.1 297C1947.3 285.2 1938.1 275.6 1932.4 268.2C1922.2 254.9 1914.4 245.3 1908.9 239.2C1891.5 219.9 1871 205.3 1847.2 195.5C1830 188.4 1805.5 184.1 1791.3 178.7C1780 174.4 1770.6 171 1763 168.6C1725.3 156.4 1685.4 157.1 1650 176.5C1631.3 186.7 1614.9 200.3 1597.2 212.1C1587.4 218.7 1580.2 222.8 1575.7 224.7C1556.4 232.4 1538.8 242 1523.1 253.5C1496.5 272.9 1471.3 295 1447.6 319.6C1431.9 335.9 1418.2 351.8 1405.8 370.5C1394.5 387.7 1389.4 406.5 1390.7 427C1392.8 462.2 1401.4 497 1398.9 532.5C1396.5 566.3 1385.6 598.8 1371.6 629.4C1371.5 629.7 1371.3 630 1371.2 630.4C1367.7 638.2 1363.9 645.9 1359.9 653.5C1339.1 692.9 1304.8 720.4 1260.9 730.7C1226.4 738.8 1186.2 744.3 1150 741.4C1125.7 739.5 1099.7 735 1072 728C1041.5 720.3 1019 713.5 993.503 712.5C990.503 712.4 987.403 712.4 984.403 712.5C981.403 712.6 978.403 712.8 975.503 713.2C922.103 719.1 880.303 767.6 825.903 765C789.903 763.3 760.303 737.1 734.103 712.4C714.003 693.5 693.403 673.8 682.903 648.4C672.403 622.8 673.302 593.5 680.702 566.8C688.103 540.1 701.703 515.5 716.003 491.8C730.303 468.2 746.103 441.9 740.403 414.9C736.503 396.3 722.703 381.2 707.603 369.6C692.503 358 675.603 348.7 661.403 336C647.903 323.9 637.003 308.8 629.903 292.2C625.003 280.7 617.803 265.7 605.303 267.6C596.803 268.9 591.803 278.3 591.203 286.9C589.803 307 604.403 324.8 620.503 337C638.403 350.5 658.902 360.2 676.702 373.8C694.503 387.5 709.903 406.8 710.903 429.2C711.603 444 705.903 458.4 699.603 471.8C686.903 499 671.303 524.8 660.103 552.6C648.903 580.4 642.203 611.1 648.303 640.5C656.903 681.9 690.702 704.7 718.702 732.9C749.003 763.4 771.603 799.9 818.803 802.2C844.703 803.5 870.303 795.8 894.403 786.3C921.703 775.6 948.403 763.7 976.603 755.1C976.903 755 977.303 754.9 977.603 754.8C977.903 754.7 978.303 754.5 978.603 754.5C1007.1 745.8 1031.3 749.3 1059.5 756.9C1090.1 765.1 1120 773.3 1151.8 775.3C1190.8 777.7 1229.9 775.4 1268.4 768.4C1348.3 753.9 1398.2 685.9 1420.6 612.2C1430.8 578.5 1439.7 544.9 1440.3 509.4C1440.7 485.3 1436.4 461.1 1434.9 437C1433.1 407.2 1441.6 382.2 1461.1 359.7C1478.8 339.4 1498.4 321.1 1519.9 304.9C1561.6 273.5 1606 246.6 1653.1 224.2C1701.4 201.3 1749.4 195.1 1799 216.1C1831.8 230 1860.9 248.6 1885.6 274.4C1895.6 284.8 1906.6 298.9 1916.8 311.3C1929.5 326.7 1941.3 339 1952.1 348.4C1986.9 378.4 2023.9 404.2 1989.8 455.2C1972.7 480.9 1954.4 503.9 1941.6 533.3C1930.6 558.3 1927.2 584.2 1931 610.7C1934.4 633.9 1945.9 663.3 1969.6 672.9C1985.8 679.5 2010.5 674.2 2028.4 669.9C2041.6 666.7 2054.8 663.7 2068 660.4C2080.9 657.2 2093.7 653.5 2106.5 649.9C2119.3 646.4 2132.1 643 2145.1 640.5C2150 639.6 2154.9 638.7 2159.8 638.1C2164.5 637.5 2169.3 636.7 2174 636.7C2184.5 636.1 2196.6 637.5 2210.1 640.8C2237.1 647.4 2263.3 655.3 2291.3 656.7C2315.7 658 2341.1 656.7 2364.7 650.5C2399.4 641.3 2422.1 610.6 2432.7 577.9C2436.5 566 2436.9 553.5 2432.6 541.8Z" fill="#474747"/>
<path d="M1954.6 899.799C1949.2 876.399 1932 862.699 1919.4 843.599C1894.1 805.399 1865.1 770.499 1836.8 734.499C1811.4 702.199 1789.8 670.399 1795.2 627.099C1799.5 593.299 1814.2 561.699 1823.4 529.099C1828.8 509.799 1832 490.099 1831.8 470.099C1831.5 440.599 1818.9 417.899 1794 401.899C1766.4 384.199 1724.2 366.599 1691 373.099C1674.5 376.299 1664.6 386.399 1661.2 403.499C1657 424.499 1660.1 447.499 1656.9 468.799C1653 494.599 1642.1 519.299 1631.5 542.899C1628.6 549.299 1625.6 555.799 1622.6 562.099C1621.1 565.299 1619.4 568.399 1617.9 571.599C1616.8 573.999 1615.8 578.199 1614 580.099C1602.7 603.799 1593.4 631.699 1585.9 658.899C1577.9 687.799 1570 716.699 1562.2 745.699C1550.6 788.899 1534.9 826.499 1494.7 849.899C1487.8 853.899 1480.9 857.999 1474 861.999C1454.4 873.599 1439.3 889.399 1428.7 909.599C1418.1 929.799 1410.5 951.599 1402.2 972.799C1390.1 1003.4 1373.8 1032.8 1339.5 1041.6C1309.4 1049.3 1279.4 1046.9 1249.6 1034.2C1236 1028.4 1222.7 1022 1209.8 1014.8C1179.4 997.899 1149.1 980.999 1118.8 963.999C1100.5 953.799 1083.1 942.299 1066.5 929.499C1056.5 921.799 1050.4 913.899 1043.8 903.599C1036.4 892.099 1027 884.899 1013.4 882.499C977.199 876.099 958.799 901.199 951.399 932.699C944.499 962.099 939.699 987.299 920.299 1010.7C917.099 1014.6 911.499 1020 903.599 1027.1C897.399 1032.6 891.299 1038.2 885.299 1043.9C880.099 1048.9 874.599 1053.9 870.999 1060.3C867.899 1065.9 866.399 1072.9 868.599 1079C870.499 1084.5 877.499 1087.5 882.899 1087.1C889.399 1086.7 895.499 1081.9 899.899 1077.4C903.399 1073.9 906.399 1069.9 909.199 1065.8C917.799 1053.5 926.399 1041.3 935.299 1029.2C946.099 1014.3 956.499 995.999 966.399 974.199C968.499 969.599 971.999 963.899 976.999 957.299C991.299 938.099 1012.9 935.999 1033.8 945.699C1055.5 955.799 1074.5 966.599 1090.5 977.999C1136.9 1010.9 1185.6 1048.4 1240.7 1065.4C1256 1070.1 1272.9 1070.7 1288.6 1075.3C1300.2 1078.7 1313.7 1084.8 1323.1 1086.7C1350.1 1092.1 1372 1074.1 1387.9 1053.8C1412.8 1022 1429.3 984.799 1447.4 948.899C1466.9 910.199 1492.4 877.599 1534.3 861.799C1550 855.899 1569.8 852.899 1582.8 840.799C1600.8 823.999 1599.5 800.799 1596.6 778.399C1591.7 739.799 1596.4 702.599 1610.6 666.699C1616.9 650.899 1628.6 632.299 1634.7 618.899C1644.6 597.099 1650.9 573.699 1661.6 552.299C1667.2 540.999 1674.1 530.499 1679 518.899C1683.8 507.399 1686.4 494.799 1686.9 482.299C1687.7 464.599 1686.9 446.799 1689.8 429.599C1691.3 421.199 1695.4 411.499 1702.2 406.499C1717.5 395.299 1751 412.999 1764.4 422.399C1787.2 438.399 1799.2 463.999 1800 491.499C1800.4 505.299 1798.1 518.099 1794.6 531.399C1785.9 564.399 1772.1 596.099 1769.9 630.599C1768.7 648.799 1771 667.099 1777.2 684.199C1783.3 701.099 1793.8 718.199 1804.3 733.399C1827.6 767.099 1851.4 800.299 1872.1 835.799C1882.5 853.599 1892.8 871.499 1902.9 889.399C1914.4 909.799 1920.1 932.099 1921.9 955.299C1922.9 969.099 1923.3 989.299 1923.1 1015.8C1923 1026.3 1922.3 1056.9 1933.9 1061.6C1942.9 1065.3 1948.2 1049.6 1948.7 1043C1949.7 1030.2 1948.3 1016.7 1947.7 1003.9C1946.7 981.399 1950.6 956.999 1954.2 933.699C1956.3 922.899 1957.1 910.499 1954.6 899.799Z" fill="#474747"/>
<path d="M985.2 565.6C976.2 565.1 967.1 564.8 958.1 564.6C937.7 564.1 917.2 563.8 896.8 563.9C889.6 563.9 882.3 564 875.1 564.4C872.2 564.6 867.5 564.8 865.4 567.1C863.1 569.7 866.9 572.3 869.3 573.1C877.7 575.8 886.6 576.2 895.4 576.7C926.2 578.2 957 579.6 987.8 581.1C1000.7 581.7 1013.7 582.3 1026.2 579.5C1028.5 579 1031.2 577.7 1031.2 575.4C1031.1 573.4 1029 572.2 1027.1 571.5C1019 568.6 1010.4 567.6 1001.9 566.8C996.3 566.3 990.8 565.9 985.2 565.6Z" fill="#474747"/>
<path d="M1232.6 541.8C1231.4 538.6 1229.9 535.7 1228.2 532.9C1224 526.1 1218.5 520.3 1212.4 515.1C1204.4 508.3 1195.1 503 1185.3 499.2C1175.4 495.4 1165.1 493.2 1154.7 491.6C1143.7 490 1132.7 489.1 1121.7 488.4C1120.6 488.3 1119.6 488.3 1118.5 488.2C1086.4 486 1054.7 481.7 1023.2 475.1C988.802 467.9 958.002 458.5 937.002 427.9C922.802 407.1 915.602 384.2 907.202 360.8C902.802 348.4 897.502 336.2 891.802 324.3C886.103 312.3 880.002 300.6 873.402 289.2C867.002 278.2 860.402 267.3 853.602 256.5C846.802 245.8 839.703 235.2 832.402 224.8C799.203 177.3 761.202 128.3 712.102 95.5004C697.702 85.9003 686.702 78.0004 679.102 71.9004C659.402 56.1004 643.002 36.4003 629.802 12.8003C623.502 1.50034 617.202 -9.69964 611.002 -20.9996C592.702 -54.1996 565.102 -68.3997 526.902 -69.3997C503.902 -69.9997 481.102 -67.7996 458.602 -62.7996C436.502 -57.8996 417.302 -49.2996 401.102 -37.0996C391.003 -29.4996 377.203 -17.0997 366.802 -9.69965C325.802 20.0004 278.703 34.0004 227.802 31.7004C202.203 30.6004 176.602 29.6004 151.003 28.7004C111.903 27.3004 69.1025 28.6004 31.3025 41.4004C13.9025 47.3004 -1.69751 57.6003 -20.1975 59.6003C-41.8975 61.9003 -67.4975 52.9003 -86.0975 42.1003C-103.397 32.0003 -120.398 18.0004 -141.698 18.0004C-152.198 18.0004 -161.198 23.6004 -159.698 35.4004C-158.198 47.8004 -143.297 59.4004 -132.397 63.9004C-124.098 67.3004 -113.097 68.9003 -103.297 71.0004C-88.2975 74.2003 -70.6974 81.3003 -59.5975 85.1003C-31.1974 94.9003 -1.09747 93.4003 27.9025 85.8003C71.0025 74.5003 107.602 63.6003 149.503 62.3003C165.903 61.8003 190.703 62.5004 223.802 64.4004C250.102 65.9004 272.903 66.5004 296.703 59.7004C308.203 56.5004 325.302 48.5003 339.302 45.6003C347.703 43.9003 356.003 42.1004 364.403 40.4004C387.603 35.5004 408.703 24.7004 426.802 9.50036C452.802 -12.1996 474.703 -30.5997 509.302 -30.6997C538.002 -30.7997 563.302 -17.5996 580.202 5.70037C584.102 11.1004 589.802 19.7004 597.202 31.4004C612.802 56.1004 633.802 78.5004 657.002 101C677.102 120.5 697.402 139.9 717.902 159C742.802 182.3 758.502 197 764.902 203.2C773.402 211.5 781.702 220.1 789.602 229C797.802 238.2 805.702 247.6 813.202 257.3C820.802 267.1 828.102 277.3 835.002 287.6C841.902 297.9 848.302 308.5 854.302 319.4C860.203 330.1 865.602 341 870.402 352.2C875.602 364.3 880.402 376.7 884.902 389.2C902.703 439 917.302 489.1 974.102 505.7C995.202 511.9 1016.7 515.7 1038.6 517.1C1073.1 519.4 1107.5 516.8 1141.9 519.7C1154.2 520.7 1166.8 524.1 1177.7 530.1C1179.9 531.3 1182.1 532.7 1184.1 534.2C1187 536.5 1189.7 539.1 1192.1 541.9C1199.4 550.6 1203.5 561.4 1203.4 572.8C1203.3 583.2 1199.8 593.4 1193.5 601.6C1191 604.8 1188.1 607.8 1184.8 610.3C1173 619.4 1155.6 623.3 1140.3 624.3C1115.9 625.8 1091.6 624.2 1067.5 619.5C1051.6 616.4 1035.6 613.3 1019.7 610.3C1006.4 607.8 993.002 606.1 979.602 605.2C966.302 604.3 953.002 604.2 939.602 604.6C926.202 605.1 912.802 606.3 899.402 607.9C885.902 609.5 872.402 611.7 859.002 613.6C856.702 614.2 854.103 614.3 851.802 614.6C849.502 614.9 847.203 615.3 844.902 615.6C839.602 616.3 834.302 617.1 829.002 617.8C813.502 619.9 793.102 620.1 780.602 611.6C767.102 602.5 764.602 585.3 768.502 570C772.002 555.9 777.802 545.7 785.902 533.1C800.602 513.5 815.602 494.1 830.902 475C833.502 471.7 837.602 465.8 843.102 457.3C873.202 410.9 835.002 365.5 802.002 335.4C788.002 322.6 774.102 309.8 760.102 297C747.302 285.2 738.102 275.6 732.402 268.2C722.203 254.9 714.402 245.3 708.902 239.2C691.502 219.9 671.002 205.3 647.202 195.5C630.002 188.4 605.502 184.1 591.302 178.7C580.002 174.4 570.602 171 563.002 168.6C525.302 156.4 485.402 157.1 450.002 176.5C431.302 186.7 414.903 200.3 397.203 212.1C387.403 218.7 380.203 222.8 375.703 224.7C356.403 232.4 338.802 242 323.102 253.5C296.503 272.9 271.302 295 247.602 319.6C231.902 335.9 218.203 351.8 205.802 370.5C194.503 387.7 189.403 406.5 190.703 427C192.802 462.2 201.403 497 198.903 532.5C196.503 566.3 185.602 598.8 171.602 629.4C171.503 629.7 171.302 630 171.203 630.4C167.703 638.2 163.903 645.9 159.903 653.5C139.103 692.9 104.803 720.4 60.9025 730.7C26.4025 738.8 -13.7975 744.3 -49.9975 741.4C-74.2975 739.5 -100.297 735 -127.997 728C-158.497 720.3 -180.997 713.5 -206.497 712.5C-209.497 712.4 -212.598 712.4 -215.598 712.5C-218.598 712.6 -221.598 712.8 -224.497 713.2C-277.897 719.1 -319.698 767.6 -374.098 765C-410.098 763.3 -439.697 737.1 -465.897 712.4C-485.997 693.5 -506.597 673.8 -517.097 648.4C-527.597 622.8 -526.698 593.5 -519.298 566.8C-511.897 540.1 -498.298 515.5 -483.997 491.8C-469.697 468.2 -453.898 441.9 -459.598 414.9C-463.497 396.3 -477.298 381.2 -492.397 369.6C-507.497 358 -524.397 348.7 -538.597 336C-552.097 323.9 -562.997 308.8 -570.097 292.2C-574.997 280.7 -582.197 265.7 -594.697 267.6C-603.197 268.9 -608.197 278.3 -608.797 286.9C-610.197 307 -595.597 324.8 -579.497 337C-561.597 350.5 -541.098 360.2 -523.298 373.8C-505.497 387.5 -490.097 406.8 -489.097 429.2C-488.397 444 -494.097 458.4 -500.397 471.8C-513.097 499 -528.698 524.8 -539.897 552.6C-551.097 580.4 -557.797 611.1 -551.697 640.5C-543.097 681.9 -509.298 704.7 -481.298 732.9C-450.997 763.4 -428.397 799.9 -381.197 802.2C-355.298 803.5 -329.698 795.8 -305.598 786.3C-278.298 775.6 -251.598 763.7 -223.397 755.1C-223.098 755 -222.697 754.9 -222.397 754.8C-222.098 754.7 -221.697 754.5 -221.397 754.5C-192.897 745.8 -168.698 749.3 -140.497 756.9C-109.897 765.1 -79.9975 773.3 -48.1975 775.3C-9.19751 777.7 29.9025 775.4 68.4025 768.4C148.303 753.9 198.202 685.9 220.602 612.2C230.802 578.5 239.703 544.9 240.302 509.4C240.703 485.3 236.403 461.1 234.903 437C233.103 407.2 241.602 382.2 261.102 359.7C278.802 339.4 298.403 321.1 319.903 304.9C361.603 273.5 406.002 246.6 453.102 224.2C501.402 201.3 549.402 195.1 599.002 216.1C631.802 230 660.902 248.6 685.602 274.4C695.602 284.8 706.603 298.9 716.802 311.3C729.502 326.7 741.302 339 752.102 348.4C786.902 378.4 823.902 404.2 789.802 455.2C772.703 480.9 754.402 503.9 741.602 533.3C730.602 558.3 727.202 584.2 731.002 610.7C734.402 633.9 745.902 663.3 769.602 672.9C785.802 679.5 810.502 674.2 828.402 669.9C841.602 666.7 854.802 663.7 868.002 660.4C880.902 657.2 893.702 653.5 906.502 649.9C919.302 646.4 932.102 643 945.102 640.5C950.002 639.6 954.902 638.7 959.802 638.1C964.502 637.5 969.302 636.7 974.002 636.7C984.502 636.1 996.602 637.5 1010.1 640.8C1037.1 647.4 1063.3 655.3 1091.3 656.7C1115.7 658 1141.1 656.7 1164.7 650.5C1199.4 641.3 1222.1 610.6 1232.7 577.9C1236.5 566 1236.9 553.5 1232.6 541.8Z" fill="#474747"/>
<path d="M1180.8 1123.4C1148.4 1100.1 1113.1 1080 1074.1 1071.2C1043.4 1064.3 1018.6 1074.8 993.399 1091.2C979.299 1100.4 965.299 1109.5 951.199 1118.7C947.599 1121.1 932.699 1131.6 928.599 1125.1C926.199 1121.3 931.399 1113.8 934.299 1110.3C952.499 1088.1 971.199 1068.2 990.399 1050.7C996.199 1045.4 1003.2 1040.2 1011.4 1035.2C1042.4 1016.3 1071.4 1023.7 1100.8 1041.2C1134 1060.9 1167.4 1080.6 1200.7 1100.1C1236.7 1121.1 1272.3 1140.5 1313.7 1146.3C1366.2 1153.6 1420.9 1132.4 1462.2 1101.2C1483.7 1085 1500.6 1069.1 1522.5 1049.1C1537.7 1035.2 1552.1 1028.6 1572.5 1025.2C1609 1019.2 1648.1 1009.6 1682.2 991.8C1700.5 982.2 1716.1 969.2 1729 952.6C1743.1 934.4 1753.7 916.7 1760.9 899.6C1773.5 869.5 1767.7 841.3 1754 812.8C1740 783.6 1726.1 759 1718.6 730.6C1717.4 726.1 1714.3 706.8 1723.9 708.1C1728.6 708.7 1732.3 715.2 1734.2 719.2C1741.4 733.9 1748.4 748.7 1756.3 763.1C1765.5 779.9 1774.6 796.7 1783.7 813.6C1794.1 832.9 1803.6 853.2 1806.1 874.7C1807.9 889.9 1803.4 895.7 1793.6 908C1785.6 918 1779 928.8 1773.6 940.5C1769.6 949.3 1764.7 963.7 1760.3 972.7C1744.9 1004.3 1718.7 1026.3 1686.3 1039.7C1667.9 1047.3 1648.1 1051 1626.8 1055.6C1594.8 1062.6 1557.8 1075.3 1531.2 1095.3C1501.8 1117.3 1473.9 1139.1 1439.6 1153.3C1410 1165.6 1378.1 1172.8 1343.8 1175C1299.1 1177.8 1260.2 1175.8 1222.7 1152C1209.7 1143.6 1195.7 1134.1 1180.8 1123.4Z" fill="#474747"/>
<path d="M1208.9 851.299C1199.4 845.699 1212.7 833.899 1218.1 831.899C1246.1 821.599 1271 810.999 1293.1 799.899C1303.9 794.499 1345.7 781.299 1345.4 804.899C1345.2 815.899 1332.6 824.199 1323.3 827.499C1310.8 831.899 1297.8 833.199 1284.7 834.399C1266.6 836.199 1249.6 840.399 1232.8 847.299C1226.7 849.799 1215 854.899 1208.9 851.299Z" fill="#474747"/>
<path d="M1676.91 943C1677.61 944.8 1676.61 946.9 1674.81 947.5L1666.61 950.5C1664.81 951.2 1662.71 950.2 1662.11 948.4L1662.01 948C1661.31 946.2 1662.31 944.1 1664.11 943.5L1672.31 940.5C1674.11 939.8 1676.21 940.8 1676.81 942.6L1676.91 943Z" fill="#474747"/>
<path d="M1626.7 956.901C1627.4 958.901 1626.3 961.201 1624.2 961.801L1608.7 966.901C1606.7 967.601 1604.4 966.501 1603.8 964.401L1603.7 964.101C1603 962.101 1604.1 959.801 1606.2 959.201L1621.7 954.101C1623.7 953.401 1626 954.501 1626.6 956.601L1626.7 956.901Z" fill="#474747"/>
<path d="M709.503 -85.1002C683.103 -106.2 640.903 -134.7 633.103 -170.8C629.103 -189.6 635.204 -214.8 653.304 -225.4C657.804 -228 662.304 -228.6 666.804 -227C686.104 -220.2 678.104 -189.2 679.304 -174.8C682.804 -132.2 718.104 -107.6 746.903 -81.7002C777.104 -54.5002 792.303 -20.6002 797.403 19.1998C799.903 39.0998 802.404 59.0998 804.804 78.9998C805.304 83.1998 804.804 88.0998 803.304 93.6998C801.404 100.5 794.403 104.1 790.403 96.3998C787.803 91.3998 786.003 86.1998 785.003 80.6998C782.903 69.8998 780.703 59.0998 778.503 48.2998C773.303 22.4998 765.203 -2.40024 754.503 -26.4002C743.203 -51.1002 730.303 -68.5002 709.503 -85.1002Z" fill="#474747"/>
<path d="M721.805 56.0001C712.605 54.5001 703.805 41.9001 700.005 34.2001C689.705 13.3001 679.605 -7.59995 669.805 -28.6999C665.905 -36.9999 661.605 -45.5999 659.405 -53.6999C658.405 -57.2999 659.705 -63.5999 664.905 -60.2999C673.505 -54.8999 682.005 -42.8999 688.105 -34.5999C700.905 -17.3999 713.205 0.200043 725.005 18.1C729.905 25.6 732.905 32 734.105 40.1C735.105 47.9 731.705 57.7001 721.805 56.0001Z" fill="#474747"/>
<path d="M7.3987 366.999C-14.0013 353.299 -37.3013 344.299 -63.7013 347.399C-71.8013 348.399 -79.8013 349.399 -87.8013 350.399C-108.901 353.099 -121.101 333.999 -98.0013 323.499C-74.9013 312.999 -48.0013 310.899 -24.7013 321.699C7.49867 336.499 37.8987 364.299 73.6987 368.299C100.799 371.399 124.299 355.299 143.699 335.899C151.499 328.099 164.299 314.899 181.999 296.499C208.099 269.299 241.299 246.399 272.299 223.299C300.899 202.099 322.899 179.099 339.199 146.999C343.499 138.599 347.799 130.199 352.099 121.899C369.599 88.099 398.899 63.799 434.599 51.199C438.099 49.999 445.899 47.399 457.899 43.399C474.199 37.999 487.099 24.899 503.399 20.699C519.299 16.599 532.099 21.4989 540.199 36.2989C553.199 59.8989 572.099 74.999 592.299 91.999C599.899 98.399 613.199 110.199 609.999 121.599C607.399 130.699 597.999 129.999 590.399 126.499C577.599 120.599 567.499 109.699 553.999 97.5989C539.299 84.3989 522.199 74.699 502.499 71.399C459.399 64.099 422.199 79.299 394.799 112.899C380.699 130.299 371.699 147.999 361.799 166.799C346.499 195.799 326.399 219.299 301.499 237.199C284.799 249.199 268.099 261.299 251.399 273.499C224.999 292.699 201.499 314.899 180.899 340.099C167.199 356.799 151.399 379.799 141.299 393.099C115.299 427.299 86.5987 425.399 54.2987 400.499C37.6987 387.499 22.0987 376.399 7.3987 366.999Z" fill="#474747"/>
<path d="M754.599 899.799C749.199 876.399 731.999 862.699 719.399 843.599C694.099 805.399 665.099 770.499 636.799 734.499C611.399 702.199 589.799 670.399 595.199 627.099C599.499 593.299 614.199 561.699 623.399 529.099C628.799 509.799 631.999 490.099 631.799 470.099C631.499 440.599 618.899 417.899 593.999 401.899C566.399 384.199 524.199 366.599 490.999 373.099C474.499 376.299 464.599 386.399 461.199 403.499C456.999 424.499 460.099 447.499 456.899 468.799C452.999 494.599 442.099 519.299 431.499 542.899C428.599 549.299 425.599 555.799 422.599 562.099C421.099 565.299 419.399 568.399 417.899 571.599C416.799 573.999 415.799 578.199 413.999 580.099C402.699 603.799 393.399 631.699 385.899 658.899C377.899 687.799 369.999 716.699 362.199 745.699C350.599 788.899 334.899 826.499 294.699 849.899C287.799 853.899 280.899 857.999 273.999 861.999C254.399 873.599 239.299 889.399 228.699 909.599C218.099 929.799 210.499 951.599 202.199 972.799C190.099 1003.4 173.799 1032.8 139.499 1041.6C109.399 1049.3 79.3994 1046.9 49.5994 1034.2C35.9994 1028.4 22.6994 1022 9.79938 1014.8C-20.6006 997.899 -50.9006 980.999 -81.2006 963.999C-99.5006 953.799 -116.901 942.299 -133.501 929.499C-143.501 921.799 -149.601 913.899 -156.201 903.599C-163.601 892.099 -173.001 884.899 -186.601 882.499C-222.801 876.099 -241.201 901.199 -248.601 932.699C-255.501 962.099 -260.301 987.299 -279.701 1010.7C-282.901 1014.6 -288.501 1020 -296.401 1027.1C-302.601 1032.6 -308.701 1038.2 -314.701 1043.9C-319.901 1048.9 -325.401 1053.9 -329.001 1060.3C-332.101 1065.9 -333.601 1072.9 -331.401 1079C-329.501 1084.5 -322.501 1087.5 -317.101 1087.1C-310.601 1086.7 -304.501 1081.9 -300.101 1077.4C-296.601 1073.9 -293.601 1069.9 -290.801 1065.8C-282.201 1053.5 -273.601 1041.3 -264.701 1029.2C-253.901 1014.3 -243.501 995.999 -233.601 974.199C-231.501 969.599 -228.001 963.899 -223.001 957.299C-208.701 938.099 -187.101 935.999 -166.201 945.699C-144.501 955.799 -125.501 966.599 -109.501 977.999C-63.1006 1010.9 -14.4006 1048.4 40.6994 1065.4C55.9994 1070.1 72.8994 1070.7 88.5994 1075.3C100.199 1078.7 113.699 1084.8 123.099 1086.7C150.099 1092.1 171.999 1074.1 187.899 1053.8C212.799 1022 229.299 984.799 247.399 948.899C266.899 910.199 292.399 877.599 334.299 861.799C349.999 855.899 369.799 852.899 382.799 840.799C400.799 823.999 399.499 800.799 396.599 778.399C391.699 739.799 396.399 702.599 410.599 666.699C416.899 650.899 428.599 632.299 434.699 618.899C444.599 597.099 450.899 573.699 461.599 552.299C467.199 540.999 474.099 530.499 478.999 518.899C483.799 507.399 486.399 494.799 486.899 482.299C487.699 464.599 486.899 446.799 489.799 429.599C491.299 421.199 495.399 411.499 502.199 406.499C517.499 395.299 550.999 412.999 564.399 422.399C587.199 438.399 599.199 463.999 599.999 491.499C600.399 505.299 598.099 518.099 594.599 531.399C585.899 564.399 572.099 596.099 569.899 630.599C568.699 648.799 570.999 667.099 577.199 684.199C583.299 701.099 593.799 718.199 604.299 733.399C627.599 767.099 651.399 800.299 672.099 835.799C682.499 853.599 692.799 871.499 702.899 889.399C714.399 909.799 720.099 932.099 721.899 955.299C722.899 969.099 723.299 989.299 723.099 1015.8C722.999 1026.3 722.299 1056.9 733.899 1061.6C742.899 1065.3 748.199 1049.6 748.699 1043C749.699 1030.2 748.299 1016.7 747.699 1003.9C746.699 981.399 750.599 956.999 754.199 933.699C756.299 922.899 757.099 910.499 754.599 899.799Z" fill="#474747"/>
</svg>
