<svg width="1920" height="960" viewBox="0 0 1920 960" fill="none" xmlns="http://www.w3.org/2000/svg">
<path d="M1038 1255.3C1029.4 1249 1019.3 1244.8 1007.7 1243.3C958.401 1237.3 921.201 1287.2 874.301 1303.5C812.101 1325.1 753.501 1285.5 692.301 1253.3C642.701 1227.1 581.501 1251.1 562.501 1303.9C531.901 1388.8 512.701 1477.8 505.601 1567.8C504.301 1583.8 500.401 1603.6 484.801 1607.4C463.101 1612.7 452.501 1582 451.901 1559.6C449.201 1456.8 458.201 1287.4 449.001 1227C447.101 1214.5 434.601 1206.5 422.401 1210.1C407.101 1214.6 397.101 1229.3 398.501 1245.2C400.601 1269.1 409.001 1297.8 409.001 1297.8C410.301 1315.1 389.001 1324.3 377.301 1311.4C354.301 1285.9 337.901 1253 318.901 1223.8C212.701 1060.4 8.8009 996.201 -178.799 943.601C-195.699 938.901 -213.599 934.101 -230.499 938.901C-264.099 948.501 -276.199 988.801 -283.099 1023C-284.599 1030.4 -285.999 1038 -284.399 1045.4C-277.499 1075.4 -233.999 1071.1 -204.399 1062.5C-21.599 1009.4 189.001 1093.4 294.301 1249.9C303.801 1264.1 286.201 1280.7 272.601 1270.4C128.001 1160.6 -66.399 1117 -243.499 1158.8C-312.799 1175.1 -382.699 1203.8 -452.699 1190.8C-464.799 1188.6 -476.799 1185.1 -488.699 1181.2C-511.799 1173.7 -523.999 1207.7 -501.299 1216.4C-449.199 1236.4 -391.199 1241.1 -336.899 1227.9C-265.999 1210.7 -187.699 1166.7 -126.699 1206.8C-57.799 1252 -66.599 1376.4 11.001 1404.2C32.2009 1411.8 63.001 1417.6 61.7009 1440.1C60.601 1457.6 39.401 1464.7 22.801 1470C-124.699 1517.3 -154.999 1720 -280.199 1811.3C-321.099 1841.1 -370.499 1857.5 -411.399 1887.2C-437.299 1905.9 -459.999 1932.5 -469.599 1963.5C-478.399 1991.9 -460.799 2020 -486.299 2040C-531.599 2075.6 -598.699 2059.6 -648.299 2086.7C-700.199 2115.1 -719.799 2183.1 -770.699 2213C-817.899 2240.8 -877.999 2228.2 -929.999 2210.9C-1025.5 2179.2 -1123.1 2128.2 -1167.7 2038C-1178.7 2015.7 -1183.4 1983.5 -1162.1 1970.6C-1150.7 1963.7 -1136.2 1965.7 -1122.9 1964.7C-1064.7 1960.2 -1028.3 1897.3 -973.099 1878.5C-921.999 1861 -863.999 1884.2 -812.499 1867.9C-761.499 1851.7 -730.499 1801.9 -698.599 1758.9C-610.299 1640.3 -482.899 1551.4 -341.099 1509.4C-332.699 1506.9 -323.599 1504.6 -315.399 1507.6C-300.999 1512.9 -296.799 1532.7 -302.999 1546.7C-309.199 1560.7 -322.399 1570.1 -335.099 1578.7C-370.799 1602.9 -407.099 1626.3 -443.999 1648.6C-458.399 1657.4 -446.899 1679.3 -431.499 1672.3C-356.199 1638 -289.999 1590.4 -256.099 1516.6C-251.499 1506.6 -247.499 1495.2 -250.699 1484.6C-257.499 1461.7 -289.099 1459.9 -312.599 1464.3C-425.399 1485.4 -531.399 1542 -611.799 1623.9C-673.199 1686.5 -722.799 1765.6 -802.299 1802.7C-852.699 1826.2 -909.599 1830.1 -964.299 1840.4C-1059.2 1858.3 -1150 1897.1 -1228.6 1953.1C-1237.3 1959.3 -1246.4 1966.5 -1249.7 1976.7C-1253.9 1989.9 -1247 2003.9 -1239.8 2015.8C-1176.7 2121.2 -1076.5 2203.8 -960.999 2245.6C-892.599 2270.4 -810.199 2279 -752.199 2235.1C-708.099 2201.7 -684.699 2142.5 -633.699 2120.9C-594.999 2104.5 -549.699 2114.3 -509.499 2102C-462.699 2087.6 -423.999 2044.4 -381.799 2023.4C-366.399 2015.7 -369.299 1993 -386.199 1989.5C-395.699 1987.5 -404.199 1984.1 -409.899 1977.1C-430.799 1951.6 -393.299 1919.9 -363.499 1905.9C-292.499 1872.4 -229.599 1821.8 -181.699 1759.5C-135.599 1699.5 -103.499 1629.5 -54.7991 1571.6C-6.09912 1513.7 67.2009 1467.4 141.701 1480.5C172.501 1485.9 206.001 1510 200.301 1540.7C197.601 1555.2 186.801 1566.7 176.101 1576.9C68.901 1679.7 -68.999 1751.1 -157.599 1870.2C-210.699 1941.6 -243.999 2027.7 -305.899 2091.7C-355.399 2142.9 -421.999 2177.3 -492.399 2188C-555.299 2197.6 -623.099 2189.4 -679.499 2218.9C-725.999 2243.2 -755.999 2288.4 -781.299 2335.2C-787.899 2347.4 -778.899 2362.1 -765.099 2361.9H-764.699C-757.099 2361.8 -750.399 2356.9 -747.899 2349.7C-734.399 2311.2 -708.999 2270.1 -670.599 2276.7C-640.499 2281.9 -624.999 2314.2 -606.499 2338.5C-605.299 2340 -604.099 2341.5 -602.799 2343C-586.999 2360.6 -560.299 2337.7 -574.899 2319C-586.499 2304.2 -592.099 2287.4 -584.199 2270.4C-572.399 2245.1 -538.899 2241.2 -511.199 2237.4C-358.999 2216.5 -238.299 2095.1 -162.199 1961.6C-128.999 1903.4 -100.699 1840.2 -51.099 1795.1C2.50098 1746.4 75.001 1724.3 133.501 1681.7C171.201 1654.2 202.701 1618.1 224.901 1577C238.501 1551.9 248.601 1521.5 237.501 1495.2C222.301 1459.5 177.801 1449.7 141.001 1437.5C54.001 1408.7 -18.899 1340.1 -52.899 1255C-64.399 1226.3 -58.3989 1179.1 -27.699 1182.9C-2.99902 1186 0.801025 1219.2 6.80103 1243.4C25.801 1320.1 116.101 1349.1 182.601 1391.7C255.501 1438.3 311.001 1525.6 290.101 1609.5C273.601 1675.9 214.901 1723.1 154.801 1755.8C128.301 1770.2 100.701 1783 73.7009 1796.6C56.4009 1805.3 67.801 1831.5 85.901 1824.7C145.101 1802.6 202.001 1774.3 255.301 1740.2C279.101 1725 302.701 1708.1 318.401 1684.7C349.101 1639.2 344.001 1578.2 326.901 1526.1C291.901 1419.9 210.001 1330.1 107.401 1285.6C85.601 1276.2 58.001 1259.1 65.7009 1236.6C74.2009 1211.7 111.401 1219.9 134.101 1233.3C196.801 1270.2 257.501 1310.5 315.901 1353.9C353.701 1382 392.101 1413.8 408.101 1458C430.501 1520.1 404.101 1595.3 438.401 1651.8C444.401 1661.7 452.701 1670.9 463.801 1674.2C486.101 1680.8 507.201 1661 519.401 1641.3C575.901 1550.1 560.201 1431.8 596.701 1330.9C601.601 1317.3 607.701 1303.7 618.101 1293.7C648.601 1264.4 699.301 1278.1 735.801 1299.4C772.301 1320.7 809.901 1349.1 851.901 1343.7C883.901 1339.6 909.601 1316.6 938.001 1301.2C966.401 1285.8 1006.4 1279.9 1027.1 1304.7C1039.8 1319.9 1040.5 1341.7 1039.1 1361.5C1030.3 1490.1 958.401 1612.9 850.601 1683.6C769.201 1737 670.301 1761.3 593.501 1821.2C551.101 1854.2 516.401 1897.3 469.601 1923.7C366.501 1981.9 223.501 1948.8 133.601 2025.9C117.901 2039.4 103.801 2061.3 113.301 2079.8C119.401 2091.5 132.801 2097.1 145.201 2101.5C211.101 2125 279.001 2142.8 348.001 2154.7C369.901 2158.5 392.701 2161.7 414.001 2155.5C437.401 2148.8 456.301 2131.8 474.101 2115.3C596.101 2002.5 715.801 1887.1 832.901 1769.2C942.801 1658.6 1056.2 1534.6 1076.4 1379.9C1082.4 1335.4 1071.2 1279.7 1038 1255.3ZM-149.699 1011.9C-151.699 1014.3 -157.899 1017.3 -161.599 1018.5C-181.099 1025.2 -201.199 1028.9 -221.899 1029.5C-227.599 1029.7 -234.799 1029.3 -239.299 1026C-246.499 1020.9 -242.899 1013.4 -236.999 1008.9C-222.099 997.701 -193.399 995.301 -175.699 996.501C-170.299 997.001 -139.499 999.601 -149.699 1011.9ZM678.901 1857.5C668.001 1914.1 630.801 1948.4 583.201 1976.2C543.701 1999.2 516.901 2015.3 485.801 2038.1C451.301 2063.4 418.101 2093.7 373.501 2098.8V2098.7C343.201 2099.7 320.301 2100 304.901 2099.7C280.401 2099.2 175.401 2092.2 169.801 2060.5C166.201 2039.8 199.301 2027.9 213.701 2023.2C235.001 2016.2 256.101 2008.6 276.901 2000.4C308.501 1987.9 339.601 1985.9 373.501 1988.8C384.701 1989.4 394.901 1989.5 404.201 1989.3C454.001 1988.1 500.501 1966.4 535.301 1930.9C540.401 1925.7 546.901 1918 554.901 1907.7C560.601 1900.3 573.401 1883.5 593.101 1857.4C603.201 1843.9 616.801 1831 632.201 1824.5C642.201 1820.3 658.701 1816.5 668.901 1822.1C680.501 1828.6 681.201 1845.8 678.901 1857.5Z" fill="#474747" fill-opacity="0.5"/>
<path d="M2238 1255.3C2229.4 1249 2219.3 1244.8 2207.7 1243.3C2158.4 1237.3 2121.2 1287.2 2074.3 1303.5C2012.1 1325.1 1953.5 1285.5 1892.3 1253.3C1842.7 1227.1 1781.5 1251.1 1762.5 1303.9C1731.9 1388.8 1712.7 1477.8 1705.6 1567.8C1704.3 1583.8 1700.4 1603.6 1684.8 1607.4C1663.1 1612.7 1652.5 1582 1651.9 1559.6C1649.2 1456.8 1658.2 1287.4 1649 1227C1647.1 1214.5 1634.6 1206.5 1622.4 1210.1C1607.1 1214.6 1597.1 1229.3 1598.5 1245.2C1600.6 1269.1 1609 1297.8 1609 1297.8C1610.3 1315.1 1589 1324.3 1577.3 1311.4C1554.3 1285.9 1537.9 1253 1518.9 1223.8C1412.7 1060.4 1208.8 996.201 1021.2 943.601C1004.3 938.901 986.401 934.101 969.501 938.901C935.901 948.501 923.801 988.801 916.901 1023C915.401 1030.4 914.001 1038 915.601 1045.4C922.501 1075.4 966.001 1071.1 995.601 1062.5C1178.4 1009.4 1389 1093.4 1494.3 1249.9C1503.8 1264.1 1486.2 1280.7 1472.6 1270.4C1328 1160.6 1133.6 1117 956.501 1158.8C887.201 1175.1 817.301 1203.8 747.301 1190.8C735.201 1188.6 723.201 1185.1 711.301 1181.2C688.201 1173.7 676.001 1207.7 698.701 1216.4C750.801 1236.4 808.801 1241.1 863.101 1227.9C934.001 1210.7 1012.3 1166.7 1073.3 1206.8C1142.2 1252 1133.4 1376.4 1211 1404.2C1232.2 1411.8 1263 1417.6 1261.7 1440.1C1260.6 1457.6 1239.4 1464.7 1222.8 1470C1075.3 1517.3 1045 1720 919.801 1811.3C878.901 1841.1 829.501 1857.5 788.601 1887.2C762.701 1905.9 740.001 1932.5 730.401 1963.5C721.601 1991.9 739.201 2020 713.701 2040C668.401 2075.6 601.301 2059.6 551.701 2086.7C499.801 2115.1 480.201 2183.1 429.301 2213C382.101 2240.8 322.001 2228.2 270.001 2210.9C174.501 2179.2 76.901 2128.2 32.301 2038C21.301 2015.7 16.6009 1983.5 37.9009 1970.6C49.3009 1963.7 63.8009 1965.7 77.1009 1964.7C135.301 1960.2 171.701 1897.3 226.901 1878.5C278.001 1861 336.001 1884.2 387.501 1867.9C438.501 1851.7 469.501 1801.9 501.401 1758.9C589.701 1640.3 717.101 1551.4 858.901 1509.4C867.301 1506.9 876.401 1504.6 884.601 1507.6C899.001 1512.9 903.201 1532.7 897.001 1546.7C890.801 1560.7 877.601 1570.1 864.901 1578.7C829.201 1602.9 792.901 1626.3 756.001 1648.6C741.601 1657.4 753.101 1679.3 768.501 1672.3C843.801 1638 910.001 1590.4 943.901 1516.6C948.501 1506.6 952.501 1495.2 949.301 1484.6C942.501 1461.7 910.901 1459.9 887.401 1464.3C774.601 1485.4 668.601 1542 588.201 1623.9C526.801 1686.5 477.201 1765.6 397.701 1802.7C347.301 1826.2 290.401 1830.1 235.701 1840.4C140.801 1858.3 50.0009 1897.1 -28.5991 1953.1C-37.2991 1959.3 -46.399 1966.5 -49.699 1976.7C-53.899 1989.9 -46.9991 2003.9 -39.7991 2015.8C23.3009 2121.2 123.501 2203.8 239.001 2245.6C307.401 2270.4 389.801 2279 447.801 2235.1C491.901 2201.7 515.301 2142.5 566.301 2120.9C605.001 2104.5 650.301 2114.3 690.501 2102C737.301 2087.6 776.001 2044.4 818.201 2023.4C833.601 2015.7 830.701 1993 813.801 1989.5C804.301 1987.5 795.801 1984.1 790.101 1977.1C769.201 1951.6 806.701 1919.9 836.501 1905.9C907.501 1872.4 970.401 1821.8 1018.3 1759.5C1064.4 1699.5 1096.5 1629.5 1145.2 1571.6C1193.9 1513.7 1267.2 1467.4 1341.7 1480.5C1372.5 1485.9 1406 1510 1400.3 1540.7C1397.6 1555.2 1386.8 1566.7 1376.1 1576.9C1268.9 1679.7 1131 1751.1 1042.4 1870.2C989.301 1941.6 956.001 2027.7 894.101 2091.7C844.601 2142.9 778.001 2177.3 707.601 2188C644.701 2197.6 576.901 2189.4 520.501 2218.9C474.001 2243.2 444.001 2288.4 418.701 2335.2C412.101 2347.4 421.101 2362.1 434.901 2361.9H435.301C442.901 2361.8 449.601 2356.9 452.101 2349.7C465.601 2311.2 491.001 2270.1 529.401 2276.7C559.501 2281.9 575.001 2314.2 593.501 2338.5C594.701 2340 595.901 2341.5 597.201 2343C613.001 2360.6 639.701 2337.7 625.101 2319C613.501 2304.2 607.901 2287.4 615.801 2270.4C627.601 2245.1 661.101 2241.2 688.801 2237.4C841.001 2216.5 961.701 2095.1 1037.8 1961.6C1071 1903.4 1099.3 1840.2 1148.9 1795.1C1202.5 1746.4 1275 1724.3 1333.5 1681.7C1371.2 1654.2 1402.7 1618.1 1424.9 1577C1438.5 1551.9 1448.6 1521.5 1437.5 1495.2C1422.3 1459.5 1377.8 1449.7 1341 1437.5C1254 1408.7 1181.1 1340.1 1147.1 1255C1135.6 1226.3 1141.6 1179.1 1172.3 1182.9C1197 1186 1200.8 1219.2 1206.8 1243.4C1225.8 1320.1 1316.1 1349.1 1382.6 1391.7C1455.5 1438.3 1511 1525.6 1490.1 1609.5C1473.6 1675.9 1414.9 1723.1 1354.8 1755.8C1328.3 1770.2 1300.7 1783 1273.7 1796.6C1256.4 1805.3 1267.8 1831.5 1285.9 1824.7C1345.1 1802.6 1402 1774.3 1455.3 1740.2C1479.1 1725 1502.7 1708.1 1518.4 1684.7C1549.1 1639.2 1544 1578.2 1526.9 1526.1C1491.9 1419.9 1410 1330.1 1307.4 1285.6C1285.6 1276.2 1258 1259.1 1265.7 1236.6C1274.2 1211.7 1311.4 1219.9 1334.1 1233.3C1396.8 1270.2 1457.5 1310.5 1515.9 1353.9C1553.7 1382 1592.1 1413.8 1608.1 1458C1630.5 1520.1 1604.1 1595.3 1638.4 1651.8C1644.4 1661.7 1652.7 1670.9 1663.8 1674.2C1686.1 1680.8 1707.2 1661 1719.4 1641.3C1775.9 1550.1 1760.2 1431.8 1796.7 1330.9C1801.6 1317.3 1807.7 1303.7 1818.1 1293.7C1848.6 1264.4 1899.3 1278.1 1935.8 1299.4C1972.3 1320.7 2009.9 1349.1 2051.9 1343.7C2083.9 1339.6 2109.6 1316.6 2138 1301.2C2166.4 1285.8 2206.4 1279.9 2227.1 1304.7C2239.8 1319.9 2240.5 1341.7 2239.1 1361.5C2230.3 1490.1 2158.4 1612.9 2050.6 1683.6C1969.2 1737 1870.3 1761.3 1793.5 1821.2C1751.1 1854.2 1716.4 1897.3 1669.6 1923.7C1566.5 1981.9 1423.5 1948.8 1333.6 2025.9C1317.9 2039.4 1303.8 2061.3 1313.3 2079.8C1319.4 2091.5 1332.8 2097.1 1345.2 2101.5C1411.1 2125 1479 2142.8 1548 2154.7C1569.9 2158.5 1592.7 2161.7 1614.1 2155.5C1637.5 2148.8 1656.4 2131.8 1674.2 2115.3C1796.2 2002.5 1915.9 1887.1 2033 1769.2C2142.9 1658.6 2256.3 1534.6 2276.5 1379.9C2282.4 1335.4 2271.2 1279.7 2238 1255.3ZM1050.3 1011.9C1048.3 1014.3 1042.1 1017.3 1038.4 1018.5C1018.9 1025.2 998.801 1028.9 978.101 1029.5C972.401 1029.7 965.201 1029.3 960.701 1026C953.501 1020.9 957.101 1013.4 963.001 1008.9C977.901 997.701 1006.6 995.301 1024.3 996.501C1029.7 997.001 1060.5 999.601 1050.3 1011.9ZM1878.9 1857.5C1868 1914.1 1830.8 1948.4 1783.2 1976.2C1743.7 1999.2 1716.9 2015.3 1685.8 2038.1C1651.3 2063.4 1618.1 2093.7 1573.5 2098.8V2098.7C1543.2 2099.7 1520.3 2100 1504.9 2099.7C1480.4 2099.2 1375.4 2092.2 1369.8 2060.5C1366.2 2039.8 1399.3 2027.9 1413.7 2023.2C1435 2016.2 1456.1 2008.6 1476.9 2000.4C1508.5 1987.9 1539.6 1985.9 1573.5 1988.8C1584.7 1989.4 1594.9 1989.5 1604.2 1989.3C1654 1988.1 1700.5 1966.4 1735.3 1930.9C1740.4 1925.7 1746.9 1918 1754.9 1907.7C1760.6 1900.3 1773.4 1883.5 1793.1 1857.4C1803.2 1843.9 1816.8 1831 1832.2 1824.5C1842.2 1820.3 1858.7 1816.5 1868.9 1822.1C1880.5 1828.6 1881.2 1845.8 1878.9 1857.5Z" fill="#474747" fill-opacity="0.5"/>
<path d="M1038 55.3005C1029.4 49.0005 1019.3 44.8005 1007.7 43.3005C958.399 37.3005 921.199 87.2005 874.299 103.501C812.099 125.101 753.499 85.5005 692.299 53.3005C642.699 27.1005 581.499 51.1005 562.499 103.901C531.899 188.801 512.699 277.8 505.599 367.8C504.299 383.8 500.399 403.601 484.799 407.401C463.099 412.701 452.499 382 451.899 359.6C449.199 256.8 458.199 87.4005 448.999 27.0005C447.099 14.5005 434.599 6.50052 422.399 10.1005C407.099 14.6005 397.099 29.3005 398.499 45.2005C400.599 69.1005 408.999 97.8005 408.999 97.8005C410.299 115.1 388.999 124.301 377.299 111.401C354.299 85.9005 337.899 53.0005 318.899 23.8005C212.599 -139.499 8.69934 -203.699 -178.901 -256.299C-195.801 -260.999 -213.701 -265.799 -230.601 -260.999C-264.201 -251.399 -276.301 -211.099 -283.201 -176.899C-284.701 -169.499 -286.101 -161.899 -284.501 -154.499C-277.601 -124.499 -234.101 -128.799 -204.501 -137.399C-21.7006 -190.499 188.899 -106.499 294.199 50.0005C303.699 64.2005 286.099 80.8005 272.499 70.5005C127.899 -39.2995 -66.5006 -82.8995 -243.601 -41.0995C-312.901 -24.7995 -382.801 3.90051 -452.801 -9.09949C-464.901 -11.2995 -476.901 -14.7995 -488.801 -18.6995C-511.901 -26.1995 -524.101 7.80051 -501.401 16.5005C-449.301 36.5005 -391.301 41.2005 -337.001 28.0005C-266.101 10.8005 -187.801 -33.1995 -126.801 6.90051C-57.9006 52.1005 -66.7006 176.501 10.8994 204.301C32.0994 211.901 62.8994 217.701 61.5994 240.201C60.4994 257.701 39.2993 264.8 22.6993 270.1C-124.801 317.4 -155.101 520.101 -280.301 611.401C-321.201 641.201 -370.601 657.6 -411.501 687.3C-437.401 706 -460.101 732.6 -469.701 763.6C-478.501 792 -460.901 820.1 -486.401 840.1C-531.701 875.7 -598.801 859.701 -648.401 886.801C-700.301 915.201 -719.901 983.2 -770.801 1013.1C-818.001 1040.9 -878.101 1028.3 -930.101 1011C-1025.6 979.301 -1123.2 928.3 -1167.8 838.1C-1178.8 815.8 -1183.5 783.6 -1162.2 770.7C-1150.8 763.8 -1136.3 765.801 -1123 764.801C-1064.8 760.301 -1028.4 697.4 -973.201 678.6C-922.101 661.1 -864.101 684.3 -812.601 668C-761.601 651.8 -730.601 602 -698.701 559C-610.401 440.401 -483.001 351.5 -341.201 309.5C-332.801 307 -323.701 304.701 -315.501 307.701C-301.101 313 -296.901 332.8 -303.101 346.8C-309.301 360.8 -322.501 370.201 -335.201 378.8C-370.901 403 -407.201 426.401 -444.101 448.701C-458.501 457.5 -447.001 479.401 -431.601 472.401C-356.301 438.101 -290.101 390.5 -256.201 316.701C-251.601 306.701 -247.601 295.3 -250.801 284.701C-257.601 261.8 -289.201 260 -312.701 264.401C-425.501 285.5 -531.501 342.1 -611.901 424C-673.301 486.6 -722.901 565.701 -802.401 602.8C-852.801 626.3 -909.701 630.201 -964.401 640.5C-1059.3 658.401 -1150.1 697.201 -1228.7 753.201C-1237.4 759.401 -1246.5 766.601 -1249.8 776.801C-1254 790 -1247.1 804 -1239.9 815.901C-1176.8 921.301 -1076.6 1003.9 -961.101 1045.7C-892.701 1070.5 -810.301 1079.1 -752.301 1035.2C-708.201 1001.8 -684.801 942.6 -633.801 921C-595.101 904.6 -549.801 914.401 -509.601 902.1C-462.801 887.7 -424.101 844.5 -381.901 823.5C-366.501 815.801 -369.401 793.1 -386.301 789.6C-395.801 787.6 -404.301 784.2 -410.001 777.2C-430.901 751.7 -393.401 720 -363.601 706C-292.601 672.5 -229.701 621.9 -181.801 559.6C-135.701 499.6 -103.601 429.601 -54.9006 371.701C-6.20068 313.8 67.0994 267.5 141.599 280.6C172.399 286 205.899 310.1 200.199 340.8C197.499 355.3 186.699 366.8 175.999 377C68.7994 479.8 -69.1006 551.201 -157.701 670.3C-210.801 741.701 -244.101 827.801 -306.001 891.801C-355.501 943 -422.101 977.401 -492.501 988.1C-555.401 997.7 -623.201 989.5 -679.601 1019C-726.101 1043.3 -756.101 1088.5 -781.401 1135.3C-788.001 1147.5 -779.001 1162.2 -765.201 1162H-764.801C-757.201 1161.9 -750.501 1157 -748.001 1149.8C-734.501 1111.3 -709.101 1070.2 -670.701 1076.8C-640.601 1082 -625.101 1114.3 -606.601 1138.6C-605.401 1140.1 -604.201 1141.6 -602.901 1143.1C-587.101 1160.7 -560.401 1137.8 -575.001 1119.1C-586.601 1104.3 -592.201 1087.5 -584.301 1070.5C-572.501 1045.2 -539.001 1041.3 -511.301 1037.5C-359.101 1016.6 -238.401 895.2 -162.301 761.7C-129.101 703.5 -100.801 640.3 -51.2006 595.201C2.39941 546.5 74.8994 524.4 133.399 481.8C171.099 454.3 202.599 418.2 224.799 377.1C238.399 352 248.499 321.6 237.399 295.3C222.199 259.6 177.699 249.801 140.899 237.601C53.8994 208.801 -19.0006 140.201 -53.0006 55.1005C-64.5006 26.4005 -58.5006 -20.7995 -27.8007 -16.9995C-3.10071 -13.8995 0.699341 19.3005 6.69934 43.5005C25.6993 120.201 115.999 149.201 182.499 191.801C255.399 238.401 310.899 325.7 289.999 409.6C273.499 476 214.799 523.201 154.699 555.901C128.199 570.301 100.599 583.101 73.5994 596.701C56.2993 605.401 67.6995 631.6 85.7994 624.8C144.999 602.701 201.899 574.4 255.199 540.3C278.999 525.1 302.599 508.201 318.299 484.8C348.999 439.3 343.899 378.3 326.799 326.201C291.799 220 209.899 130.201 107.299 85.7005C85.4994 76.3005 57.8994 59.2005 65.5994 36.7005C74.0994 11.8005 111.299 20.0005 133.999 33.4005C196.699 70.3005 257.399 110.601 315.799 154.001C353.599 182.101 391.999 213.9 407.999 258.1C430.399 320.2 403.999 395.401 438.299 451.901C444.299 461.801 452.599 471 463.699 474.3C485.999 480.9 507.099 461.101 519.299 441.401C575.799 350.201 560.099 231.901 596.599 131.001C601.499 117.401 607.599 103.801 617.999 93.8005C648.499 64.5005 699.199 78.2005 735.699 99.5005C772.199 120.801 809.799 149.201 851.799 143.801C883.799 139.701 909.499 116.701 937.899 101.301C966.299 85.9005 1006.3 80.0005 1027 104.801C1039.7 120.001 1040.4 141.801 1039 161.601C1030.2 290.201 958.299 413 850.499 483.701C769.099 537.101 670.199 561.4 593.399 621.3C550.999 654.3 516.299 697.4 469.499 723.8C366.399 782 223.399 748.901 133.499 826C117.799 839.5 103.699 861.401 113.199 879.901C119.299 891.6 132.699 897.2 145.099 901.6C210.999 925.1 278.899 942.901 347.899 954.801C369.799 958.601 392.599 961.8 413.899 955.6C437.299 948.901 456.199 931.901 473.999 915.401C595.999 802.6 715.699 687.201 832.799 569.3C943.099 459 1056.4 335 1076.6 180.301C1082.4 135.401 1071.2 79.7005 1038 55.3005ZM-149.701 -188.099C-151.701 -185.699 -157.901 -182.699 -161.601 -181.499C-181.101 -174.799 -201.201 -171.099 -221.901 -170.499C-227.601 -170.299 -234.801 -170.699 -239.301 -173.999C-246.501 -179.099 -242.901 -186.599 -237.001 -191.099C-222.101 -202.299 -193.401 -204.699 -175.701 -203.499C-170.301 -202.999 -139.501 -200.399 -149.701 -188.099ZM678.899 657.5C667.999 714.1 630.799 748.4 583.199 776.2C543.699 799.2 516.899 815.3 485.799 838.1C451.299 863.401 418.099 893.701 373.499 898.801V898.7C343.199 899.7 320.299 900 304.899 899.7C280.399 899.2 175.399 892.2 169.799 860.5C166.199 839.801 199.299 827.9 213.699 823.2C234.999 816.2 256.099 808.6 276.899 800.401C308.499 787.901 339.599 785.901 373.499 788.801C384.699 789.401 394.899 789.5 404.199 789.301C453.999 788.101 500.499 766.401 535.299 730.901C540.399 725.701 546.899 718 554.899 707.701C560.599 700.3 573.399 683.5 593.099 657.401C603.199 643.901 616.799 631 632.199 624.5C642.199 620.3 658.699 616.5 668.899 622.1C680.499 628.6 681.199 645.8 678.899 657.5Z" fill="#474747" fill-opacity="0.5"/>
<path d="M3438 55.3005C3429.4 49.0005 3419.3 44.8005 3407.7 43.3005C3358.4 37.3005 3321.2 87.2005 3274.3 103.501C3212.1 125.101 3153.5 85.5005 3092.3 53.3005C3042.7 27.1005 2981.5 51.1005 2962.5 103.901C2931.9 188.801 2912.7 277.8 2905.6 367.8C2904.3 383.8 2900.4 403.601 2884.8 407.401C2863.1 412.701 2852.5 382 2851.9 359.6C2848.6 234.1 2845.3 108.601 2842 -16.8995C2841.7 -28.1995 2832.3 -37.1995 2821 -37.0995C2809.1 -36.8995 2799.7 -26.6995 2800.6 -14.7995L2809 97.9005C2810.3 115.201 2789 124.401 2777.3 111.501C2754.3 86.0005 2737.9 53.1005 2718.9 23.9005C2612.6 -139.499 2408.7 -203.699 2221.1 -256.299C2204.2 -260.999 2186.3 -265.799 2169.4 -260.999C2135.8 -251.399 2123.7 -211.099 2116.8 -176.899C2115.3 -169.499 2113.9 -161.899 2115.5 -154.499C2122.4 -124.499 2165.9 -128.799 2195.5 -137.399C2378.3 -190.499 2588.9 -106.499 2694.2 50.0005C2703.7 64.2005 2686.1 80.8005 2672.5 70.5005C2527.9 -39.2995 2333.5 -82.8995 2156.4 -41.0995C2087.1 -24.7995 2017.2 3.90051 1947.2 -9.09949C1935.1 -11.2995 1923.1 -14.7995 1911.2 -18.6995C1888.1 -26.1995 1875.9 7.80051 1898.6 16.5005C1950.7 36.5005 2008.7 41.2005 2063 28.0005C2133.9 10.8005 2212.2 -33.1995 2273.2 6.90051C2342.1 52.1005 2333.3 176.501 2410.9 204.301C2432.1 211.901 2462.9 217.701 2461.6 240.201C2460.5 257.701 2439.3 264.8 2422.7 270.1C2275.2 317.4 2244.9 520.101 2119.7 611.401C2078.8 641.201 2029.4 657.6 1988.5 687.3C1962.6 706 1939.9 732.6 1930.3 763.6C1921.5 792 1939.1 820.1 1913.6 840.1C1868.3 875.7 1801.2 859.701 1751.6 886.801C1699.7 915.201 1680.1 983.2 1629.2 1013.1C1582 1040.9 1521.9 1028.3 1469.9 1011C1374.4 979.301 1276.8 928.3 1232.2 838.1C1221.2 815.8 1216.5 783.6 1237.8 770.7C1249.2 763.8 1263.7 765.801 1277 764.801C1335.2 760.301 1371.6 697.4 1426.8 678.6C1477.9 661.1 1535.9 684.3 1587.4 668C1638.4 651.8 1669.4 602 1701.3 559C1789.6 440.401 1917 351.5 2058.8 309.5C2067.2 307 2076.3 304.701 2084.5 307.701C2098.9 313 2103.1 332.8 2096.9 346.8C2090.7 360.8 2077.5 370.201 2064.8 378.8C2029.1 403 1992.8 426.401 1955.9 448.701C1941.5 457.5 1953 479.401 1968.4 472.401C2043.7 438.101 2109.9 390.5 2143.8 316.701C2148.4 306.701 2152.4 295.3 2149.2 284.701C2142.4 261.8 2110.8 260 2087.3 264.401C1974.5 285.5 1868.5 342.1 1788.1 424C1726.7 486.6 1677.1 565.701 1597.6 602.8C1547.2 626.3 1490.3 630.201 1435.6 640.5C1340.7 658.401 1249.9 697.201 1171.3 753.201C1162.6 759.401 1153.5 766.601 1150.2 776.801C1146 790 1152.9 804 1160.1 815.901C1223.2 921.301 1323.4 1003.9 1438.9 1045.7C1507.3 1070.5 1589.7 1079.1 1647.7 1035.2C1691.8 1001.8 1715.2 942.6 1766.2 921C1804.9 904.6 1850.2 914.401 1890.4 902.1C1937.2 887.7 1975.9 844.5 2018.1 823.5C2033.5 815.801 2030.6 793.1 2013.7 789.6C2004.2 787.6 1995.7 784.2 1990 777.2C1969.1 751.7 2006.6 720 2036.4 706C2107.4 672.5 2170.3 621.9 2218.2 559.6C2264.3 499.6 2296.4 429.601 2345.1 371.701C2393.8 313.8 2467.1 267.5 2541.6 280.6C2572.4 286 2605.9 310.1 2600.2 340.8C2597.5 355.3 2586.7 366.8 2576 377C2468.8 479.8 2330.9 551.201 2242.3 670.3C2189.2 741.701 2155.9 827.801 2094 891.801C2044.5 943 1977.9 977.401 1907.5 988.1C1844.6 997.7 1776.8 989.5 1720.4 1019C1673.9 1043.3 1643.9 1088.5 1618.6 1135.3C1612 1147.5 1621 1162.2 1634.8 1162H1635.2C1642.8 1161.9 1649.5 1157 1652 1149.8C1665.5 1111.3 1690.9 1070.2 1729.3 1076.8C1759.4 1082 1774.9 1114.3 1793.4 1138.6C1794.6 1140.1 1795.8 1141.6 1797.1 1143.1C1812.9 1160.7 1839.6 1137.8 1825 1119.1C1813.4 1104.3 1807.8 1087.5 1815.7 1070.5C1827.5 1045.2 1861 1041.3 1888.7 1037.5C2040.9 1016.6 2161.6 895.2 2237.7 761.7C2270.9 703.5 2299.2 640.3 2348.8 595.201C2402.4 546.5 2474.9 524.4 2533.4 481.8C2571.1 454.3 2602.6 418.2 2624.8 377.1C2638.4 352 2648.5 321.6 2637.4 295.3C2622.2 259.6 2577.7 249.801 2540.9 237.601C2453.9 208.801 2381 140.201 2347 55.1005C2335.5 26.4005 2341.5 -20.7995 2372.2 -16.9995C2396.9 -13.8995 2400.7 19.3005 2406.7 43.5005C2425.7 120.201 2516 149.201 2582.5 191.801C2655.4 238.401 2710.9 325.7 2690 409.6C2673.5 476 2614.8 523.201 2554.7 555.901C2528.2 570.301 2500.6 583.101 2473.6 596.701C2456.3 605.401 2467.7 631.6 2485.8 624.8C2545 602.701 2601.9 574.4 2655.2 540.3C2679 525.1 2702.6 508.201 2718.3 484.8C2749 439.3 2743.9 378.3 2726.8 326.201C2691.8 220 2609.9 130.201 2507.3 85.7005C2485.5 76.3005 2457.9 59.2005 2465.6 36.7005C2474.1 11.8005 2511.3 20.0005 2534 33.4005C2596.7 70.3005 2657.4 110.601 2715.8 154.001C2753.6 182.101 2792 213.9 2808 258.1C2830.4 320.2 2804 395.401 2838.3 451.901C2844.3 461.801 2852.6 471 2863.7 474.3C2886 480.9 2907.1 461.101 2919.3 441.401C2975.8 350.201 2960.1 231.901 2996.6 131.001C3001.5 117.401 3007.6 103.801 3018 93.8005C3048.5 64.5005 3099.2 78.2005 3135.7 99.5005C3172.2 120.801 3209.8 149.201 3251.8 143.801C3283.8 139.701 3309.5 116.701 3337.9 101.301C3366.3 85.9005 3406.3 80.0005 3427 104.801C3439.7 120.001 3440.4 141.801 3439 161.601C3430.2 290.201 3358.3 413 3250.5 483.701C3169.1 537.101 3070.2 561.4 2993.4 621.3C2951 654.3 2916.3 697.4 2869.5 723.8C2766.4 782 2623.4 748.901 2533.5 826C2517.8 839.5 2503.7 861.401 2513.2 879.901C2519.3 891.6 2532.7 897.2 2545.1 901.6C2611 925.1 2678.9 942.901 2747.9 954.801C2769.8 958.601 2792.6 961.8 2814 955.6C2837.4 948.901 2856.3 931.901 2874.1 915.401C2996.1 802.6 3115.8 687.201 3232.9 569.3C3343.1 459 3456.4 335 3476.6 180.301C3482.4 135.401 3471.2 79.7005 3438 55.3005ZM2250.3 -188.099C2248.3 -185.699 2242.1 -182.699 2238.4 -181.499C2218.9 -174.799 2198.8 -171.099 2178.1 -170.499C2172.4 -170.299 2165.2 -170.699 2160.7 -173.999C2153.5 -179.099 2157.1 -186.599 2163 -191.099C2177.9 -202.299 2206.6 -204.699 2224.3 -203.499C2229.7 -202.999 2260.5 -200.399 2250.3 -188.099ZM3078.9 657.5C3068 714.1 3030.8 748.4 2983.2 776.2C2943.7 799.2 2916.9 815.3 2885.8 838.1C2851.3 863.401 2818.1 893.701 2773.5 898.801V898.7C2743.2 899.7 2720.3 900 2704.9 899.7C2680.4 899.2 2575.4 892.2 2569.8 860.5C2566.2 839.801 2599.3 827.9 2613.7 823.2C2635 816.2 2656.1 808.6 2676.9 800.401C2708.5 787.901 2739.6 785.901 2773.5 788.801C2784.7 789.401 2794.9 789.5 2804.2 789.301C2854 788.101 2900.5 766.401 2935.3 730.901C2940.4 725.701 2946.9 718 2954.9 707.701C2960.6 700.3 2973.4 683.5 2993.1 657.401C3003.2 643.901 3016.8 631 3032.2 624.5C3042.2 620.3 3058.7 616.5 3068.9 622.1C3080.5 628.6 3081.2 645.8 3078.9 657.5Z" fill="#474747" fill-opacity="0.5"/>
<path d="M665.801 216.001C656.401 209.901 658.501 198.901 667.601 193.801C673.001 190.901 678.501 188.901 684.201 187.801C710.501 182.801 737.001 181.101 763.801 182.901C778.801 183.901 791.701 185.901 802.401 189.001C815.601 192.801 830.001 197.301 842.501 199.401C861.601 202.601 881.401 201.801 900.801 202.501C906.201 202.701 910.901 203.301 914.901 204.501C918.301 205.401 920.001 208.701 916.801 211.201C914.101 213.301 910.501 214.701 906.001 215.601C893.101 218.101 880.001 219.401 866.901 219.701C819.601 220.501 773.501 216.201 728.901 221.601C709.501 223.901 683.201 227.301 665.801 216.001Z" fill="#474747" fill-opacity="0.5"/>
<path d="M616.702 248.101C620.102 249.201 621.602 259.001 621.702 262.001C622.702 277.601 619.902 295.101 611.202 308.401C602.802 321.201 599.102 305.201 599.102 299.401C599.102 285.001 601.702 271.101 606.902 257.701C608.502 253.801 612.102 246.501 616.702 248.101Z" fill="#474747" fill-opacity="0.5"/>
<path d="M1114.5 279.5C1115.2 279.5 1115.8 280.1 1115.9 280.8C1116.1 290.8 1095.8 312.1 1085.7 311.4C1085.3 311.4 1085 311.2 1084.8 310.8C1080.5 301.7 1105.5 279.5 1114.5 279.5Z" fill="#474747" fill-opacity="0.5"/>
<path d="M1287.8 366.301C1280.6 361.401 1301.9 350.301 1305.2 348.601C1313.5 344.401 1322.2 341.701 1331.5 340.401C1335.1 339.901 1344.5 341.101 1341.8 347.101C1335.4 361.601 1305.8 367.501 1291.8 367.501C1290.6 367.401 1288.6 366.901 1287.8 366.301Z" fill="#474747" fill-opacity="0.5"/>
<path d="M1151.7 467.9C1143.2 476.5 1136.2 472.4 1139.3 460.4C1141.7 450.8 1146.1 442.2 1152.2 434.4C1155.1 430.7 1165.6 420.1 1170.8 424.7C1173.9 427.5 1172.4 433.7 1171.2 437.1C1167.1 448.5 1160.7 458.8 1151.7 467.9Z" fill="#474747" fill-opacity="0.5"/>
<path d="M896.996 724.1C895.496 723.9 894.696 722.3 895.196 721C897.596 714.9 913.496 706.7 919.496 703.9C930.396 698.7 970.996 681.3 981.196 687.8C981.496 688 981.796 688.4 981.896 688.7C983.796 697.5 967.796 707.1 961.496 709.7C945.496 716.4 928.796 721 911.596 723.4C904.996 724.4 901.996 724.9 896.996 724.1Z" fill="#474747" fill-opacity="0.5"/>
<path d="M1124.6 918.001C1116.1 909.801 1053.3 845.101 1065.2 834.601C1069.5 830.801 1079.5 839.501 1082.9 842.701C1097.6 856.801 1117.8 876.801 1143.5 902.601C1148.4 907.501 1186.4 945.501 1174.6 949.901C1163.8 953.901 1133.2 926.301 1124.6 918.001Z" fill="#474747" fill-opacity="0.5"/>
<path d="M2238 55.3005C2229.4 49.0005 2219.3 44.8005 2207.7 43.3005C2158.4 37.3005 2121.2 87.2005 2074.3 103.501C2012.1 125.101 1953.5 85.5005 1892.3 53.3005C1842.7 27.1005 1781.5 51.1005 1762.5 103.901C1731.9 188.801 1712.7 277.8 1705.6 367.8C1704.3 383.8 1700.4 403.601 1684.8 407.401C1663.1 412.701 1652.5 382 1651.9 359.6C1648.6 234.1 1645.3 108.601 1642 -16.8995C1641.7 -28.1995 1632.3 -37.1995 1621 -37.0995C1609.1 -36.8995 1599.7 -26.6995 1600.6 -14.7995L1609 97.9005C1610.3 115.201 1589 124.401 1577.3 111.501C1554.3 86.0005 1537.9 53.1005 1518.9 23.9005C1412.6 -139.499 1208.7 -203.699 1021.1 -256.299C1004.2 -260.999 986.299 -265.799 969.399 -260.999C935.799 -251.399 923.7 -211.099 916.799 -176.899C915.299 -169.499 913.899 -161.899 915.499 -154.499C922.399 -124.499 965.899 -128.799 995.499 -137.399C1178.3 -190.499 1388.9 -106.499 1494.2 50.0005C1503.7 64.2005 1486.1 80.8005 1472.5 70.5005C1327.9 -39.2995 1133.5 -82.8995 956.399 -41.0995C887.099 -24.7995 817.199 3.90051 747.199 -9.09949C735.099 -11.2995 723.099 -14.7995 711.199 -18.6995C688.099 -26.1995 675.899 7.80051 698.599 16.5005C750.699 36.5005 808.699 41.2005 862.999 28.0005C933.899 10.8005 1012.2 -33.1995 1073.2 6.90051C1142.1 52.1005 1133.3 176.501 1210.9 204.301C1232.1 211.901 1262.9 217.701 1261.6 240.201C1260.5 257.701 1239.3 264.8 1222.7 270.1C1075.2 317.4 1044.9 520.101 919.699 611.401C878.799 641.201 829.399 657.6 788.499 687.3C762.599 706 739.899 732.6 730.299 763.6C721.5 792 739.099 820.1 713.599 840.1C668.299 875.7 601.199 859.701 551.599 886.801C499.699 915.201 480.099 983.2 429.199 1013.1C381.999 1040.9 321.899 1028.3 269.899 1011C174.399 979.301 76.7994 928.3 32.1994 838.1C21.1994 815.8 16.4995 783.6 37.7995 770.7C49.1995 763.8 63.6994 765.801 76.9994 764.801C135.199 760.301 171.599 697.4 226.799 678.6C277.899 661.1 335.899 684.3 387.399 668C438.399 651.8 469.399 602 501.299 559C589.599 440.401 717 351.5 858.799 309.5C867.2 307 876.299 304.701 884.499 307.701C898.899 313 903.099 332.8 896.899 346.8C890.699 360.8 877.5 370.201 864.799 378.8C829.099 403 792.799 426.401 755.899 448.701C741.499 457.5 752.999 479.401 768.399 472.401C843.699 438.101 909.899 390.5 943.799 316.701C948.399 306.701 952.399 295.3 949.199 284.701C942.399 261.8 910.799 260 887.299 264.401C774.5 285.5 668.499 342.1 588.099 424C526.699 486.6 477.099 565.701 397.599 602.8C347.199 626.3 290.299 630.201 235.599 640.5C140.699 658.401 49.8995 697.201 -28.7005 753.201C-37.4005 759.401 -46.5006 766.601 -49.8006 776.801C-54.0006 790 -47.1006 804 -39.9006 815.901C23.1994 921.301 123.399 1003.9 238.899 1045.7C307.299 1070.5 389.699 1079.1 447.699 1035.2C491.799 1001.8 515.199 942.6 566.199 921C604.899 904.6 650.199 914.401 690.399 902.1C737.199 887.7 775.9 844.5 818.1 823.5C833.5 815.801 830.599 793.1 813.699 789.6C804.199 787.6 795.699 784.2 789.999 777.2C769.099 751.7 806.599 720 836.399 706C907.399 672.5 970.299 621.9 1018.2 559.6C1064.3 499.6 1096.4 429.601 1145.1 371.701C1193.8 313.8 1267.1 267.5 1341.6 280.6C1372.4 286 1405.9 310.1 1400.2 340.8C1397.5 355.3 1386.7 366.8 1376 377C1268.8 479.8 1130.9 551.201 1042.3 670.3C989.199 741.701 955.899 827.801 893.999 891.801C844.499 943 777.899 977.401 707.499 988.1C644.599 997.7 576.799 989.5 520.399 1019C473.899 1043.3 443.899 1088.5 418.599 1135.3C411.999 1147.5 420.999 1162.2 434.799 1162H435.199C442.799 1161.9 449.499 1157 451.999 1149.8C465.499 1111.3 490.899 1070.2 529.299 1076.8C559.399 1082 574.899 1114.3 593.399 1138.6C594.599 1140.1 595.799 1141.6 597.099 1143.1C612.899 1160.7 639.599 1137.8 624.999 1119.1C613.399 1104.3 607.799 1087.5 615.699 1070.5C627.499 1045.2 660.999 1041.3 688.699 1037.5C840.899 1016.6 961.599 895.2 1037.7 761.7C1070.9 703.5 1099.2 640.3 1148.8 595.201C1202.4 546.5 1274.9 524.4 1333.4 481.8C1371.1 454.3 1402.6 418.2 1424.8 377.1C1438.4 352 1448.5 321.6 1437.4 295.3C1422.2 259.6 1377.7 249.801 1340.9 237.601C1253.9 208.801 1181 140.201 1147 55.1005C1135.5 26.4005 1141.5 -20.7995 1172.2 -16.9995C1196.9 -13.8995 1200.7 19.3005 1206.7 43.5005C1225.7 120.201 1316 149.201 1382.5 191.801C1455.4 238.401 1510.9 325.7 1490 409.6C1473.5 476 1414.8 523.201 1354.7 555.901C1328.2 570.301 1300.6 583.101 1273.6 596.701C1256.3 605.401 1267.7 631.6 1285.8 624.8C1345 602.701 1401.9 574.4 1455.2 540.3C1479 525.1 1502.6 508.201 1518.3 484.8C1549 439.3 1543.9 378.3 1526.8 326.201C1491.8 220 1409.9 130.201 1307.3 85.7005C1285.5 76.3005 1257.9 59.2005 1265.6 36.7005C1274.1 11.8005 1311.3 20.0005 1334 33.4005C1396.7 70.3005 1457.4 110.601 1515.8 154.001C1553.6 182.101 1592 213.9 1608 258.1C1630.4 320.2 1604 395.401 1638.3 451.901C1644.3 461.801 1652.6 471 1663.7 474.3C1686 480.9 1707.1 461.101 1719.3 441.401C1775.8 350.201 1760.1 231.901 1796.6 131.001C1801.5 117.401 1807.6 103.801 1818 93.8005C1848.5 64.5005 1899.2 78.2005 1935.7 99.5005C1972.2 120.801 2009.8 149.201 2051.8 143.801C2083.8 139.701 2109.5 116.701 2137.9 101.301C2166.3 85.9005 2206.3 80.0005 2227 104.801C2239.7 120.001 2240.4 141.801 2239 161.601C2230.2 290.201 2158.3 413 2050.5 483.701C1969.1 537.101 1870.2 561.4 1793.4 621.3C1751 654.3 1716.3 697.4 1669.5 723.8C1566.4 782 1423.4 748.901 1333.5 826C1317.8 839.5 1303.7 861.401 1313.2 879.901C1319.3 891.6 1332.7 897.2 1345.1 901.6C1411 925.1 1478.9 942.901 1547.9 954.801C1569.8 958.601 1592.6 961.8 1614 955.6C1637.4 948.901 1656.3 931.901 1674.1 915.401C1796.1 802.6 1915.8 687.201 2032.9 569.3C2143.1 459 2256.4 335 2276.6 180.301C2282.4 135.401 2271.2 79.7005 2238 55.3005ZM1050.3 -188.099C1048.3 -185.699 1042.1 -182.699 1038.4 -181.499C1018.9 -174.799 998.799 -171.099 978.099 -170.499C972.399 -170.299 965.199 -170.699 960.699 -173.999C953.499 -179.099 957.099 -186.599 962.999 -191.099C977.899 -202.299 1006.6 -204.699 1024.3 -203.499C1029.7 -202.999 1060.5 -200.399 1050.3 -188.099ZM1878.9 657.5C1868 714.1 1830.8 748.4 1783.2 776.2C1743.7 799.2 1716.9 815.3 1685.8 838.1C1651.3 863.401 1618.1 893.701 1573.5 898.801V898.7C1543.2 899.7 1520.3 900 1504.9 899.7C1480.4 899.2 1375.4 892.2 1369.8 860.5C1366.2 839.801 1399.3 827.9 1413.7 823.2C1435 816.2 1456.1 808.6 1476.9 800.401C1508.5 787.901 1539.6 785.901 1573.5 788.801C1584.7 789.401 1594.9 789.5 1604.2 789.301C1654 788.101 1700.5 766.401 1735.3 730.901C1740.4 725.701 1746.9 718 1754.9 707.701C1760.6 700.3 1773.4 683.5 1793.1 657.401C1803.2 643.901 1816.8 631 1832.2 624.5C1842.2 620.3 1858.7 616.5 1868.9 622.1C1880.5 628.6 1881.2 645.8 1878.9 657.5Z" fill="#474747" fill-opacity="0.5"/>
<path d="M416.898 551.401C398.898 553.601 380.898 555.801 362.898 558.101C352.898 559.301 342.698 560.601 333.498 564.601C331.798 565.301 330.098 566.201 328.798 567.501C324.798 571.701 328.698 575.501 332.898 576.901C337.498 578.401 342.298 578.901 347.098 579.201C356.298 579.801 365.498 579.501 374.698 578.501C389.098 576.801 403.598 573.001 415.598 564.901C418.798 562.701 421.898 560.201 423.598 556.701C423.998 556.001 424.298 555.201 424.198 554.301C424.098 552.901 422.798 551.801 421.398 551.401C419.998 551.001 418.598 551.201 417.198 551.401C417.098 551.301 416.998 551.401 416.898 551.401Z" fill="#474747" fill-opacity="0.5"/>
<path d="M638.604 509.6C639.304 509.6 639.904 510.2 640.004 510.9C640.204 520.9 619.904 542.2 609.804 541.5C609.404 541.5 609.104 541.3 608.904 540.9C604.504 531.8 629.604 509.6 638.604 509.6Z" fill="#474747" fill-opacity="0.5"/>
</svg>
