<svg width="1920" height="960" viewBox="0 0 1920 960" fill="none" xmlns="http://www.w3.org/2000/svg">
<path d="M216.761 -419C206.378 -419 199.341 -409.905 203.263 -401.51C207.416 -392.814 211.569 -384.319 214.223 -377.823C229.566 -339.644 233.373 -298.466 225.99 -258.188C224.49 -249.793 221.26 -232.802 216.184 -207.116C211.454 -182.53 209.608 -152.646 207.07 -134.356C202.456 -100.375 188.15 -69.4917 173.73 -37.2094C160.117 -6.6262 154.925 21.3583 154.118 53.6406C153.541 74.6291 153.31 95.7177 153.195 116.706C153.08 157.983 150.542 199.561 152.272 240.338C152.964 255.53 157.002 273.52 158.732 286.913C160.694 302.404 161.27 319.795 160.578 339.084C159.309 374.365 154.002 409.246 144.773 443.627C136.813 473.311 127.699 503.094 116.048 531.878C112.471 540.574 108.318 551.168 103.588 563.561C93.2054 590.446 91.4749 615.532 94.9358 643.317C98.9736 675.5 106.818 707.082 113.74 738.865C122.277 777.744 108.78 816.922 113.971 856.001C116.394 874.39 123.546 893.88 130.583 911.87C135.66 924.863 137.967 934.458 138.313 946.951C138.774 970.238 135.313 990.827 128.507 1013.61C123.085 1031.7 119.162 1050.09 116.509 1068.68C113.51 1090.57 107.741 1109.16 100.473 1131.75C90.552 1162.43 86.3989 1194.71 87.7832 1228.6C88.8215 1254.68 93.3207 1286.96 94.9358 1304.85C97.1278 1328.64 97.9353 1355.43 97.3585 1385.21C97.0124 1402.7 94.8205 1421.19 90.7827 1440.88C85.4759 1466.57 83.284 1491.05 85.2452 1517.14C86.6296 1536.53 90.4366 1557.42 93.5515 1577.4C100.358 1621.98 89.0522 1674.45 63.4413 1713.73C55.9426 1725.32 48.6747 1736.92 44.7523 1749.81C39.5609 1766.9 40.253 1787.59 42.445 1805.38C43.2525 1811.98 44.0601 1818.67 44.983 1825.27C45.7905 1831.97 46.7135 1838.56 47.521 1845.26C48.3286 1851.95 49.0207 1858.65 49.7129 1865.35C50.4051 1872.04 50.9819 1878.74 51.4434 1885.44C51.9049 1892.13 52.251 1898.83 52.4817 1905.52C52.7124 1912.22 52.7124 1919.02 52.597 1925.71C52.4817 1932.51 52.1356 1939.31 51.5588 1946C50.9819 1952.8 50.1744 1959.6 49.1361 1966.39C48.0978 1973.09 46.8288 1979.78 45.0984 1986.38C43.3679 1992.98 41.522 1999.47 39.7916 2006.07C38.0611 2012.67 36.446 2019.26 35.177 2025.96C33.908 2032.56 32.9851 2039.25 32.639 2045.95C32.5236 2048.35 32.4083 2050.75 32.4083 2053.24C32.4083 2076.93 33.2158 2100.92 31.6007 2124.6C29.0627 2162.78 23.5252 2201.16 17.4109 2239.04C16.4879 2244.94 14.9882 2252.63 12.9116 2262.13C-0.124551 2323 -2.43184 2386.06 2.18274 2448.73C4.72076 2483.61 6.79732 2518.59 8.29706 2553.57C9.33534 2577.26 12.1041 2601.04 20.6411 2622.93C27.2168 2639.92 32.5236 2652.82 35.9846 2670.01C39.7916 2688.6 43.9447 2706.99 48.6747 2725.38C50.9819 2734.27 54.0968 2742.97 58.1345 2751.66C58.9421 2753.36 59.865 2753.46 61.0187 2751.86C61.2494 2751.56 61.4801 2750.76 61.7108 2749.46C63.672 2738.47 64.2489 2727.47 63.4413 2716.28C61.134 2685.8 53.2892 2655.71 46.0213 2625.83C42.0989 2609.74 39.3301 2590.35 37.715 2567.36C34.6002 2524.29 31.4853 2481.11 28.2551 2438.03C25.9478 2406.35 24.7942 2372.67 26.1786 2346.68C27.1015 2329.89 28.2551 2316.8 29.7549 2307.6C42.9064 2226.95 53.1739 2152.49 60.5572 2084.23C62.1723 2068.94 63.2106 2049.95 63.4413 2027.36C63.4413 2024.36 63.672 2021.26 63.9028 2018.26C64.2489 2013.27 64.595 2008.17 65.0564 2003.17C65.6332 1996.57 66.2101 1989.98 66.7869 1983.28C67.3637 1976.49 67.9405 1969.69 68.1713 1962.89C68.2866 1960.49 68.2866 1958.1 68.2866 1955.7C68.5174 1914.02 66.0947 1872.34 61.134 1830.87C57.4424 1800.18 51.5588 1771 67.4791 1741.81C81.0921 1716.93 94.9358 1693.24 105.088 1666.06C116.97 1634.17 119.624 1600.59 114.086 1567.71C107.741 1529.53 105.203 1492.15 112.241 1456.37C116.509 1434.78 119.162 1421.19 120.085 1415.79C124.008 1393.81 125.507 1371.72 125.738 1349.63C125.969 1333.94 124.931 1319.65 122.623 1306.75C119.508 1289.36 115.817 1270.87 114.894 1254.08C113.394 1226.6 116.278 1198.51 123.546 1170.03C133.583 1130.85 140.505 1107.46 147.427 1069.18C152.041 1043.6 156.541 1018.01 160.924 992.426C166.347 960.643 166.116 932.159 155.964 901.076C152.387 889.982 148.811 878.888 145.35 867.894C134.737 834.113 139.467 800.231 138.082 765.85C136.698 730.37 124.931 696.088 115.24 661.907C114.894 660.508 114.432 659.208 114.086 657.809C107.049 632.723 104.626 605.038 115.009 580.851C115.586 579.352 119.162 572.756 125.738 561.062C135.429 543.772 142.466 525.682 146.85 506.792C154.925 472.111 162.655 449.724 170.846 421.139C180.767 386.758 182.959 351.677 181.805 316.397C180.306 272.621 177.191 229.045 175.922 185.269C174.883 149.588 173.845 113.808 172.807 78.1272C171.769 44.2458 178.806 11.5638 193.688 -19.719C212.262 -58.6976 225.413 -85.6828 230.72 -120.863C233.143 -137.255 235.219 -157.743 238.334 -174.834C241.795 -194.023 246.525 -215.911 252.524 -240.498C266.598 -297.966 257.138 -357.934 229.912 -411.304C227.72 -416.102 222.529 -419 216.761 -419Z" fill="#474747" fill-opacity="0.5"/>
<path d="M1622.09 -2819H1591.54C1596.96 -2804.91 1605.72 -2788.72 1610.1 -2777.82C1625.44 -2739.64 1629.24 -2698.47 1621.86 -2658.19C1620.36 -2649.79 1617.13 -2632.8 1612.06 -2607.12C1607.33 -2582.53 1605.49 -2552.65 1602.95 -2534.36C1598.34 -2500.37 1584.04 -2469.49 1569.63 -2437.21C1556.03 -2406.63 1550.84 -2378.64 1550.03 -2346.36C1549.45 -2325.37 1549.22 -2304.28 1549.11 -2283.29C1548.99 -2242.02 1546.46 -2200.44 1548.19 -2159.66C1548.88 -2144.47 1552.91 -2126.48 1554.64 -2113.09C1556.6 -2097.6 1557.18 -2080.21 1556.49 -2060.92C1555.22 -2025.64 1549.92 -1990.75 1540.69 -1956.37C1532.74 -1926.69 1523.63 -1896.91 1511.98 -1868.12C1508.41 -1859.43 1504.26 -1848.83 1499.53 -1836.44C1489.15 -1809.55 1487.42 -1784.47 1490.88 -1756.68C1494.92 -1724.5 1502.76 -1692.92 1509.68 -1661.14C1518.21 -1622.26 1504.72 -1583.08 1509.91 -1544C1512.33 -1525.61 1519.48 -1506.12 1526.51 -1488.13C1531.58 -1475.14 1533.89 -1465.54 1534.23 -1453.05C1534.7 -1429.76 1531.24 -1409.17 1524.43 -1386.39C1519.01 -1368.3 1515.09 -1349.91 1512.44 -1331.32C1509.45 -1309.43 1503.68 -1290.84 1496.42 -1268.25C1486.5 -1237.57 1482.35 -1205.29 1483.73 -1171.4C1484.77 -1145.32 1489.27 -1113.04 1490.88 -1095.15C1493.07 -1071.36 1493.88 -1044.57 1493.3 -1014.79C1492.96 -997.299 1490.77 -978.809 1486.73 -959.12C1481.43 -933.434 1479.24 -908.948 1481.2 -882.862C1482.58 -863.473 1486.39 -842.584 1489.5 -822.595C1496.3 -778.02 1485 -725.548 1459.41 -686.27C1451.91 -674.676 1444.65 -663.083 1440.73 -650.19C1435.54 -633.099 1436.23 -612.41 1438.42 -594.62C1439.23 -588.024 1440.04 -581.327 1440.96 -574.731C1441.76 -568.035 1442.69 -561.438 1443.49 -554.742C1444.3 -548.046 1444.99 -541.349 1445.68 -534.653C1446.38 -527.957 1446.95 -521.26 1447.41 -514.564C1447.88 -507.868 1448.22 -501.171 1448.45 -494.475C1448.68 -487.779 1448.68 -480.983 1448.57 -474.286C1448.45 -467.49 1448.11 -460.694 1447.53 -453.997C1446.95 -447.201 1446.15 -440.405 1445.11 -433.609C1444.07 -426.912 1442.8 -420.216 1441.07 -413.62C1439.34 -407.023 1437.5 -400.527 1435.77 -393.93C1434.04 -387.334 1432.43 -380.737 1431.16 -374.041C1429.89 -367.445 1428.97 -360.748 1428.62 -354.052C1428.51 -351.653 1428.39 -349.255 1428.39 -346.756C1428.39 -323.069 1429.2 -299.082 1427.58 -275.395C1425.05 -237.216 1419.51 -198.837 1413.4 -160.958C1412.48 -155.061 1410.98 -147.365 1408.9 -137.871C1395.88 -77.004 1393.57 -13.9387 1398.18 48.727C1400.72 83.6078 1402.79 118.589 1404.29 153.569C1405.33 177.256 1408.1 201.043 1416.63 222.931C1423.2 239.922 1428.51 252.815 1431.96 270.005C1435.77 288.595 1439.92 306.985 1444.65 325.375C1446.95 334.27 1450.07 342.965 1454.1 351.661C1454.91 353.36 1455.83 353.46 1456.98 351.861C1457.21 351.561 1457.45 350.761 1457.68 349.462C1459.64 338.468 1460.21 327.474 1459.41 316.28C1457.1 285.797 1449.26 255.713 1442 225.83C1438.07 209.739 1435.31 190.349 1433.69 167.362C1430.58 124.285 1427.47 81.1093 1424.24 38.0329C1421.93 6.35027 1420.78 -27.3314 1422.16 -53.3171C1423.09 -70.1079 1424.24 -83.2006 1425.74 -92.3956C1438.88 -173.051 1449.14 -247.51 1456.52 -315.773C1458.14 -331.065 1459.17 -350.054 1459.41 -372.642C1459.41 -375.64 1459.64 -378.738 1459.87 -381.737C1460.21 -386.734 1460.56 -391.831 1461.02 -396.829C1461.6 -403.425 1462.17 -410.021 1462.75 -416.718C1463.33 -423.514 1463.9 -430.31 1464.13 -437.107C1464.25 -439.505 1464.25 -441.904 1464.25 -444.303C1464.48 -485.98 1462.06 -527.657 1457.1 -569.134C1453.41 -599.817 1447.53 -629.001 1463.44 -658.185C1477.05 -683.072 1490.88 -706.759 1501.03 -733.944C1512.9 -765.826 1515.56 -799.408 1510.02 -832.29C1503.68 -870.469 1501.14 -907.848 1508.18 -943.629C1512.44 -965.217 1515.09 -978.809 1516.02 -984.206C1519.94 -1006.19 1521.44 -1028.28 1521.67 -1050.37C1521.9 -1066.06 1520.86 -1080.35 1518.55 -1093.25C1515.44 -1110.64 1511.75 -1129.13 1510.83 -1145.92C1509.33 -1173.4 1512.21 -1201.49 1519.48 -1229.97C1529.51 -1269.15 1536.43 -1292.54 1543.34 -1330.82C1547.96 -1356.4 1552.45 -1381.99 1556.83 -1407.57C1562.25 -1439.36 1562.02 -1467.84 1551.88 -1498.92C1548.3 -1510.02 1544.73 -1521.11 1541.27 -1532.11C1530.66 -1565.89 1535.39 -1599.77 1534 -1634.15C1532.62 -1669.63 1520.86 -1703.91 1511.17 -1738.09C1510.83 -1739.49 1510.37 -1740.79 1510.02 -1742.19C1502.99 -1767.28 1500.57 -1794.96 1510.94 -1819.15C1511.52 -1820.65 1515.09 -1827.24 1521.67 -1838.94C1531.35 -1856.23 1538.39 -1874.32 1542.77 -1893.21C1550.84 -1927.89 1558.56 -1950.28 1566.75 -1978.86C1576.66 -2013.24 1578.86 -2048.32 1577.7 -2083.6C1576.2 -2127.38 1573.09 -2170.96 1571.82 -2214.73C1570.78 -2250.41 1569.75 -2286.19 1568.71 -2321.87C1567.67 -2355.75 1574.7 -2388.44 1589.58 -2419.72C1608.14 -2458.7 1621.29 -2485.68 1626.59 -2520.86C1629.01 -2537.25 1631.09 -2557.74 1634.2 -2574.83C1637.66 -2594.02 1642.38 -2615.91 1648.38 -2640.5C1663.37 -2700.86 1652.19 -2763.73 1622.09 -2819Z" fill="#474747" fill-opacity="0.5"/>
<path d="M1306.71 -344.74C1340.94 -395.699 1356.03 -462.546 1325.51 -517.502C1324.47 -519.4 1320.17 -526.295 1312.63 -538.186C1290.35 -573.458 1269.7 -609.729 1242.43 -642.502C1232.1 -654.893 1219.45 -667.682 1207.5 -680.073C1188.12 -700.057 1175.48 -726.336 1162.71 -750.716C1148.09 -778.794 1130.57 -799.777 1097.62 -813.466C1079.98 -820.76 1061.76 -827.455 1045.17 -837.447C1010.59 -858.231 978.794 -886.908 953.034 -915.585C931.219 -939.766 921.472 -966.145 919.615 -996.62C918.455 -1014.51 919.383 -1035.99 922.168 -1061.07C924.141 -1078.65 927.738 -1096.04 933.076 -1113.03C943.403 -1146.6 955.587 -1177.78 947.58 -1208.55C939.806 -1238.43 913.814 -1269.2 891.767 -1292.68C873.549 -1311.97 856.376 -1331.85 837.578 -1350.64C819.94 -1368.12 802.883 -1386.21 788.494 -1405.89C771.437 -1429.28 758.325 -1455.16 754.612 -1482.73C751.131 -1509.11 755.888 -1535.59 756.584 -1561.97C757.164 -1585.95 752.871 -1608.93 739.295 -1630.22C729.896 -1645 716.9 -1657.89 706.921 -1672.38C683.481 -1706.06 674.082 -1745.42 665.031 -1783.89C656.213 -1821.56 647.278 -1860.03 652.151 -1898.2C655.865 -1926.68 667.236 -1954.56 666.192 -1983.13C665.148 -2012.61 650.991 -2040.49 636.138 -2067.07C631.381 -2075.66 626.391 -2084.25 621.402 -2092.85C615.136 -2103.54 596.454 -2095.94 602.024 -2085.05C620.706 -2048.78 644.377 -2013.21 644.957 -1974.14C645.421 -1947.36 634.862 -1921.48 630.337 -1895C623.49 -1854.44 631.033 -1813.07 642.404 -1773.3C656.097 -1725.34 674.895 -1676.28 704.948 -1634.01C714.347 -1620.82 727.807 -1606.83 733.029 -1591.85C738.018 -1577.36 736.278 -1560.47 734.653 -1545.58C732.449 -1525.6 727.923 -1505.51 729.78 -1485.53C732.101 -1459.55 744.865 -1435.77 759.021 -1413.19C772.365 -1392.01 788.378 -1372.12 805.32 -1352.94C806.132 -1351.94 807.06 -1351.04 807.872 -1350.04C825.742 -1330.05 844.54 -1310.67 862.642 -1290.79C879.931 -1271.7 899.309 -1251.82 909.868 -1229.33C914.858 -1218.84 918.223 -1207.75 919.267 -1196.36C921.472 -1172.18 914.626 -1144.7 908.94 -1121.02C896.408 -1069.86 889.33 -1020.5 897.22 -969.942C902.21 -937.667 916.25 -909.889 940.966 -884.709C974.269 -850.936 1013.72 -821.86 1060.14 -804.174C1083.92 -795.081 1105.39 -787.687 1120.71 -769.002C1122.68 -766.604 1127.09 -759.709 1133.82 -748.518C1142.29 -734.429 1151.69 -720.94 1162.36 -707.95C1172.57 -695.56 1188.01 -679.973 1198.1 -668.482C1223.28 -639.805 1243.71 -609.329 1263.78 -577.854C1280.26 -551.875 1299.87 -526.895 1310.43 -498.417C1322.03 -467.142 1316.34 -436.966 1305.9 -405.991C1290 -359.328 1260.76 -316.762 1241.15 -271.298C1235.23 -257.409 1231.06 -246.018 1228.74 -237.125C1221.31 -207.749 1225.26 -177.373 1228.27 -146.897C1231.64 -113.224 1227.23 -79.3509 1217.95 -46.1773C1207.27 -8.00772 1198.92 18.671 1191.02 59.4385C1186.38 82.9198 1176.17 101.405 1159.93 120.69C1139.85 144.571 1118.04 167.153 1107.25 195.43C1104.93 201.525 1103.42 211.617 1103.65 222.009C1104 233 1122.33 234.399 1125 223.508C1128.25 210.118 1133.93 197.129 1141.94 183.64C1157.95 156.661 1177.56 131.281 1194.04 104.503C1205.18 86.2173 1214.93 67.1324 1220.61 46.9484C1226.18 27.5639 1227.11 7.47998 1233.38 -11.9046C1238.95 -29.0909 1244.17 -46.2774 1249.28 -63.4637C1256.12 -86.8451 1256.01 -107.529 1252.52 -131.51C1249.97 -149.196 1248.35 -162.984 1247.88 -172.877C1246.61 -195.558 1246.61 -217.141 1254.26 -237.625C1267.61 -273.097 1283.74 -310.567 1306.71 -344.74Z" fill="#474747" fill-opacity="0.5"/>
<path d="M1409.99 521.101C1405.11 503.516 1398.72 490.028 1388.86 471.145C1380.61 455.359 1373.3 439.273 1366.91 422.788C1356.23 395.312 1346.48 368.036 1330 342.659C1324.08 333.567 1315.14 322.477 1307.94 312.186C1296.68 296.2 1288.55 279.115 1283.33 260.931C1277.52 240.549 1280.31 220.767 1287.27 200.784C1297.03 172.809 1311.31 146.632 1325.24 120.156C1347.88 77.1939 1359.14 29.6362 1363.55 -17.1224C1370.05 -84.4628 1379.1 -154.301 1372.37 -222.84C1369.82 -248.518 1368.54 -267.201 1368.54 -278.891C1368.54 -293.977 1370.05 -307.366 1373.07 -319.255C1375.39 -328.147 1377.6 -336.939 1379.68 -345.831C1381.77 -354.723 1383.86 -363.615 1385.72 -372.508C1387.58 -381.4 1389.2 -390.192 1390.6 -399.184C1391.99 -408.276 1393.15 -417.368 1393.85 -426.46C1394.54 -435.352 1395.01 -444.344 1395.13 -453.236C1395.24 -462.228 1395.13 -471.22 1394.78 -480.212C1394.43 -489.104 1393.85 -497.897 1393.04 -506.789C1392.34 -515.381 1391.41 -523.974 1390.37 -532.466C1390.13 -534.364 1389.67 -536.363 1389.67 -538.261C1384.79 -577.226 1367.26 -612.795 1334.76 -640.57C1321.87 -651.66 1306.2 -663.65 1296.1 -674.44C1277.87 -693.823 1268.12 -716.903 1257.09 -739.682C1240.72 -773.253 1214.37 -793.935 1182.21 -819.512C1144.83 -849.286 1108.26 -884.754 1078.89 -922.421C1066.81 -938.007 1051.14 -958.888 1053.69 -979.071C1056.48 -1000.45 1070.88 -1022.33 1084.58 -1040.52C1097.23 -1057.4 1107.68 -1072.39 1116.15 -1085.68C1143.43 -1128.64 1146.92 -1178.19 1144.48 -1226.05C1142.62 -1262.62 1142.62 -1296.89 1154.23 -1332.16C1161.66 -1354.84 1170.6 -1376.62 1181.05 -1398.4C1187.67 -1412.19 1193.7 -1426.17 1199.04 -1440.36C1200.55 -1444.36 1202.06 -1448.36 1203.69 -1452.35C1205.31 -1456.35 1206.94 -1460.44 1208.56 -1464.44C1210.19 -1468.44 1211.93 -1472.43 1213.67 -1476.53C1215.41 -1480.53 1217.15 -1484.52 1218.78 -1488.62C1220.52 -1492.62 1222.26 -1496.71 1224 -1500.71C1225.74 -1504.71 1227.49 -1508.8 1229.11 -1512.8C1230.85 -1516.79 1232.48 -1520.89 1234.1 -1524.89C1235.73 -1528.98 1237.35 -1532.98 1238.98 -1537.08C1240.6 -1541.17 1242.11 -1545.17 1243.51 -1549.27C1245.02 -1553.36 1246.41 -1557.46 1247.8 -1561.55C1249.2 -1565.65 1250.47 -1569.75 1251.63 -1573.94C1252.91 -1578.04 1253.96 -1582.24 1255.12 -1586.33C1256.16 -1590.53 1257.21 -1594.63 1258.02 -1598.82C1258.95 -1603.02 1259.64 -1607.21 1260.34 -1611.41C1261.04 -1615.81 1261.62 -1620.3 1261.97 -1624.7C1262.31 -1628.9 1262.55 -1633.09 1262.78 -1637.29C1262.89 -1641.48 1263.01 -1645.68 1263.01 -1649.78C1263.01 -1653.87 1262.78 -1658.07 1262.55 -1662.17C1262.31 -1666.26 1261.85 -1670.36 1261.39 -1674.45C1260.92 -1678.55 1260.22 -1682.65 1259.53 -1686.64C1258.72 -1690.74 1257.9 -1694.74 1256.86 -1698.73C1255.81 -1702.73 1254.65 -1706.73 1253.37 -1710.72C1252.1 -1714.72 1250.59 -1718.72 1248.96 -1722.61C1247.34 -1726.61 1245.6 -1730.51 1243.62 -1734.4C1243.16 -1735.4 1242.58 -1736.5 1242 -1737.5C1241.77 -1738 1241.42 -1738.5 1241.19 -1739C1241.07 -1739.2 1240.49 -1740.5 1240.37 -1740.5C1230.85 -1758.08 1223.31 -1770.57 1217.5 -1777.86C1197.88 -1803.04 1178.73 -1828.62 1160.27 -1854.5C1149.24 -1869.88 1137.63 -1884.17 1125.79 -1898.76C1116.62 -1910.15 1110.35 -1916.04 1096.88 -1921.74C1077.96 -1929.63 1056.13 -1939.62 1031.29 -1951.71C1000.41 -1966.7 980.091 -1983.78 950.371 -2006.96C941.896 -2013.55 934.698 -2018.35 925.643 -2022.95C925.295 -2023.15 924.83 -2022.75 925.062 -2022.45C932.492 -2012.66 939.806 -2002.66 946.888 -1992.57C953.273 -1983.48 958.381 -1977.09 962.096 -1973.19C991.816 -1942.72 1035.82 -1927.13 1075.64 -1909.65C1094.21 -1901.55 1108.72 -1890.76 1119.17 -1877.48C1128.57 -1865.59 1139.6 -1850 1152.61 -1830.62C1171.76 -1802.04 1190.45 -1773.27 1208.8 -1744.29C1211.12 -1740.7 1213.32 -1737.1 1215.41 -1733.5C1217.5 -1729.91 1219.48 -1726.31 1221.45 -1722.61C1223.31 -1719.02 1225.05 -1715.42 1226.79 -1711.72C1228.41 -1708.13 1229.92 -1704.43 1231.43 -1700.73C1232.83 -1697.03 1234.1 -1693.44 1235.26 -1689.64C1236.43 -1685.94 1237.47 -1682.25 1238.28 -1678.45C1239.21 -1674.65 1239.91 -1670.86 1240.49 -1667.06C1241.07 -1663.26 1241.53 -1659.37 1241.88 -1655.47C1242.23 -1651.58 1242.35 -1647.58 1242.35 -1643.68C1242.35 -1639.69 1242.11 -1635.59 1241.88 -1631.59C1241.53 -1627.5 1241.19 -1623.3 1240.37 -1619.2C1239.44 -1614.81 1238.17 -1610.61 1237.01 -1606.32C1235.73 -1602.02 1234.57 -1597.72 1233.17 -1593.43C1231.9 -1589.13 1230.5 -1584.93 1229.11 -1580.64C1227.72 -1576.34 1226.21 -1572.15 1224.7 -1567.95C1223.19 -1563.75 1221.68 -1559.46 1220.06 -1555.26C1218.43 -1551.06 1216.81 -1546.87 1215.18 -1542.67C1213.44 -1538.48 1211.7 -1534.28 1209.96 -1530.18C1208.21 -1525.99 1206.36 -1521.89 1204.5 -1517.79C1203.69 -1515.9 1202.76 -1514 1201.83 -1512.1C1193.35 -1493.81 1184.65 -1475.63 1175.94 -1457.45C1164.1 -1432.97 1158.87 -1408.99 1148.77 -1383.81C1143.2 -1369.92 1136.58 -1354.74 1128.92 -1338.35C1116.97 -1312.78 1112.09 -1285.9 1114.29 -1257.72C1115.34 -1244.24 1116.62 -1230.85 1118.13 -1217.36C1123.12 -1172.5 1116.5 -1130.44 1090.15 -1091.07C1080.63 -1076.78 1070.41 -1062.7 1062.87 -1050.31C1052.18 -1032.72 1042.55 -1014.74 1034.07 -996.355C1030.59 -988.862 1028.5 -984.166 1027.81 -982.268C1016.43 -950.696 1048.24 -909.932 1071.34 -886.553C1102.34 -855.28 1137.86 -827.405 1172.69 -799.43C1190.57 -785.042 1206.82 -769.656 1218.31 -750.873C1227.49 -735.986 1236.66 -719.301 1245.83 -706.112C1264.29 -679.536 1287.74 -656.656 1310.61 -632.977C1324.54 -618.59 1335.34 -601.405 1343.35 -583.221C1346.83 -575.228 1350.08 -567.135 1352.87 -558.943C1355.65 -550.75 1358.09 -542.457 1360.3 -534.065C1362.39 -525.672 1364.24 -517.28 1365.64 -508.787C1367.15 -500.295 1368.31 -491.802 1369.12 -483.21C1369.93 -474.717 1370.51 -466.125 1370.86 -457.532C1371.09 -448.94 1371.09 -440.448 1370.86 -431.855C1370.63 -422.963 1370.17 -413.971 1369.12 -405.179C1368.19 -396.187 1366.68 -387.295 1364.82 -378.502C1362.97 -369.61 1360.65 -360.718 1357.98 -352.026C1357.86 -351.526 1357.63 -350.927 1357.51 -350.427C1345.55 -311.861 1329.42 -270.598 1343.23 -230.533C1356.35 -192.267 1356 -157.099 1351.59 -118.133C1346.6 -74.2719 1341.84 -35.5061 1337.08 -1.6361C1334.29 18.4461 1330.93 36.0303 1326.86 51.2169C1317.57 86.1859 1302.6 115.46 1284.49 148.531C1274.16 167.414 1266.38 184.999 1259.76 204.182C1257.21 211.775 1255.58 217.869 1254.88 222.465C1252.56 239.45 1257.67 257.135 1264.17 273.42C1272.3 293.602 1281.7 313.285 1292.5 332.468C1305.97 356.247 1322.33 378.727 1334.06 403.205C1346.6 429.282 1358.67 455.259 1374 480.337C1383.28 495.623 1394.08 510.11 1408.71 522C1409.52 521.8 1410.1 521.5 1409.99 521.101Z" fill="#474747" fill-opacity="0.5"/>
<path d="M975.83 -148.193C963.429 -174.556 955.663 -202.517 952.997 -230.777C948.129 -281.605 949.636 -334.531 954.388 -385.359C956.938 -412.821 960.647 -441.581 948.245 -466.945C925.644 -513.08 863.752 -527.959 812.175 -537.146C798.846 -539.543 786.328 -544.935 776.245 -552.824C771.261 -556.719 766.972 -561.312 763.148 -566.105C755.034 -576.591 748.892 -588.374 744.487 -600.258C739.967 -612.341 737.185 -624.823 735.563 -637.405C734.056 -648.789 733.476 -660.273 733.476 -671.757C733.361 -724.183 736.722 -780.704 716.671 -830.234C710.18 -846.112 696.735 -868.98 694.649 -888.253C693.838 -895.543 693.258 -912.519 692.679 -939.082C692.099 -967.641 692.099 -995.203 679.813 -1022.26C666.021 -1052.62 651.649 -1080.48 647.013 -1113.14C645.274 -1125.22 644.347 -1136.9 644.115 -1148.09C643.42 -1189.63 642.145 -1225.18 636.929 -1263.63C635.422 -1274.51 632.525 -1286.89 621.63 -1292.68C620.007 -1293.48 618.037 -1292.68 617.689 -1291.19C617.573 -1290.39 617.225 -1289.49 617.341 -1288.49C620.587 -1263.53 624.064 -1240.56 622.673 -1213.8C621.862 -1197.62 618.732 -1176.05 617.573 -1161.67C614.56 -1121.13 623.6 -1082.68 640.638 -1045.03C656.749 -1009.38 667.296 -984.418 668.455 -950.865C669.614 -915.315 668.571 -883.759 683.87 -851.005C685.956 -846.512 690.94 -836.925 698.821 -822.246C715.048 -791.988 715.859 -760.432 711.571 -727.379C709.021 -707.806 707.514 -695.024 707.051 -688.933C704.848 -660.772 707.514 -631.713 715.28 -601.756C718.177 -590.372 722.697 -579.287 729.188 -569.101C735.563 -558.916 743.908 -549.629 754.223 -542.239C759.439 -538.544 765.234 -535.449 771.377 -532.852C784.822 -527.16 799.425 -524.364 814.029 -521.968C828.285 -519.671 842.773 -517.674 856.682 -513.779C897.827 -501.996 929.121 -475.034 936.075 -437.486C940.596 -413.021 936.539 -388.156 933.294 -363.59C927.035 -316.556 923.558 -268.923 929.817 -221.889C936.075 -174.855 952.302 -128.221 982.9 -88.8761C1005.85 -59.4175 1037.26 -32.6552 1043.98 2.39558C1051.28 40.542 1027.06 77.3903 1003.53 110.344C986.609 134.111 968.992 159.874 963.081 186.637C961.342 194.426 973.512 198.32 978.032 191.43C997.62 161.572 1020.92 133.312 1039 102.655C1062.29 63.1104 1076.55 16.2761 1059.51 -25.5651C1048.27 -53.1264 1024.74 -75.3951 1005.97 -99.661C993.795 -114.84 983.828 -131.216 975.83 -148.193Z" fill="#474747" fill-opacity="0.5"/>
<path d="M565.951 -1366.02C559.698 -1403.7 546.497 -1439.58 534.107 -1475.96C523.802 -1506.35 517.665 -1537.43 515.812 -1569.12C515.233 -1578.31 514.77 -1587.51 514.307 -1596.8C513.844 -1605.9 513.496 -1615 512.802 -1624.09C512.223 -1633.09 511.181 -1642.08 510.254 -1651.08C509.328 -1660.07 508.286 -1669.17 507.475 -1678.16C506.665 -1687.16 506.086 -1696.06 505.854 -1705.05C505.622 -1713.85 505.854 -1722.74 506.665 -1731.54C506.896 -1734.04 507.244 -1736.64 507.591 -1739.13C510.254 -1757.63 513.96 -1772.92 518.823 -1785.11C537.35 -1831.79 547.771 -1866.07 562.014 -1906.85C570.466 -1930.94 574.403 -1952.33 570.466 -1977.72C567.108 -1999.31 564.098 -2020.89 561.203 -2042.48C560.277 -2049.08 558.424 -2055.48 555.529 -2061.57C554.834 -2063.07 552.634 -2063.47 551.361 -2062.37C550.666 -2061.87 550.203 -2060.87 549.971 -2059.48C543.487 -2029.49 547.771 -1999.21 549.971 -1968.72C551.592 -1946.53 548.003 -1924.34 539.202 -1902.05C526.813 -1870.87 515.349 -1839.38 503.538 -1808C488.138 -1767.12 479.801 -1729.04 483.622 -1686.46C484.432 -1677.36 485.243 -1668.17 486.053 -1659.07C486.864 -1649.88 487.675 -1640.68 488.485 -1631.49C489.296 -1622.39 489.99 -1613.3 490.338 -1604.2C490.569 -1595.31 491.148 -1586.41 491.727 -1577.51C492.191 -1568.52 492.885 -1559.62 493.812 -1550.63C494.738 -1541.73 496.012 -1532.84 497.633 -1524.04C498.559 -1519.34 499.485 -1514.75 500.643 -1510.15C506.433 -1487.16 514.539 -1458.77 525.191 -1424.79C531.097 -1405.7 535.613 -1388.51 538.623 -1373.32C545.339 -1339.13 542.792 -1300.65 529.707 -1267.27C523.802 -1252.08 511.991 -1232.39 505.738 -1219.59C492.769 -1193.1 488.717 -1158.32 501.107 -1130.94C503.886 -1124.84 507.707 -1117.74 512.57 -1109.75C519.749 -1098.05 525.539 -1084.26 530.055 -1068.47C538.044 -1040.48 535.034 -1013.29 527.739 -984.708C521.949 -962.019 513.612 -935.233 502.612 -904.148C492.538 -875.762 484.085 -848.975 482.348 -819.69C480.611 -788.805 486.748 -761.119 478.759 -734.332C477.601 -730.334 474.59 -722.938 469.842 -712.243C463.011 -696.651 457.105 -681.159 453.516 -664.767C447.379 -637.181 445.41 -608.994 440.2 -581.208C436.957 -563.617 433.484 -546.126 430.705 -528.434C428.041 -511.543 426.073 -494.451 425.378 -477.36C424.799 -460.668 425.031 -443.377 428.273 -426.885C430.01 -417.989 431.978 -409.193 434.41 -400.498C436.726 -392.002 439.042 -383.606 440.315 -374.911C440.431 -374.011 440.547 -373.111 440.663 -372.212C443.21 -349.523 438.694 -328.533 434.757 -306.244C433.136 -297.049 433.136 -286.454 434.873 -274.36C438.578 -248.073 447.495 -220.687 454.558 -194.1C462.779 -163.015 462.432 -132.031 453.284 -101.146C448.189 -83.6548 442.979 -66.2634 437.652 -48.872C428.968 -19.7864 421.673 7.99974 423.294 37.2852C425.725 82.4628 450.852 122.543 463.242 165.622C467.758 181.314 469.727 197.906 468.916 215.397C466.832 263.373 428.968 300.155 397.819 337.137C367.018 373.618 355.323 413.099 354.744 458.077C354.513 474.369 354.397 490.66 354.281 506.952C354.165 534.239 349.534 562.825 343.744 593.809C341.197 607.203 339.807 614.999 339.576 616.998C336.797 642.385 344.092 665.873 361.229 687.563C362.85 689.662 363.545 689.462 363.082 686.963C358.797 663.875 357.408 643.085 363.892 620.096C372.924 588.212 382.419 556.328 385.198 522.845C386.472 507.652 386.008 489.761 386.472 473.169C387.977 423.394 401.062 377.317 432.326 335.237C449.231 312.549 468.8 289.16 480.495 265.372C502.496 220.594 495.78 170.819 476.79 126.141C469.264 108.35 463.358 93.957 459.074 83.1624C445.989 49.679 444.252 15.9957 453.979 -17.7876C457.453 -29.8816 463.59 -44.4744 468.916 -57.5679C488.138 -105.144 488.369 -151.421 476.558 -200.497C468.569 -233.581 462.432 -265.165 462.548 -299.948C462.548 -316.24 462.779 -332.632 462.548 -348.923C462.316 -364.216 461.737 -379.408 460 -394.601C458.032 -412.492 454.558 -430.283 452.937 -448.174C451.316 -466.365 451.084 -484.656 452.358 -502.847C452.705 -507.145 453.053 -511.443 453.516 -515.741C454.21 -521.638 456.411 -534.531 460.116 -554.322C463.59 -572.912 465.906 -590.803 468.106 -609.094C471.811 -638.78 477.832 -667.965 486.169 -696.951C491.959 -717.141 501.107 -738.33 503.538 -759.12C505.507 -776.012 504.117 -795.602 505.159 -811.094C507.707 -847.776 521.833 -884.858 533.413 -920.84C544.066 -953.923 551.708 -987.407 555.645 -1021.69C558.771 -1048.88 561.087 -1078.56 547.192 -1103.75C540.592 -1115.64 535.381 -1125.64 531.56 -1133.53C508.865 -1180.61 534.918 -1219.19 553.445 -1262.47C567.572 -1296.35 571.74 -1330.54 565.951 -1366.02Z" fill="#474747" fill-opacity="0.5"/>
<path d="M1622.09 -1619H1591.54C1596.96 -1604.91 1605.72 -1588.72 1610.1 -1577.82C1625.44 -1539.64 1629.24 -1498.47 1621.86 -1458.19C1620.36 -1449.79 1617.13 -1432.8 1612.06 -1407.12C1607.33 -1382.53 1605.49 -1352.65 1602.95 -1334.36C1598.34 -1300.37 1584.04 -1269.49 1569.63 -1237.21C1556.03 -1206.63 1550.84 -1178.64 1550.03 -1146.36C1549.45 -1125.37 1549.22 -1104.28 1549.11 -1083.29C1548.99 -1042.02 1546.46 -1000.44 1548.19 -959.662C1548.88 -944.47 1552.91 -926.48 1554.64 -913.087C1556.6 -897.596 1557.18 -880.205 1556.49 -860.916C1555.22 -825.635 1549.92 -790.754 1540.69 -756.373C1532.74 -726.689 1523.63 -696.906 1511.98 -668.122C1508.41 -659.426 1504.26 -648.832 1499.53 -636.439C1489.15 -609.554 1487.42 -584.468 1490.88 -556.683C1494.92 -524.5 1502.76 -492.918 1509.68 -461.135C1518.21 -422.256 1504.72 -383.078 1509.91 -343.999C1512.33 -325.61 1519.48 -306.12 1526.51 -288.13C1531.58 -275.137 1533.89 -265.542 1534.23 -253.049C1534.7 -229.762 1531.24 -209.173 1524.43 -186.386C1519.01 -168.296 1515.09 -149.906 1512.44 -131.316C1509.45 -109.428 1503.68 -90.8382 1496.42 -68.2506C1486.5 -37.5674 1482.35 -5.2852 1483.73 28.5962C1484.77 54.6819 1489.27 86.9643 1490.88 104.854C1493.07 128.641 1493.88 155.427 1493.3 185.21C1492.96 202.701 1490.77 221.19 1486.73 240.88C1481.43 266.566 1479.24 291.052 1481.2 317.138C1482.58 336.527 1486.39 357.416 1489.5 377.405C1496.3 421.98 1485 474.452 1459.41 513.73C1451.91 525.324 1444.65 536.917 1440.73 549.81C1435.54 566.901 1436.23 587.59 1438.42 605.38C1439.23 611.976 1440.04 618.673 1440.96 625.269C1441.76 631.965 1442.69 638.562 1443.49 645.258C1444.3 651.954 1444.99 658.651 1445.68 665.347C1446.38 672.043 1446.95 678.74 1447.41 685.436C1447.88 692.132 1448.22 698.829 1448.45 705.525C1448.68 712.221 1448.68 719.017 1448.57 725.714C1448.45 732.51 1448.11 739.306 1447.53 746.003C1446.95 752.799 1446.15 759.595 1445.11 766.391C1444.07 773.088 1442.8 779.784 1441.07 786.38C1439.34 792.977 1437.5 799.473 1435.77 806.07C1434.04 812.666 1432.43 819.263 1431.16 825.959C1429.89 832.555 1428.97 839.252 1428.62 845.948C1428.51 848.347 1428.39 850.745 1428.39 853.244C1428.39 876.931 1429.2 900.918 1427.58 924.605C1425.05 962.784 1419.51 1001.16 1413.4 1039.04C1412.48 1044.94 1410.98 1052.63 1408.9 1062.13C1395.88 1123 1393.57 1186.06 1398.18 1248.73C1400.72 1283.61 1402.79 1318.59 1404.29 1353.57C1405.33 1377.26 1408.1 1401.04 1416.63 1422.93C1423.2 1439.92 1428.51 1452.82 1431.96 1470.01C1435.77 1488.6 1439.92 1506.99 1444.65 1525.38C1446.95 1534.27 1450.07 1542.97 1454.1 1551.66C1454.91 1553.36 1455.83 1553.46 1456.98 1551.86C1457.21 1551.56 1457.45 1550.76 1457.68 1549.46C1459.64 1538.47 1460.21 1527.47 1459.41 1516.28C1457.1 1485.8 1449.26 1455.71 1442 1425.83C1438.07 1409.74 1435.31 1390.35 1433.69 1367.36C1430.58 1324.29 1427.47 1281.11 1424.24 1238.03C1421.93 1206.35 1420.78 1172.67 1422.16 1146.68C1423.09 1129.89 1424.24 1116.8 1425.74 1107.6C1438.88 1026.95 1449.14 952.49 1456.52 884.227C1458.14 868.935 1459.17 849.946 1459.41 827.358C1459.41 824.36 1459.64 821.262 1459.87 818.263C1460.21 813.266 1460.56 808.169 1461.02 803.171C1461.6 796.575 1462.17 789.979 1462.75 783.282C1463.33 776.486 1463.9 769.69 1464.13 762.893C1464.25 760.495 1464.25 758.096 1464.25 755.697C1464.48 714.02 1462.06 672.343 1457.1 630.866C1453.41 600.183 1447.53 570.999 1463.44 541.815C1477.05 516.928 1490.88 493.241 1501.03 466.056C1512.9 434.174 1515.56 400.592 1510.02 367.71C1503.68 329.531 1501.14 292.152 1508.18 256.371C1512.44 234.783 1515.09 221.191 1516.02 215.794C1519.94 193.806 1521.44 171.718 1521.67 149.63C1521.9 133.939 1520.86 119.646 1518.55 106.753C1515.44 89.3628 1511.75 70.873 1510.83 54.0822C1509.33 26.5973 1512.21 -1.48737 1519.48 -29.9717C1529.51 -69.1503 1536.43 -92.5373 1543.34 -130.816C1547.96 -156.402 1552.45 -181.988 1556.83 -207.574C1562.25 -239.357 1562.02 -267.841 1551.88 -298.924C1548.3 -310.018 1544.73 -321.112 1541.27 -332.106C1530.66 -365.887 1535.39 -399.769 1534 -434.15C1532.62 -469.63 1520.86 -503.912 1511.17 -538.093C1510.83 -539.492 1510.37 -540.792 1510.02 -542.191C1502.99 -567.277 1500.57 -594.962 1510.94 -619.149C1511.52 -620.648 1515.09 -627.244 1521.67 -638.938C1531.35 -656.228 1538.39 -674.318 1542.77 -693.208C1550.84 -727.889 1558.56 -750.277 1566.75 -778.861C1576.66 -813.242 1578.86 -848.323 1577.7 -883.603C1576.2 -927.379 1573.09 -970.956 1571.82 -1014.73C1570.78 -1050.41 1569.75 -1086.19 1568.71 -1121.87C1567.67 -1155.75 1574.7 -1188.44 1589.58 -1219.72C1608.14 -1258.7 1621.29 -1285.68 1626.59 -1320.86C1629.01 -1337.25 1631.09 -1357.74 1634.2 -1374.83C1637.66 -1394.02 1642.38 -1415.91 1648.38 -1440.5C1663.37 -1500.86 1652.19 -1563.73 1622.09 -1619Z" fill="#474747" fill-opacity="0.5"/>
<path d="M1376.56 566.32C1349.67 544.177 1331.45 519.641 1317.95 490.217C1303.29 458.399 1290.95 427.08 1268.57 397.955C1259.45 386.086 1247.11 374.117 1235.92 362.546C1223.57 349.879 1213.3 334.818 1204.88 317.264C1181.23 268.091 1174.42 211.736 1196.11 160.967C1207.19 135.034 1224.15 117.48 1244.8 92.544C1255.3 79.8768 1262.11 66.2121 1265.34 51.6497C1265.8 49.7546 1266.84 41.9747 1268.68 28.4097C1270.87 12.4509 1272.84 -4.4055 1275.49 -19.4666C1279.41 -41.7091 1284.14 -63.8519 1289.68 -85.7952C1294.06 -103.25 1295.91 -120.904 1294.99 -138.758C1294.3 -153.021 1289.56 -178.057 1288.18 -192.42C1286.33 -211.271 1288.07 -230.122 1293.14 -248.674C1293.14 -248.874 1293.37 -249.073 1293.72 -248.973C1293.95 -248.973 1294.18 -248.774 1294.18 -248.575C1297.53 -215.759 1305.83 -183.044 1313.79 -150.727C1316.22 -140.653 1317.72 -132.973 1318.06 -127.687C1319.45 -106.342 1312.75 -79.8105 1309.41 -63.6522C1303.06 -32.9316 1298.79 -2.11135 1296.37 29.0083C1294.64 50.7521 1287.72 70.9 1275.37 89.3523C1269.72 97.8304 1258.18 113.191 1249.53 124.96C1214.8 172.438 1199.23 228.792 1218.38 283.65C1227.26 308.985 1240.76 336.813 1258.99 356.562C1272.37 370.925 1280.8 380.101 1284.49 383.891C1302.03 402.344 1314.6 423.19 1322.1 446.23C1334.79 485.429 1344.02 521.037 1379.9 548.965C1389.48 556.446 1408.98 569.312 1412.9 579.985C1413.36 581.381 1412.21 582.877 1410.48 582.977C1400.21 583.575 1384.05 572.404 1376.56 566.32Z" fill="#474747" fill-opacity="0.5"/>
<path d="M1681.88 779.167C1680.27 776.073 1678.54 772.978 1676.82 769.884C1672.67 762.397 1669.33 754.51 1665.3 747.024C1658.84 735.045 1651.47 723.365 1642.26 712.784C1621.29 688.626 1586.73 669.16 1579.93 637.516C1578.9 632.624 1578.67 624.838 1579.24 614.157C1580.85 583.411 1583.96 552.765 1588.46 522.218C1591.8 499.558 1597.9 476.698 1608.62 456.633C1615.41 443.955 1628.55 425.089 1635.34 410.015C1639.61 400.632 1642.83 391.248 1645.02 381.964C1652.16 351.817 1657.12 328.059 1671.4 303.003C1677.74 291.822 1687.87 278.645 1696.28 266.667C1708.38 249.097 1714.14 230.031 1713.56 209.367C1712.99 186.208 1711.38 162.849 1711.49 139.989C1711.49 121.222 1713.33 98.0624 1713.79 83.2883C1714.03 74.903 1712.76 13.1113 1697.78 14.0097C1697.32 14.0097 1696.98 14.2093 1696.75 14.5088C1695.25 16.5053 1694.33 18.402 1693.98 20.2987C1689.03 42.1604 1687.53 64.6211 1689.72 87.5808C1692.94 123.318 1695.59 151.968 1694.56 184.311C1693.87 206.572 1690.29 227.435 1677.74 246.801C1673.24 253.789 1665.41 263.572 1660.57 271.259C1651.59 285.733 1643.98 302.104 1637.65 320.272C1630.39 341.036 1623.13 361.7 1615.76 382.463C1609.31 400.532 1596.52 419.698 1588.57 437.267C1580.16 455.735 1573.94 474.801 1570.26 494.467C1563.34 530.204 1556.43 565.841 1550.67 601.778C1545.72 632.425 1550.9 664.768 1578.09 685.731C1591.8 696.313 1604.24 708.192 1615.41 720.87C1626.47 733.547 1636.27 747.024 1645.14 760.999C1654.7 776.172 1662.88 792.045 1670.36 808.216C1671.29 810.213 1672.21 812.309 1673.13 814.306C1684.88 841.059 1690.52 868.91 1689.95 898.059C1689.83 903.25 1690.29 908.74 1689.83 913.831C1682.69 986.803 1681.19 1045.1 1683.15 1111.18C1683.61 1125.16 1684.65 1138.94 1686.26 1152.61C1686.26 1153.11 1687.07 1153.11 1687.18 1152.71C1698.47 1127.46 1702.97 1102.9 1703.43 1075.95C1704 1043.9 1705.39 1016.75 1707.69 994.689C1709.42 977.819 1711.26 960.948 1712.41 944.078C1713.68 927.108 1714.37 910.038 1713.79 893.067C1713.22 876.197 1711.38 859.327 1707.57 842.656C1703.66 825.586 1697.21 809.314 1689.37 793.442C1686.84 788.75 1684.42 783.959 1681.88 779.167Z" fill="#474747" fill-opacity="0.5"/>
<path d="M1378.08 116.341C1385.73 119.12 1381.16 147.607 1379.34 153.364C1371.57 178.774 1361.64 203.291 1375.68 229.197C1380.48 238.031 1389.27 248.652 1393.49 256.692C1398.86 266.915 1401.83 277.734 1402.4 289.248C1403.77 321.209 1416.21 347.314 1429.68 376.297C1438.7 395.653 1443.38 417.588 1447.49 438.73C1447.95 441.41 1448.18 444.19 1447.84 446.969C1447.61 448.755 1445.21 449.649 1443.61 448.458C1434.25 441.609 1428.2 426.82 1424.55 416.298C1417.81 397.241 1411.99 382.65 1406.96 372.327C1395.89 349.597 1385.84 328.356 1382.99 306.221C1380.82 288.851 1382.76 271.679 1371.34 254.309C1365.18 244.979 1358.1 236.244 1353.99 225.624C1340.75 191.181 1356.62 155.747 1369.63 123.488C1371 120.212 1373.17 114.554 1378.08 116.341Z" fill="#474747" fill-opacity="0.5"/>
<path d="M1306.71 855.26C1340.94 804.301 1356.03 737.454 1325.51 682.498C1324.47 680.599 1320.17 673.705 1312.63 661.814C1290.35 626.542 1269.7 590.271 1242.43 557.497C1232.1 545.107 1219.45 532.317 1207.5 519.927C1188.12 499.943 1175.48 473.664 1162.71 449.284C1148.09 421.206 1130.57 400.223 1097.62 386.534C1079.98 379.239 1061.76 372.545 1045.17 362.553C1010.59 341.769 978.794 313.092 953.034 284.415C931.219 260.234 921.472 233.855 919.615 203.38C918.455 185.494 919.383 164.011 922.168 138.931C924.141 121.345 927.738 103.959 933.076 86.9724C943.403 53.3992 955.587 22.2239 947.58 -8.55158C939.806 -38.4278 913.814 -69.3031 891.767 -92.6845C873.549 -111.969 856.376 -131.853 837.578 -150.638C819.94 -168.124 802.883 -186.21 788.494 -205.894C771.437 -229.276 758.325 -255.155 754.612 -282.733C751.131 -309.112 755.888 -335.591 756.584 -361.97C757.164 -385.951 752.871 -408.933 739.295 -430.216C729.896 -445.004 716.9 -457.894 706.921 -472.382C683.481 -506.055 674.082 -545.424 665.031 -583.893C656.213 -621.563 647.278 -660.032 652.151 -698.202C655.865 -726.679 667.236 -754.557 666.192 -783.134C665.148 -812.611 650.991 -840.489 636.138 -867.067C631.381 -875.661 626.391 -884.254 621.402 -892.847C615.136 -903.538 596.454 -895.944 602.024 -885.053C620.706 -848.782 644.377 -813.21 644.957 -774.142C645.421 -747.363 634.862 -721.484 630.337 -695.005C623.49 -654.437 631.033 -613.07 642.404 -573.302C656.097 -525.34 674.895 -476.279 704.948 -434.013C714.347 -420.823 727.807 -406.834 733.029 -391.846C738.018 -377.358 736.278 -360.471 734.653 -345.583C732.449 -325.599 727.923 -305.515 729.78 -285.531C732.101 -259.552 744.865 -235.771 759.021 -213.189C772.365 -192.005 788.378 -172.121 805.32 -152.937C806.132 -151.937 807.06 -151.038 807.872 -150.039C825.742 -130.055 844.54 -110.67 862.642 -90.7861C879.931 -71.7013 899.309 -51.8172 909.868 -29.3351C914.858 -18.8434 918.223 -7.75227 919.267 3.63865C921.472 27.8194 914.626 55.2976 908.94 78.9788C896.408 130.138 889.33 179.499 897.22 230.058C902.21 262.333 916.25 290.111 940.966 315.29C974.269 349.064 1013.72 378.14 1060.14 395.826C1083.92 404.919 1105.39 412.313 1120.71 430.998C1122.68 433.396 1127.09 440.291 1133.82 451.482C1142.29 465.571 1151.69 479.06 1162.36 492.05C1172.57 504.44 1188.01 520.027 1198.1 531.518C1223.28 560.195 1243.71 590.671 1263.78 622.146C1280.26 648.125 1299.87 673.105 1310.43 701.583C1322.03 732.858 1316.34 763.034 1305.9 794.009C1290 840.672 1260.76 883.238 1241.15 928.702C1235.23 942.591 1231.06 953.981 1228.74 962.874C1221.31 992.251 1225.26 1022.63 1228.27 1053.1C1231.64 1086.78 1227.23 1120.65 1217.95 1153.82C1207.27 1191.99 1198.92 1218.67 1191.02 1259.44C1186.38 1282.92 1176.17 1301.4 1159.93 1320.69C1139.85 1344.57 1118.04 1367.15 1107.25 1395.43C1104.93 1401.53 1103.42 1411.62 1103.65 1422.01C1104 1433 1122.33 1434.4 1125 1423.51C1128.25 1410.12 1133.93 1397.13 1141.94 1383.64C1157.95 1356.66 1177.56 1331.28 1194.04 1304.5C1205.18 1286.22 1214.93 1267.13 1220.61 1246.95C1226.18 1227.56 1227.11 1207.48 1233.38 1188.1C1238.95 1170.91 1244.17 1153.72 1249.28 1136.54C1256.12 1113.15 1256.01 1092.47 1252.52 1068.49C1249.97 1050.8 1248.35 1037.02 1247.88 1027.12C1246.61 1004.44 1246.61 982.858 1254.26 962.375C1267.61 926.903 1283.74 889.433 1306.71 855.26Z" fill="#474747" fill-opacity="0.5"/>
<path d="M1409.99 1721.1C1405.11 1703.52 1398.72 1690.03 1388.86 1671.15C1380.61 1655.36 1373.3 1639.27 1366.91 1622.79C1356.23 1595.31 1346.48 1568.04 1330 1542.66C1324.08 1533.57 1315.14 1522.48 1307.94 1512.19C1296.68 1496.2 1288.55 1479.12 1283.33 1460.93C1277.52 1440.55 1280.31 1420.77 1287.27 1400.78C1297.03 1372.81 1311.31 1346.63 1325.24 1320.16C1347.88 1277.19 1359.14 1229.64 1363.55 1182.88C1370.05 1115.54 1379.1 1045.7 1372.37 977.16C1369.82 951.482 1368.54 932.799 1368.54 921.109C1368.54 906.023 1370.05 892.634 1373.07 880.745C1375.39 871.853 1377.6 863.061 1379.68 854.169C1381.77 845.276 1383.86 836.384 1385.72 827.492C1387.58 818.6 1389.2 809.808 1390.6 800.816C1391.99 791.724 1393.15 782.632 1393.85 773.54C1394.54 764.648 1395.01 755.656 1395.13 746.764C1395.24 737.772 1395.13 728.78 1394.78 719.788C1394.43 710.895 1393.85 702.103 1393.04 693.211C1392.34 684.619 1391.41 676.026 1390.37 667.534C1390.13 665.636 1389.67 663.637 1389.67 661.739C1384.79 622.773 1367.26 587.205 1334.76 559.43C1321.87 548.339 1306.2 536.35 1296.1 525.559C1277.87 506.177 1268.12 483.097 1257.09 460.317C1240.72 426.747 1214.37 406.065 1182.21 380.488C1144.83 350.714 1108.26 315.246 1078.89 277.579C1066.81 261.993 1051.14 241.111 1053.69 220.929C1056.48 199.548 1070.88 177.668 1084.58 159.484C1097.23 142.599 1107.68 127.612 1116.15 114.324C1143.43 71.3619 1146.92 21.8058 1144.48 -26.0519C1142.62 -62.6195 1142.62 -96.8891 1154.23 -132.158C1161.66 -154.838 1170.6 -176.619 1181.05 -198.399C1187.67 -212.187 1193.7 -226.175 1199.04 -240.362C1200.55 -244.359 1202.06 -248.355 1203.69 -252.351C1205.31 -256.348 1206.94 -260.444 1208.56 -264.441C1210.19 -268.437 1211.93 -272.434 1213.67 -276.53C1215.41 -280.526 1217.15 -284.523 1218.78 -288.619C1220.52 -292.616 1222.26 -296.712 1224 -300.709C1225.74 -304.705 1227.49 -308.801 1229.11 -312.798C1230.85 -316.794 1232.48 -320.891 1234.1 -324.887C1235.73 -328.984 1237.35 -332.98 1238.98 -337.076C1240.6 -341.173 1242.11 -345.169 1243.51 -349.266C1245.02 -353.362 1246.41 -357.458 1247.8 -361.555C1249.2 -365.651 1250.47 -369.747 1251.63 -373.944C1252.91 -378.04 1253.96 -382.237 1255.12 -386.333C1256.16 -390.529 1257.21 -394.626 1258.02 -398.822C1258.95 -403.018 1259.64 -407.214 1260.34 -411.411C1261.04 -415.807 1261.62 -420.303 1261.97 -424.699C1262.31 -428.895 1262.55 -433.091 1262.78 -437.288C1262.89 -441.484 1263.01 -445.68 1263.01 -449.777C1263.01 -453.873 1262.78 -458.069 1262.55 -462.166C1262.31 -466.262 1261.85 -470.358 1261.39 -474.455C1260.92 -478.551 1260.22 -482.647 1259.53 -486.644C1258.72 -490.74 1257.9 -494.737 1256.86 -498.733C1255.81 -502.73 1254.65 -506.726 1253.37 -510.723C1252.1 -514.719 1250.59 -518.716 1248.96 -522.612C1247.34 -526.609 1245.6 -530.505 1243.62 -534.402C1243.16 -535.401 1242.58 -536.5 1242 -537.499C1241.77 -537.999 1241.42 -538.498 1241.19 -538.998C1241.07 -539.198 1240.49 -540.496 1240.37 -540.496C1230.85 -558.081 1223.31 -570.57 1217.5 -577.863C1197.88 -603.041 1178.73 -628.618 1160.27 -654.495C1149.24 -669.882 1137.63 -684.169 1125.79 -698.756C1116.62 -710.146 1110.35 -716.041 1096.88 -721.736C1077.96 -729.629 1056.13 -739.62 1031.29 -751.709C1000.41 -766.696 980.091 -783.781 950.371 -806.96C941.896 -813.555 934.698 -818.35 925.643 -822.946C925.295 -823.146 924.83 -822.746 925.062 -822.447C932.492 -812.655 939.806 -802.664 946.888 -792.573C953.273 -783.481 958.381 -777.087 962.096 -773.19C991.816 -742.717 1035.82 -727.131 1075.64 -709.646C1094.21 -701.554 1108.72 -690.763 1119.17 -677.475C1128.57 -665.585 1139.6 -649.999 1152.61 -630.617C1171.76 -602.042 1190.45 -573.267 1208.8 -544.293C1211.12 -540.696 1213.32 -537.099 1215.41 -533.503C1217.5 -529.906 1219.48 -526.309 1221.45 -522.612C1223.31 -519.015 1225.05 -515.419 1226.79 -511.722C1228.41 -508.125 1229.92 -504.428 1231.43 -500.732C1232.83 -497.035 1234.1 -493.438 1235.26 -489.641C1236.43 -485.945 1237.47 -482.248 1238.28 -478.451C1239.21 -474.655 1239.91 -470.858 1240.49 -467.061C1241.07 -463.265 1241.53 -459.368 1241.88 -455.472C1242.23 -451.575 1242.35 -447.579 1242.35 -443.682C1242.35 -439.686 1242.11 -435.589 1241.88 -431.593C1241.53 -427.496 1241.19 -423.3 1240.37 -419.204C1239.44 -414.808 1238.17 -410.611 1237.01 -406.315C1235.73 -402.019 1234.57 -397.723 1233.17 -393.426C1231.9 -389.13 1230.5 -384.934 1229.11 -380.638C1227.72 -376.342 1226.21 -372.145 1224.7 -367.949C1223.19 -363.753 1221.68 -359.457 1220.06 -355.26C1218.43 -351.064 1216.81 -346.868 1215.18 -342.672C1213.44 -338.475 1211.7 -334.279 1209.96 -330.183C1208.21 -325.986 1206.36 -321.89 1204.5 -317.793C1203.69 -315.895 1202.76 -313.997 1201.83 -312.099C1193.35 -293.815 1184.65 -275.631 1175.94 -257.447C1164.1 -232.969 1158.87 -208.99 1148.77 -183.812C1143.2 -169.925 1136.58 -154.738 1128.92 -138.353C1116.97 -112.775 1112.09 -85.8988 1114.29 -57.7238C1115.34 -44.2357 1116.62 -30.8477 1118.13 -17.3596C1123.12 27.5007 1116.5 69.5633 1090.15 108.928C1080.63 123.216 1070.41 137.303 1062.87 149.692C1052.18 167.277 1042.55 185.261 1034.07 203.645C1030.59 211.138 1028.5 215.834 1027.81 217.732C1016.43 249.304 1048.24 290.068 1071.34 313.448C1102.34 344.72 1137.86 372.595 1172.69 400.57C1190.57 414.958 1206.82 430.344 1218.31 449.127C1227.49 464.014 1236.66 480.699 1245.83 493.888C1264.29 520.464 1287.74 543.344 1310.61 567.023C1324.54 581.41 1335.34 598.595 1343.35 616.779C1346.83 624.772 1350.08 632.865 1352.87 641.057C1355.65 649.25 1358.09 657.543 1360.3 665.935C1362.39 674.328 1364.24 682.72 1365.64 691.213C1367.15 699.705 1368.31 708.198 1369.12 716.79C1369.93 725.283 1370.51 733.875 1370.86 742.467C1371.09 751.06 1371.09 759.552 1370.86 768.145C1370.63 777.037 1370.17 786.029 1369.12 794.821C1368.19 803.813 1366.68 812.705 1364.82 821.498C1362.97 830.39 1360.65 839.282 1357.98 847.974C1357.86 848.474 1357.63 849.073 1357.51 849.573C1345.55 888.138 1329.42 929.402 1343.23 969.466C1356.35 1007.73 1356 1042.9 1351.59 1081.87C1346.6 1125.73 1341.84 1164.49 1337.08 1198.36C1334.29 1218.45 1330.93 1236.03 1326.86 1251.22C1317.57 1286.19 1302.6 1315.46 1284.49 1348.53C1274.16 1367.41 1266.38 1385 1259.76 1404.18C1257.21 1411.77 1255.58 1417.87 1254.88 1422.47C1252.56 1439.45 1257.67 1457.13 1264.17 1473.42C1272.3 1493.6 1281.7 1513.29 1292.5 1532.47C1305.97 1556.25 1322.33 1578.73 1334.06 1603.21C1346.6 1629.28 1358.67 1655.26 1374 1680.34C1383.28 1695.62 1394.08 1710.11 1408.71 1722C1409.52 1721.8 1410.1 1721.5 1409.99 1721.1Z" fill="#474747" fill-opacity="0.5"/>
<path d="M1116.61 707.74C1096.1 687.61 1081 660.771 1057.96 639.655C1030.65 614.691 995.961 599.101 962.198 581.932C944.683 572.952 928.435 561.605 918.179 546.508C917.603 545.719 918.525 544.831 919.446 545.028C924.286 546.113 929.126 547.593 934.081 549.665C976.717 567.131 1017.28 587.753 1053.35 613.211C1074.55 628.111 1092.18 644.885 1103.7 666.396C1109.81 677.842 1114.31 691.557 1116.96 707.74C1117.07 708.036 1116.96 708.134 1116.61 707.74Z" fill="#474747" fill-opacity="0.5"/>
<path d="M1192.29 673.966C1189.73 666.076 1186.71 658.286 1183 650.696C1177.31 638.712 1170.22 627.327 1161.75 616.64C1138.06 587.078 1104.27 564.508 1069.08 545.233C1033.43 525.658 995.571 508.879 962.591 486.109C865.742 419.595 858.543 302.046 860.517 203.474C862.259 116.086 867.716 24.305 822.079 -53.7942C780.506 -124.902 698.056 -181.629 690.392 -260.927C688.07 -285.296 693.179 -309.864 690.74 -334.232C685.631 -384.168 657.993 -434.902 639.761 -482.141L598.42 -588.903C593.659 -601.188 572.176 -596.294 575.311 -583.61C577.75 -573.723 581.582 -563.936 585.879 -554.648C598.536 -527.583 616.304 -502.115 624.781 -473.952C632.677 -447.586 631.981 -419.822 640.109 -393.556C646.032 -374.28 656.599 -356.204 661.593 -336.629C669.722 -304.67 662.406 -271.214 667.747 -238.855C678.083 -175.637 733.939 -131.893 768.545 -78.8619C805.821 -21.7357 832.298 41.6824 835.317 107.597C837.756 159.43 825.795 211.363 830.092 263.196C834.272 314.231 854.014 363.167 873.523 411.505C883.161 435.474 893.148 459.843 911.031 479.917C952.837 527.156 1027.74 541.138 1083.48 576.093C1152.11 619.137 1188.92 696.837 1174.64 768.844C1165.81 813.686 1139.34 854.233 1118.78 896.079C1106.82 920.448 1096.83 946.514 1093.47 972.681C1092.42 980.67 1105.77 982.967 1108.45 975.277C1124.12 929.836 1154.9 887.89 1176.96 844.945C1192.75 814.085 1202.39 785.223 1202.97 751.366C1203.32 725.5 1200.42 699.134 1192.29 673.966Z" fill="#474747" fill-opacity="0.5"/>
<path d="M1093.94 1053.1C1080.01 1026.7 1071.29 998.699 1068.3 970.399C1062.83 919.499 1064.52 866.499 1069.86 815.599C1072.72 788.099 1076.89 759.299 1062.96 733.899C1037.58 687.699 968.077 672.799 910.158 663.599C895.19 661.199 881.133 655.799 869.81 647.899C864.213 643.999 859.397 639.399 855.102 634.599C845.991 624.099 839.093 612.299 834.147 600.399C829.071 588.299 825.948 575.799 824.125 563.199C822.433 551.799 821.783 540.299 821.783 528.799C821.653 476.299 825.427 419.699 802.91 370.099C795.622 354.199 780.524 331.299 778.181 311.999C777.27 304.699 776.619 287.699 775.968 261.099C775.317 232.499 775.318 204.899 761.521 177.799C746.033 147.399 729.894 119.499 724.687 86.7994C722.735 74.6994 721.694 62.9994 721.434 51.7994C720.653 10.1994 719.221 -25.4005 713.364 -63.9005C711.672 -74.8005 708.418 -87.2006 696.183 -93.0006C694.361 -93.8006 692.149 -93.0006 691.758 -91.5006C691.628 -90.7006 691.238 -89.8007 691.368 -88.8007C695.012 -63.8007 698.917 -40.8006 697.355 -14.0006C696.444 2.19939 692.93 23.7993 691.628 38.1993C688.244 78.7993 698.396 117.299 717.529 154.999C735.62 190.699 747.464 215.699 748.766 249.299C750.068 284.899 748.896 316.499 766.077 349.299C768.419 353.799 774.016 363.399 782.866 378.099C801.088 408.399 801.999 439.999 797.183 473.099C794.32 492.699 792.628 505.499 792.107 511.599C789.635 539.799 792.628 568.899 801.348 598.899C804.602 610.299 809.678 621.399 816.967 631.599C824.125 641.799 833.497 651.099 845.08 658.499C850.937 662.199 857.445 665.299 864.343 667.899C879.441 673.599 895.841 676.399 912.24 678.799C928.249 681.099 944.518 683.099 960.137 686.999C1006.34 698.799 1041.48 725.799 1049.29 763.399C1054.37 787.899 1049.81 812.799 1046.17 837.399C1039.14 884.499 1035.24 932.199 1042.26 979.299C1049.29 1026.4 1067.51 1073.1 1101.88 1112.5C1127.65 1142 1162.92 1168.8 1170.47 1203.9C1178.67 1242.1 1151.46 1279 1125.04 1312C1106.04 1335.8 1086.26 1361.6 1079.62 1388.4C1077.67 1396.2 1091.33 1400.1 1096.41 1393.2C1118.41 1363.3 1144.57 1335 1164.87 1304.3C1191.03 1264.7 1207.04 1217.8 1187.91 1175.9C1175.28 1148.3 1148.86 1126 1127.78 1101.7C1114.11 1086.5 1102.92 1070.1 1093.94 1053.1Z" fill="#474747" fill-opacity="0.5"/>
<path d="M1101.49 779.205C1088.74 716.51 1042.25 658.407 979.761 623.066C944.285 603 902.78 588.424 876.695 559.472C833.335 511.452 853.276 453.15 841.103 398.242C828.466 341.536 791.946 291.919 785.918 233.716C784.526 220.039 785.106 205.264 786.15 191.587C790.787 127.793 798.902 61.8032 773.049 0.305938C756.934 -38.03 729.457 -71.5739 701.633 -104.12C677.402 -132.572 650.505 -159.427 633.463 -191.773C625 -207.747 622.681 -226.116 617.116 -243.087C611.203 -261.157 604.016 -279.028 594.393 -295.899C576.191 -327.846 581.756 -365.783 591.147 -400.425C596.943 -421.589 595.32 -444.152 587.205 -464.717C580.017 -482.787 567.264 -498.761 556.714 -515.632C555.091 -518.228 550.569 -516.83 551.033 -513.935C554.279 -497.163 564.018 -481.19 569.931 -464.717C577.235 -444.351 578.626 -422.488 574.22 -401.523C570.047 -382.155 560.888 -363.586 559.149 -344.019C556.366 -312.072 573.177 -282.322 585.002 -252.971C591.147 -237.796 592.886 -222.722 597.175 -207.247C601.697 -190.875 614.682 -175.001 626.043 -161.624C664.186 -116.699 702.56 -71.4741 731.312 -19.7604C748.702 11.5872 757.745 44.632 758.325 79.4738C758.789 106.429 757.629 133.384 757.05 160.339C756.47 182.701 752.992 205.763 756.238 228.026C762.847 273.25 789.28 314.182 803.656 357.609C807.134 368.092 809.916 378.674 811.655 389.456C816.177 418.308 812.351 447.659 815.017 476.711C819.539 524.032 843.421 571.552 887.825 599.705C906.49 611.585 928.054 619.672 948.227 629.655C1020.8 665.395 1077.49 730.087 1081.44 802.067C1083.52 840.503 1071.12 878.24 1058.13 914.979C1045.15 951.717 1031.24 988.955 1030.42 1027.39C1029.73 1059.94 1039.7 1093.98 1063.58 1118.64C1068.45 1123.73 1077.96 1119.94 1076.8 1113.45C1072.63 1090.49 1059.64 1068.52 1054.19 1045.46C1037.84 975.078 1093.26 907.791 1103.58 836.61C1106.01 817.342 1105.32 798.074 1101.49 779.205Z" fill="#474747" fill-opacity="0.5"/>
<path d="M565.951 -166.019C559.698 -203.7 546.497 -239.583 534.107 -275.965C523.802 -306.35 517.665 -337.434 515.812 -369.118C515.233 -378.314 514.77 -387.509 514.307 -396.805C513.844 -405.9 513.496 -414.996 512.802 -424.091C512.223 -433.087 511.181 -442.082 510.254 -451.078C509.328 -460.073 508.286 -469.169 507.475 -478.164C506.665 -487.16 506.086 -496.055 505.854 -505.051C505.622 -513.847 505.854 -522.742 506.665 -531.538C506.896 -534.037 507.244 -536.635 507.591 -539.134C510.254 -557.625 513.96 -572.917 518.823 -585.111C537.35 -631.788 547.771 -666.071 562.014 -706.851C570.466 -730.939 574.403 -752.328 570.466 -777.716C567.108 -799.305 564.098 -820.895 561.203 -842.484C560.277 -849.081 558.424 -855.477 555.529 -861.574C554.834 -863.074 552.634 -863.473 551.361 -862.374C550.666 -861.874 550.203 -860.875 549.971 -859.475C543.487 -829.49 547.771 -799.205 549.971 -768.72C551.592 -746.531 548.003 -724.342 539.202 -702.053C526.813 -670.869 515.349 -639.384 503.538 -608C488.138 -567.12 479.801 -529.039 483.622 -486.46C484.432 -477.365 485.243 -468.169 486.053 -459.074C486.864 -449.878 487.675 -440.683 488.485 -431.488C489.296 -422.392 489.99 -413.297 490.338 -404.201C490.569 -395.306 491.148 -386.41 491.727 -377.514C492.191 -368.519 492.885 -359.623 493.812 -350.628C494.738 -341.732 496.012 -332.837 497.633 -324.041C498.559 -319.343 499.485 -314.745 500.643 -310.148C506.433 -287.159 514.539 -258.773 525.191 -224.79C531.097 -205.7 535.613 -188.508 538.623 -173.316C545.339 -139.133 542.792 -100.652 529.707 -67.2681C523.802 -52.0756 511.991 -32.3854 505.738 -19.5918C492.769 6.89511 488.717 41.6778 501.107 69.0642C503.886 75.1612 507.707 82.2577 512.57 90.2537C519.749 101.948 525.539 115.741 530.055 131.533C538.044 159.519 535.034 186.706 527.739 215.292C521.949 237.981 513.612 264.767 502.612 295.852C492.538 324.238 484.085 351.024 482.348 380.31C480.611 411.195 486.748 438.881 478.759 465.668C477.601 469.666 474.59 477.062 469.842 487.757C463.011 503.349 457.105 518.841 453.516 535.233C447.379 562.819 445.41 591.006 440.2 618.792C436.957 636.383 433.484 653.874 430.705 671.566C428.041 688.457 426.073 705.549 425.378 722.64C424.799 739.332 425.031 756.623 428.273 773.115C430.01 782.011 431.978 790.807 434.41 799.502C436.726 807.998 439.042 816.394 440.315 825.089C440.431 825.989 440.547 826.889 440.663 827.788C443.21 850.477 438.694 871.467 434.757 893.756C433.136 902.951 433.136 913.546 434.873 925.64C438.578 951.927 447.495 979.313 454.558 1005.9C462.779 1036.98 462.432 1067.97 453.284 1098.85C448.189 1116.35 442.979 1133.74 437.652 1151.13C428.968 1180.21 421.673 1208 423.294 1237.29C425.725 1282.46 450.852 1322.54 463.242 1365.62C467.758 1381.31 469.727 1397.91 468.916 1415.4C466.832 1463.37 428.968 1500.15 397.819 1537.14C367.018 1573.62 355.323 1613.1 354.744 1658.08C354.513 1674.37 354.397 1690.66 354.281 1706.95C354.165 1734.24 349.534 1762.82 343.744 1793.81C341.197 1807.2 339.807 1815 339.576 1817C336.797 1842.39 344.092 1865.87 361.229 1887.56C362.85 1889.66 363.545 1889.46 363.082 1886.96C358.797 1863.87 357.408 1843.08 363.892 1820.1C372.924 1788.21 382.419 1756.33 385.198 1722.84C386.472 1707.65 386.008 1689.76 386.472 1673.17C387.977 1623.39 401.062 1577.32 432.326 1535.24C449.231 1512.55 468.8 1489.16 480.495 1465.37C502.496 1420.59 495.78 1370.82 476.79 1326.14C469.264 1308.35 463.358 1293.96 459.074 1283.16C445.989 1249.68 444.252 1216 453.979 1182.21C457.453 1170.12 463.59 1155.53 468.916 1142.43C488.138 1094.86 488.369 1048.58 476.558 999.503C468.569 966.419 462.432 934.835 462.548 900.052C462.548 883.76 462.779 867.368 462.548 851.077C462.316 835.784 461.737 820.592 460 805.399C458.032 787.508 454.558 769.717 452.937 751.826C451.316 733.635 451.084 715.344 452.358 697.153C452.705 692.855 453.053 688.557 453.516 684.259C454.21 678.362 456.411 665.469 460.116 645.678C463.59 627.088 465.906 609.197 468.106 590.906C471.811 561.22 477.832 532.035 486.169 503.049C491.959 482.859 501.107 461.67 503.538 440.88C505.507 423.988 504.117 404.398 505.159 388.906C507.707 352.224 521.833 315.142 533.413 279.16C544.066 246.077 551.708 212.593 555.645 178.31C558.771 151.124 561.087 121.438 547.192 96.2507C540.592 84.3566 535.381 74.3615 531.56 66.4654C508.865 19.3888 534.918 -19.1921 553.445 -62.4706C567.572 -96.3538 571.74 -130.537 565.951 -166.019Z" fill="#474747" fill-opacity="0.5"/>
<path d="M1306.71 2055.26C1340.94 2004.3 1356.03 1937.45 1325.51 1882.5C1324.47 1880.6 1320.17 1873.7 1312.63 1861.81C1290.35 1826.54 1269.7 1790.27 1242.43 1757.5C1232.1 1745.11 1219.45 1732.32 1207.5 1719.93C1188.12 1699.94 1175.48 1673.66 1162.71 1649.28C1148.09 1621.21 1130.57 1600.22 1097.62 1586.53C1079.98 1579.24 1061.76 1572.54 1045.17 1562.55C1010.59 1541.77 978.794 1513.09 953.034 1484.42C931.219 1460.23 921.472 1433.86 919.615 1403.38C918.455 1385.49 919.383 1364.01 922.168 1338.93C924.141 1321.35 927.738 1303.96 933.076 1286.97C943.403 1253.4 955.587 1222.22 947.58 1191.45C939.806 1161.57 913.814 1130.7 891.767 1107.32C873.549 1088.03 856.376 1068.15 837.578 1049.36C819.94 1031.88 802.883 1013.79 788.494 994.106C771.437 970.724 758.325 944.845 754.612 917.267C751.131 890.888 755.888 864.409 756.584 838.03C757.164 814.049 752.871 791.067 739.295 769.784C729.896 754.996 716.9 742.106 706.921 727.618C683.481 693.945 674.082 654.576 665.031 616.107C656.213 578.437 647.278 539.968 652.151 501.798C655.865 473.321 667.236 445.443 666.192 416.866C665.148 387.389 650.991 359.511 636.138 332.933C631.381 324.339 626.391 315.746 621.402 307.153C615.136 296.462 596.454 304.056 602.024 314.947C620.706 351.218 644.377 386.79 644.957 425.858C645.421 452.637 634.862 478.516 630.337 504.995C623.49 545.563 631.033 586.93 642.404 626.698C656.097 674.66 674.895 723.721 704.948 765.987C714.347 779.177 727.807 793.166 733.029 808.154C738.018 822.642 736.278 839.529 734.653 854.417C732.449 874.401 727.923 894.485 729.78 914.469C732.101 940.448 744.865 964.229 759.021 986.811C772.365 1007.99 788.378 1027.88 805.32 1047.06C806.132 1048.06 807.06 1048.96 807.872 1049.96C825.742 1069.95 844.54 1089.33 862.642 1109.21C879.931 1128.3 899.309 1148.18 909.868 1170.66C914.858 1181.16 918.223 1192.25 919.267 1203.64C921.472 1227.82 914.626 1255.3 908.94 1278.98C896.408 1330.14 889.33 1379.5 897.22 1430.06C902.21 1462.33 916.25 1490.11 940.966 1515.29C974.269 1549.06 1013.72 1578.14 1060.14 1595.83C1083.92 1604.92 1105.39 1612.31 1120.71 1631C1122.68 1633.4 1127.09 1640.29 1133.82 1651.48C1142.29 1665.57 1151.69 1679.06 1162.36 1692.05C1172.57 1704.44 1188.01 1720.03 1198.1 1731.52C1223.28 1760.2 1243.71 1790.67 1263.78 1822.15C1280.26 1848.13 1299.87 1873.11 1310.43 1901.58C1322.03 1932.86 1316.34 1963.03 1305.9 1994.01C1290 2040.67 1260.76 2083.24 1241.15 2128.7C1235.23 2142.59 1231.06 2153.98 1228.74 2162.87C1221.31 2192.25 1225.26 2222.63 1228.27 2253.1C1231.64 2286.78 1227.23 2320.65 1217.95 2353.82C1207.27 2391.99 1198.92 2418.67 1191.02 2459.44C1186.38 2482.92 1176.17 2501.4 1159.93 2520.69C1139.85 2544.57 1118.04 2567.15 1107.25 2595.43C1104.93 2601.53 1103.42 2611.62 1103.65 2622.01C1104 2633 1122.33 2634.4 1125 2623.51C1128.25 2610.12 1133.93 2597.13 1141.94 2583.64C1157.95 2556.66 1177.56 2531.28 1194.04 2504.5C1205.18 2486.22 1214.93 2467.13 1220.61 2446.95C1226.18 2427.56 1227.11 2407.48 1233.38 2388.1C1238.95 2370.91 1244.17 2353.72 1249.28 2336.54C1256.12 2313.15 1256.01 2292.47 1252.52 2268.49C1249.97 2250.8 1248.35 2237.02 1247.88 2227.12C1246.61 2204.44 1246.61 2182.86 1254.26 2162.38C1267.61 2126.9 1283.74 2089.43 1306.71 2055.26Z" fill="#474747" fill-opacity="0.5"/>
<path d="M1409.99 2921.1C1405.11 2903.52 1398.72 2890.03 1388.86 2871.15C1380.61 2855.36 1373.3 2839.27 1366.91 2822.79C1356.23 2795.31 1346.48 2768.04 1330 2742.66C1324.08 2733.57 1315.14 2722.48 1307.94 2712.19C1296.68 2696.2 1288.55 2679.12 1283.33 2660.93C1277.52 2640.55 1280.31 2620.77 1287.27 2600.78C1297.03 2572.81 1311.31 2546.63 1325.24 2520.16C1347.88 2477.19 1359.14 2429.64 1363.55 2382.88C1370.05 2315.54 1379.1 2245.7 1372.37 2177.16C1369.82 2151.48 1368.54 2132.8 1368.54 2121.11C1368.54 2106.02 1370.05 2092.63 1373.07 2080.74C1375.39 2071.85 1377.6 2063.06 1379.68 2054.17C1381.77 2045.28 1383.86 2036.38 1385.72 2027.49C1387.58 2018.6 1389.2 2009.81 1390.6 2000.82C1391.99 1991.72 1393.15 1982.63 1393.85 1973.54C1394.54 1964.65 1395.01 1955.66 1395.13 1946.76C1395.24 1937.77 1395.13 1928.78 1394.78 1919.79C1394.43 1910.9 1393.85 1902.1 1393.04 1893.21C1392.34 1884.62 1391.41 1876.03 1390.37 1867.53C1390.13 1865.64 1389.67 1863.64 1389.67 1861.74C1384.79 1822.77 1367.26 1787.2 1334.76 1759.43C1321.87 1748.34 1306.2 1736.35 1296.1 1725.56C1277.87 1706.18 1268.12 1683.1 1257.09 1660.32C1240.72 1626.75 1214.37 1606.07 1182.21 1580.49C1144.83 1550.71 1108.26 1515.25 1078.89 1477.58C1066.81 1461.99 1051.14 1441.11 1053.69 1420.93C1056.48 1399.55 1070.88 1377.67 1084.58 1359.48C1097.23 1342.6 1107.68 1327.61 1116.15 1314.32C1143.43 1271.36 1146.92 1221.81 1144.48 1173.95C1142.62 1137.38 1142.62 1103.11 1154.23 1067.84C1161.66 1045.16 1170.6 1023.38 1181.05 1001.6C1187.67 987.813 1193.7 973.825 1199.04 959.638C1200.55 955.641 1202.06 951.645 1203.69 947.649C1205.31 943.652 1206.94 939.556 1208.56 935.559C1210.19 931.563 1211.93 927.566 1213.67 923.47C1215.41 919.474 1217.15 915.477 1218.78 911.381C1220.52 907.384 1222.26 903.288 1224 899.291C1225.74 895.295 1227.49 891.199 1229.11 887.202C1230.85 883.206 1232.48 879.109 1234.1 875.113C1235.73 871.016 1237.35 867.02 1238.98 862.924C1240.6 858.827 1242.11 854.831 1243.51 850.734C1245.02 846.638 1246.41 842.542 1247.8 838.445C1249.2 834.349 1250.47 830.253 1251.63 826.056C1252.91 821.96 1253.96 817.763 1255.12 813.667C1256.16 809.471 1257.21 805.374 1258.02 801.178C1258.95 796.982 1259.64 792.786 1260.34 788.589C1261.04 784.193 1261.62 779.697 1261.97 775.301C1262.31 771.105 1262.55 766.909 1262.78 762.712C1262.89 758.516 1263.01 754.32 1263.01 750.223C1263.01 746.127 1262.78 741.931 1262.55 737.834C1262.31 733.738 1261.85 729.642 1261.39 725.545C1260.92 721.449 1260.22 717.353 1259.53 713.356C1258.72 709.26 1257.9 705.263 1256.86 701.267C1255.81 697.27 1254.65 693.274 1253.37 689.277C1252.1 685.281 1250.59 681.284 1248.96 677.388C1247.34 673.391 1245.6 669.495 1243.62 665.598C1243.16 664.599 1242.58 663.5 1242 662.501C1241.77 662.001 1241.42 661.502 1241.19 661.002C1241.07 660.802 1240.49 659.504 1240.37 659.504C1230.85 641.919 1223.31 629.43 1217.5 622.137C1197.88 596.959 1178.73 571.382 1160.27 545.505C1149.24 530.118 1137.63 515.831 1125.79 501.244C1116.62 489.854 1110.35 483.959 1096.88 478.264C1077.96 470.371 1056.13 460.38 1031.29 448.291C1000.41 433.304 980.091 416.219 950.371 393.04C941.896 386.445 934.698 381.65 925.643 377.054C925.295 376.854 924.83 377.254 925.062 377.553C932.492 387.345 939.806 397.336 946.888 407.427C953.273 416.519 958.381 422.913 962.096 426.81C991.816 457.283 1035.82 472.869 1075.64 490.354C1094.21 498.446 1108.72 509.237 1119.17 522.525C1128.57 534.415 1139.6 550.001 1152.61 569.383C1171.76 597.958 1190.45 626.733 1208.8 655.707C1211.12 659.304 1213.32 662.901 1215.41 666.497C1217.5 670.094 1219.48 673.691 1221.45 677.388C1223.31 680.985 1225.05 684.581 1226.79 688.278C1228.41 691.875 1229.92 695.572 1231.43 699.268C1232.83 702.965 1234.1 706.562 1235.26 710.359C1236.43 714.055 1237.47 717.752 1238.28 721.549C1239.21 725.345 1239.91 729.142 1240.49 732.939C1241.07 736.735 1241.53 740.632 1241.88 744.528C1242.23 748.425 1242.35 752.421 1242.35 756.318C1242.35 760.314 1242.11 764.411 1241.88 768.407C1241.53 772.504 1241.19 776.7 1240.37 780.796C1239.44 785.192 1238.17 789.389 1237.01 793.685C1235.73 797.981 1234.57 802.277 1233.17 806.574C1231.9 810.87 1230.5 815.066 1229.11 819.362C1227.72 823.658 1226.21 827.855 1224.7 832.051C1223.19 836.247 1221.68 840.543 1220.06 844.74C1218.43 848.936 1216.81 853.132 1215.18 857.328C1213.44 861.525 1211.7 865.721 1209.96 869.817C1208.21 874.014 1206.36 878.11 1204.5 882.207C1203.69 884.105 1202.76 886.003 1201.83 887.901C1193.35 906.185 1184.65 924.369 1175.94 942.553C1164.1 967.031 1158.87 991.01 1148.77 1016.19C1143.2 1030.08 1136.58 1045.26 1128.92 1061.65C1116.97 1087.22 1112.09 1114.1 1114.29 1142.28C1115.34 1155.76 1116.62 1169.15 1118.13 1182.64C1123.12 1227.5 1116.5 1269.56 1090.15 1308.93C1080.63 1323.22 1070.41 1337.3 1062.87 1349.69C1052.18 1367.28 1042.55 1385.26 1034.07 1403.64C1030.59 1411.14 1028.5 1415.83 1027.81 1417.73C1016.43 1449.3 1048.24 1490.07 1071.34 1513.45C1102.34 1544.72 1137.86 1572.59 1172.69 1600.57C1190.57 1614.96 1206.82 1630.34 1218.31 1649.13C1227.49 1664.01 1236.66 1680.7 1245.83 1693.89C1264.29 1720.46 1287.74 1743.34 1310.61 1767.02C1324.54 1781.41 1335.34 1798.6 1343.35 1816.78C1346.83 1824.77 1350.08 1832.86 1352.87 1841.06C1355.65 1849.25 1358.09 1857.54 1360.3 1865.94C1362.39 1874.33 1364.24 1882.72 1365.64 1891.21C1367.15 1899.71 1368.31 1908.2 1369.12 1916.79C1369.93 1925.28 1370.51 1933.88 1370.86 1942.47C1371.09 1951.06 1371.09 1959.55 1370.86 1968.14C1370.63 1977.04 1370.17 1986.03 1369.12 1994.82C1368.19 2003.81 1366.68 2012.71 1364.82 2021.5C1362.97 2030.39 1360.65 2039.28 1357.98 2047.97C1357.86 2048.47 1357.63 2049.07 1357.51 2049.57C1345.55 2088.14 1329.42 2129.4 1343.23 2169.47C1356.35 2207.73 1356 2242.9 1351.59 2281.87C1346.6 2325.73 1341.84 2364.49 1337.08 2398.36C1334.29 2418.45 1330.93 2436.03 1326.86 2451.22C1317.57 2486.19 1302.6 2515.46 1284.49 2548.53C1274.16 2567.41 1266.38 2585 1259.76 2604.18C1257.21 2611.77 1255.58 2617.87 1254.88 2622.47C1252.56 2639.45 1257.67 2657.13 1264.17 2673.42C1272.3 2693.6 1281.7 2713.29 1292.5 2732.47C1305.97 2756.25 1322.33 2778.73 1334.06 2803.21C1346.6 2829.28 1358.67 2855.26 1374 2880.34C1383.28 2895.62 1394.08 2910.11 1408.71 2922C1409.52 2921.8 1410.1 2921.5 1409.99 2921.1Z" fill="#474747" fill-opacity="0.5"/>
<path d="M1192.29 1873.97C1189.73 1866.08 1186.71 1858.29 1183 1850.7C1177.31 1838.71 1170.22 1827.33 1161.75 1816.64C1138.06 1787.08 1104.27 1764.51 1069.08 1745.23C1033.43 1725.66 995.571 1708.88 962.591 1686.11C865.742 1619.59 858.543 1502.05 860.517 1403.47C862.259 1316.09 867.716 1224.3 822.079 1146.21C780.506 1075.1 698.056 1018.37 690.392 939.073C688.07 914.704 693.179 890.136 690.74 865.768C685.631 815.832 657.993 765.098 639.761 717.859L598.42 611.097C593.659 598.812 572.176 603.706 575.311 616.39C577.75 626.277 581.582 636.064 585.879 645.352C598.536 672.417 616.304 697.885 624.781 726.048C632.677 752.414 631.981 780.178 640.109 806.444C646.032 825.72 656.599 843.796 661.593 863.371C669.722 895.33 662.406 928.786 667.747 961.145C678.083 1024.36 733.939 1068.11 768.545 1121.14C805.821 1178.26 832.298 1241.68 835.317 1307.6C837.756 1359.43 825.795 1411.36 830.092 1463.2C834.272 1514.23 854.014 1563.17 873.523 1611.51C883.161 1635.47 893.148 1659.84 911.031 1679.92C952.837 1727.16 1027.74 1741.14 1083.48 1776.09C1152.11 1819.14 1188.92 1896.84 1174.64 1968.84C1165.81 2013.69 1139.34 2054.23 1118.78 2096.08C1106.82 2120.45 1096.83 2146.51 1093.47 2172.68C1092.42 2180.67 1105.77 2182.97 1108.45 2175.28C1124.12 2129.84 1154.9 2087.89 1176.96 2044.95C1192.75 2014.09 1202.39 1985.22 1202.97 1951.37C1203.32 1925.5 1200.42 1899.13 1192.29 1873.97Z" fill="#474747" fill-opacity="0.5"/>
<path d="M1101.49 1979.21C1088.74 1916.51 1042.25 1858.41 979.761 1823.07C944.285 1803 902.78 1788.42 876.695 1759.47C833.335 1711.45 853.276 1653.15 841.103 1598.24C828.466 1541.54 791.946 1491.92 785.918 1433.72C784.526 1420.04 785.106 1405.26 786.15 1391.59C790.787 1327.79 798.902 1261.8 773.049 1200.31C756.934 1161.97 729.457 1128.43 701.633 1095.88C677.402 1067.43 650.505 1040.57 633.463 1008.23C625 992.253 622.681 973.884 617.116 956.913C611.203 938.843 604.016 920.972 594.393 904.101C576.191 872.154 581.756 834.217 591.147 799.575C596.943 778.411 595.32 755.848 587.205 735.283C580.017 717.213 567.264 701.239 556.714 684.368C555.091 681.772 550.569 683.17 551.033 686.065C554.279 702.837 564.018 718.81 569.931 735.283C577.235 755.649 578.626 777.512 574.22 798.477C570.047 817.845 560.888 836.414 559.149 855.981C556.366 887.928 573.177 917.678 585.002 947.029C591.147 962.204 592.886 977.278 597.175 992.753C601.697 1009.13 614.682 1025 626.043 1038.38C664.186 1083.3 702.56 1128.53 731.312 1180.24C748.702 1211.59 757.745 1244.63 758.325 1279.47C758.789 1306.43 757.629 1333.38 757.05 1360.34C756.47 1382.7 752.992 1405.76 756.238 1428.03C762.847 1473.25 789.28 1514.18 803.656 1557.61C807.134 1568.09 809.916 1578.67 811.655 1589.46C816.177 1618.31 812.351 1647.66 815.017 1676.71C819.539 1724.03 843.421 1771.55 887.825 1799.7C906.49 1811.59 928.054 1819.67 948.227 1829.65C1020.8 1865.4 1077.49 1930.09 1081.44 2002.07C1083.52 2040.5 1071.12 2078.24 1058.13 2114.98C1045.15 2151.72 1031.24 2188.96 1030.42 2227.39C1029.73 2259.94 1039.7 2293.98 1063.58 2318.64C1068.45 2323.73 1077.96 2319.94 1076.8 2313.45C1072.63 2290.49 1059.64 2268.52 1054.19 2245.46C1037.84 2175.08 1093.26 2107.79 1103.58 2036.61C1106.01 2017.34 1105.32 1998.07 1101.49 1979.21Z" fill="#474747" fill-opacity="0.5"/>
<path d="M903.011 880.2C900.669 873.9 899.107 867.4 898.065 860.8C897.024 854.3 896.634 847.7 896.504 841.1C896.373 834.5 896.634 827.9 897.024 821.2C897.415 814.5 897.805 807.9 898.196 801.2C898.586 794.5 898.976 787.7 898.586 781C898.196 775.3 897.284 769.7 895.853 764.2C894.421 758.8 892.599 753.4 890.256 748.2C887.783 743 884.79 737.9 881.145 733.2C878.933 730.3 876.33 727.6 873.466 725C872.815 724.4 871.644 724.9 871.904 725.6C874.117 732 876.199 738.4 878.022 744.9C879.714 751.3 881.015 757.8 881.796 764.3C882.577 771 882.707 777.6 882.056 784.3C881.275 791.1 880.234 797.9 879.193 804.7C878.672 808.4 878.022 812 877.371 815.7C871.514 850.7 882.187 884.1 897.284 918.4C905.224 936.4 913.554 949.2 929.823 962C930.214 962.3 930.864 962 930.734 961.6C922.925 934.1 912.903 907.3 903.011 880.2Z" fill="#474747" fill-opacity="0.5"/>
<path d="M565.951 1033.98C559.698 996.3 546.497 960.417 534.107 924.035C523.802 893.65 517.665 862.566 515.812 830.882C515.233 821.686 514.77 812.49 514.307 803.195C513.844 794.1 513.496 785.004 512.802 775.909C512.223 766.913 511.181 757.918 510.254 748.922C509.328 739.927 508.286 730.831 507.475 721.836C506.665 712.84 506.086 703.944 505.854 694.949C505.622 686.153 505.854 677.258 506.665 668.462C506.896 665.963 507.244 663.365 507.591 660.866C510.254 642.375 513.96 627.083 518.823 614.889C537.35 568.212 547.771 533.929 562.014 493.149C570.466 469.061 574.403 447.671 570.466 422.284C567.108 400.695 564.098 379.105 561.203 357.516C560.277 350.919 558.424 344.522 555.529 338.425C554.834 336.926 552.634 336.527 551.361 337.626C550.666 338.126 550.203 339.125 549.971 340.525C543.487 370.51 547.771 400.795 549.971 431.28C551.592 453.469 548.003 475.658 539.202 497.947C526.813 529.131 515.349 560.616 503.538 592C488.138 632.88 479.801 670.961 483.622 713.54C484.432 722.635 485.243 731.831 486.053 740.926C486.864 750.122 487.675 759.317 488.485 768.512C489.296 777.608 489.99 786.703 490.338 795.799C490.569 804.694 491.148 813.59 491.727 822.486C492.191 831.481 492.885 840.377 493.812 849.372C494.738 858.268 496.012 867.163 497.633 875.959C498.559 880.657 499.485 885.255 500.643 889.852C506.433 912.841 514.539 941.227 525.191 975.21C531.097 994.3 535.613 1011.49 538.623 1026.68C545.339 1060.87 542.792 1099.35 529.707 1132.73C523.802 1147.92 511.991 1167.61 505.738 1180.41C492.769 1206.9 488.717 1241.68 501.107 1269.06C503.886 1275.16 507.707 1282.26 512.57 1290.25C519.749 1301.95 525.539 1315.74 530.055 1331.53C538.044 1359.52 535.034 1386.71 527.739 1415.29C521.949 1437.98 513.612 1464.77 502.612 1495.85C492.538 1524.24 484.085 1551.02 482.348 1580.31C480.611 1611.19 486.748 1638.88 478.759 1665.67C477.601 1669.67 474.59 1677.06 469.842 1687.76C463.011 1703.35 457.105 1718.84 453.516 1735.23C447.379 1762.82 445.41 1791.01 440.2 1818.79C436.957 1836.38 433.484 1853.87 430.705 1871.57C428.041 1888.46 426.073 1905.55 425.378 1922.64C424.799 1939.33 425.031 1956.62 428.273 1973.12C430.01 1982.01 431.978 1990.81 434.41 1999.5C436.726 2008 439.042 2016.39 440.315 2025.09C440.431 2025.99 440.547 2026.89 440.663 2027.79C443.21 2050.48 438.694 2071.47 434.757 2093.76C433.136 2102.95 433.136 2113.55 434.873 2125.64C438.578 2151.93 447.495 2179.31 454.558 2205.9C462.779 2236.98 462.432 2267.97 453.284 2298.85C448.189 2316.34 442.979 2333.74 437.652 2351.13C428.968 2380.21 421.673 2408 423.294 2437.28C425.725 2482.46 450.852 2522.54 463.242 2565.62C467.758 2581.31 469.727 2597.91 468.916 2615.4C466.832 2663.37 428.968 2700.15 397.819 2737.14C367.018 2773.62 355.323 2813.1 354.744 2858.08C354.513 2874.37 354.397 2890.66 354.281 2906.95C354.165 2934.24 349.534 2962.82 343.744 2993.81C341.197 3007.2 339.807 3015 339.576 3017C336.797 3042.39 344.092 3065.87 361.229 3087.56C362.85 3089.66 363.545 3089.46 363.082 3086.96C358.797 3063.87 357.408 3043.08 363.892 3020.1C372.924 2988.21 382.419 2956.33 385.198 2922.84C386.472 2907.65 386.008 2889.76 386.472 2873.17C387.977 2823.39 401.062 2777.32 432.326 2735.24C449.231 2712.55 468.8 2689.16 480.495 2665.37C502.496 2620.59 495.78 2570.82 476.79 2526.14C469.264 2508.35 463.358 2493.96 459.074 2483.16C445.989 2449.68 444.252 2416 453.979 2382.21C457.453 2370.12 463.59 2355.53 468.916 2342.43C488.138 2294.86 488.369 2248.58 476.558 2199.5C468.569 2166.42 462.432 2134.83 462.548 2100.05C462.548 2083.76 462.779 2067.37 462.548 2051.08C462.316 2035.78 461.737 2020.59 460 2005.4C458.032 1987.51 454.558 1969.72 452.937 1951.83C451.316 1933.63 451.084 1915.34 452.358 1897.15C452.705 1892.85 453.053 1888.56 453.516 1884.26C454.21 1878.36 456.411 1865.47 460.116 1845.68C463.59 1827.09 465.906 1809.2 468.106 1790.91C471.811 1761.22 477.832 1732.03 486.169 1703.05C491.959 1682.86 501.107 1661.67 503.538 1640.88C505.507 1623.99 504.117 1604.4 505.159 1588.91C507.707 1552.22 521.833 1515.14 533.413 1479.16C544.066 1446.08 551.708 1412.59 555.645 1378.31C558.771 1351.12 561.087 1321.44 547.192 1296.25C540.592 1284.36 535.381 1274.36 531.56 1266.47C508.865 1219.39 534.918 1180.81 553.445 1137.53C567.572 1103.65 571.74 1069.46 565.951 1033.98Z" fill="#474747" fill-opacity="0.5"/>
<path d="M975.83 1051.81C963.429 1025.44 955.663 997.483 952.997 969.223C948.129 918.395 949.636 865.469 954.388 814.641C956.938 787.179 960.647 758.419 948.245 733.055C925.644 686.92 863.752 672.041 812.175 662.854C798.846 660.457 786.328 655.065 776.245 647.176C771.261 643.281 766.972 638.688 763.148 633.895C755.034 623.409 748.892 611.626 744.487 599.742C739.967 587.659 737.185 575.177 735.563 562.595C734.056 551.211 733.476 539.727 733.476 528.243C733.361 475.817 736.722 419.296 716.671 369.766C710.18 353.888 696.735 331.02 694.649 311.747C693.838 304.457 693.258 287.481 692.679 260.919C692.099 232.359 692.099 204.797 679.813 177.735C666.021 147.378 651.649 119.517 647.013 86.8631C645.274 74.7801 644.347 63.0965 644.115 51.9122C643.42 10.3706 642.145 -25.1794 636.929 -63.6254C635.422 -74.5101 632.525 -86.8928 621.63 -92.6846C620.007 -93.4835 618.037 -92.6846 617.689 -91.1868C617.573 -90.3879 617.225 -89.4892 617.341 -88.4906C620.587 -63.5257 624.064 -40.5579 622.673 -13.7955C621.862 2.38177 618.732 23.9514 617.573 38.3312C614.56 78.8742 623.6 117.32 640.638 154.967C656.749 190.617 667.296 215.582 668.455 249.135C669.614 284.685 668.571 316.241 683.87 348.995C685.956 353.488 690.94 363.075 698.821 377.754C715.048 408.012 715.859 439.568 711.571 472.621C709.021 492.194 707.514 504.976 707.051 511.067C704.848 539.228 707.514 568.287 715.28 598.244C718.177 609.628 722.697 620.713 729.188 630.899C735.563 641.084 743.908 650.371 754.223 657.761C759.439 661.456 765.234 664.551 771.377 667.148C784.822 672.84 799.425 675.636 814.029 678.032C828.285 680.329 842.773 682.326 856.682 686.221C897.827 698.004 929.121 724.966 936.075 762.514C940.596 786.979 936.539 811.844 933.294 836.41C927.035 883.444 923.558 931.077 929.817 978.111C936.075 1025.14 952.302 1071.78 982.9 1111.12C1005.85 1140.58 1037.26 1167.34 1043.98 1202.4C1051.28 1240.54 1027.06 1277.39 1003.53 1310.34C986.609 1334.11 968.992 1359.87 963.081 1386.64C961.342 1394.43 973.512 1398.32 978.032 1391.43C997.62 1361.57 1020.92 1333.31 1039 1302.65C1062.29 1263.11 1076.55 1216.28 1059.51 1174.43C1048.27 1146.87 1024.74 1124.6 1005.97 1100.34C993.795 1085.16 983.828 1068.78 975.83 1051.81Z" fill="#474747" fill-opacity="0.5"/>
<path d="M1612.76 -419C1602.38 -419 1595.34 -409.905 1599.26 -401.51C1603.42 -392.814 1607.57 -384.319 1610.22 -377.823C1625.57 -339.644 1629.37 -298.466 1621.99 -258.188C1620.49 -249.793 1617.26 -232.802 1612.18 -207.116C1607.45 -182.53 1605.61 -152.646 1603.07 -134.356C1598.46 -100.375 1584.15 -69.4917 1569.73 -37.2094C1556.12 -6.6262 1550.93 21.3583 1550.12 53.6406C1549.54 74.6291 1549.31 95.7177 1549.19 116.706C1549.08 157.983 1546.54 199.561 1548.27 240.338C1548.96 255.53 1553 273.52 1554.73 286.913C1556.69 302.404 1557.27 319.795 1556.58 339.084C1555.31 374.365 1550 409.246 1540.77 443.627C1532.81 473.311 1523.7 503.094 1512.05 531.878C1508.47 540.574 1504.32 551.168 1499.59 563.561C1489.21 590.446 1487.47 615.532 1490.94 643.317C1494.97 675.5 1502.82 707.082 1509.74 738.865C1518.28 777.744 1504.78 816.922 1509.97 856.001C1512.39 874.39 1519.55 893.88 1526.58 911.87C1531.66 924.863 1533.97 934.458 1534.31 946.951C1534.77 970.238 1531.31 990.827 1524.51 1013.61C1519.08 1031.7 1515.16 1050.09 1512.51 1068.68C1509.51 1090.57 1503.74 1109.16 1496.47 1131.75C1486.55 1162.43 1482.4 1194.71 1483.78 1228.6C1484.82 1254.68 1489.32 1286.96 1490.94 1304.85C1493.13 1328.64 1493.94 1355.43 1493.36 1385.21C1493.01 1402.7 1490.82 1421.19 1486.78 1440.88C1481.48 1466.57 1479.28 1491.05 1481.25 1517.14C1482.63 1536.53 1486.44 1557.42 1489.55 1577.4C1496.36 1621.98 1485.05 1674.45 1459.44 1713.73C1451.94 1725.32 1444.67 1736.92 1440.75 1749.81C1435.56 1766.9 1436.25 1787.59 1438.44 1805.38C1439.25 1811.98 1440.06 1818.67 1440.98 1825.27C1441.79 1831.97 1442.71 1838.56 1443.52 1845.26C1444.33 1851.95 1445.02 1858.65 1445.71 1865.35C1446.41 1872.04 1446.98 1878.74 1447.44 1885.44C1447.9 1892.13 1448.25 1898.83 1448.48 1905.52C1448.71 1912.22 1448.71 1919.02 1448.6 1925.71C1448.48 1932.51 1448.14 1939.31 1447.56 1946C1446.98 1952.8 1446.17 1959.6 1445.14 1966.39C1444.1 1973.09 1442.83 1979.78 1441.1 1986.38C1439.37 1992.98 1437.52 1999.47 1435.79 2006.07C1434.06 2012.67 1432.45 2019.26 1431.18 2025.96C1429.91 2032.56 1428.99 2039.25 1428.64 2045.95C1428.52 2048.35 1428.41 2050.75 1428.41 2053.24C1428.41 2076.93 1429.22 2100.92 1427.6 2124.6C1425.06 2162.78 1419.53 2201.16 1413.41 2239.04C1412.49 2244.94 1410.99 2252.63 1408.91 2262.13C1395.88 2323 1393.57 2386.06 1398.18 2448.73C1400.72 2483.61 1402.8 2518.59 1404.3 2553.57C1405.34 2577.26 1408.1 2601.04 1416.64 2622.93C1423.22 2639.92 1428.52 2652.82 1431.98 2670.01C1435.79 2688.6 1439.94 2706.99 1444.67 2725.38C1446.98 2734.27 1450.1 2742.97 1454.13 2751.66C1454.94 2753.36 1455.87 2753.46 1457.02 2751.86C1457.25 2751.56 1457.48 2750.76 1457.71 2749.46C1459.67 2738.47 1460.25 2727.47 1459.44 2716.28C1457.13 2685.8 1449.29 2655.71 1442.02 2625.83C1438.1 2609.74 1435.33 2590.35 1433.72 2567.36C1430.6 2524.29 1427.49 2481.11 1424.26 2438.03C1421.95 2406.35 1420.79 2372.67 1422.18 2346.68C1423.1 2329.89 1424.26 2316.8 1425.75 2307.6C1438.91 2226.95 1449.17 2152.49 1456.56 2084.23C1458.17 2068.94 1459.21 2049.95 1459.44 2027.36C1459.44 2024.36 1459.67 2021.26 1459.9 2018.26C1460.25 2013.27 1460.59 2008.17 1461.06 2003.17C1461.63 1996.57 1462.21 1989.98 1462.79 1983.28C1463.36 1976.49 1463.94 1969.69 1464.17 1962.89C1464.29 1960.49 1464.29 1958.1 1464.29 1955.7C1464.52 1914.02 1462.09 1872.34 1457.13 1830.87C1453.44 1800.18 1447.56 1771 1463.48 1741.81C1477.09 1716.93 1490.94 1693.24 1501.09 1666.06C1512.97 1634.17 1515.62 1600.59 1510.09 1567.71C1503.74 1529.53 1501.2 1492.15 1508.24 1456.37C1512.51 1434.78 1515.16 1421.19 1516.09 1415.79C1520.01 1393.81 1521.51 1371.72 1521.74 1349.63C1521.97 1333.94 1520.93 1319.65 1518.62 1306.75C1515.51 1289.36 1511.82 1270.87 1510.89 1254.08C1509.39 1226.6 1512.28 1198.51 1519.55 1170.03C1529.58 1130.85 1536.5 1107.46 1543.43 1069.18C1548.04 1043.6 1552.54 1018.01 1556.92 992.426C1562.35 960.643 1562.12 932.159 1551.96 901.076C1548.39 889.982 1544.81 878.888 1541.35 867.894C1530.74 834.113 1535.47 800.231 1534.08 765.85C1532.7 730.37 1520.93 696.088 1511.24 661.907C1510.89 660.508 1510.43 659.208 1510.09 657.809C1503.05 632.723 1500.63 605.038 1511.01 580.851C1511.59 579.352 1515.16 572.756 1521.74 561.062C1531.43 543.772 1538.47 525.682 1542.85 506.792C1550.93 472.111 1558.65 449.724 1566.85 421.139C1576.77 386.758 1578.96 351.677 1577.81 316.397C1576.31 272.621 1573.19 229.045 1571.92 185.269C1570.88 149.588 1569.85 113.808 1568.81 78.1272C1567.77 44.2458 1574.81 11.5638 1589.69 -19.719C1608.26 -58.6976 1621.41 -85.6828 1626.72 -120.863C1629.14 -137.255 1631.22 -157.743 1634.33 -174.834C1637.79 -194.023 1642.52 -215.911 1648.52 -240.498C1662.6 -297.966 1653.14 -357.934 1625.91 -411.304C1623.72 -416.102 1618.53 -419 1612.76 -419Z" fill="#474747" fill-opacity="0.5"/>
<path d="M1541.81 1768.7C1511.48 1746.5 1490.92 1721.9 1475.69 1692.4C1459.16 1660.5 1445.23 1629.1 1419.98 1599.9C1409.7 1588 1395.77 1576 1383.15 1564.4C1369.22 1551.7 1357.64 1536.6 1348.14 1519C1321.46 1469.7 1313.78 1413.2 1338.25 1362.3C1350.74 1336.3 1369.87 1318.7 1393.17 1293.7C1405.02 1281 1412.7 1267.3 1416.34 1252.7C1416.86 1250.8 1418.03 1243 1420.11 1229.4C1422.59 1213.4 1424.8 1196.5 1427.79 1181.4C1432.22 1159.1 1437.55 1136.9 1443.8 1114.9C1448.75 1097.4 1450.83 1079.7 1449.79 1061.8C1449.01 1047.5 1443.67 1022.4 1442.11 1008C1440.03 989.1 1441.98 970.2 1447.71 951.6C1447.71 951.4 1447.97 951.2 1448.36 951.3C1448.62 951.3 1448.88 951.5 1448.88 951.7C1452.65 984.6 1462.02 1017.4 1471 1049.8C1473.74 1059.9 1475.43 1067.6 1475.82 1072.9C1477.38 1094.3 1469.83 1120.9 1466.06 1137.1C1458.9 1167.9 1454.08 1198.8 1451.35 1230C1449.4 1251.8 1441.59 1272 1427.66 1290.5C1421.29 1299 1408.27 1314.4 1398.51 1326.2C1359.33 1373.8 1341.76 1430.3 1363.37 1485.3C1373.39 1510.7 1388.62 1538.6 1409.18 1558.4C1424.28 1572.8 1433.78 1582 1437.94 1585.8C1457.73 1604.3 1471.92 1625.2 1480.38 1648.3C1494.69 1687.6 1505.1 1723.3 1545.58 1751.3C1556.39 1758.8 1578.38 1771.7 1582.81 1782.4C1583.33 1783.8 1582.03 1785.3 1580.07 1785.4C1568.49 1786 1550.27 1774.8 1541.81 1768.7Z" fill="#474747" fill-opacity="0.5"/>
<path d="M805.974 878.903C803.945 872.666 802.592 866.232 801.691 859.698C800.789 853.264 800.451 846.73 800.338 840.196C800.225 833.663 800.451 827.129 800.789 820.497C801.127 813.864 801.465 807.33 801.803 800.698C802.141 794.065 802.48 787.334 802.141 780.701C801.803 775.059 801.014 769.515 799.774 764.07C798.534 758.725 796.956 753.379 794.927 748.231C792.785 743.084 790.192 738.035 787.036 733.382C785.119 730.512 782.865 727.839 780.385 725.265C779.821 724.671 778.807 725.166 779.032 725.859C780.949 732.195 782.752 738.53 784.33 744.965C785.796 751.3 786.923 757.735 787.599 764.169C788.276 770.802 788.389 777.336 787.825 783.968C787.149 790.7 786.247 797.431 785.345 804.163C784.894 807.825 784.33 811.389 783.767 815.052C778.694 849.7 787.938 882.763 801.014 916.718C807.891 934.537 815.105 947.208 829.196 959.879C829.534 960.176 830.098 959.879 829.985 959.483C823.222 932.26 814.542 905.73 805.974 878.903Z" fill="#474747" fill-opacity="0.5"/>
<path d="M897.86 996.344C896.617 987.613 895.487 978.783 894.244 969.952C891.758 950.803 895.261 928.777 897.182 906.553C898.312 893.158 897.295 880.161 894.244 867.362C889.837 849.205 879.441 832.437 876.503 814.28C876.052 811.8 875.713 809.22 875.374 806.641C875.035 803.763 874.696 800.886 874.357 798.009C874.018 794.834 873.792 791.56 873.453 788.385C873.227 785.011 873.001 781.638 872.775 778.265C872.549 775.09 872.323 772.014 871.984 768.839C871.645 765.862 871.193 762.886 870.515 760.009C869.837 757.131 869.046 754.353 867.916 751.674C867.577 750.881 867.238 750.087 866.786 749.293C866.56 748.896 866.447 748.499 866.221 748.202C866.108 748.102 865.656 747.11 865.543 747.11C862.944 742.745 856.729 742.943 855.147 747.904C854.356 750.285 853.904 752.766 853.565 755.246C853.226 758.024 853.113 760.703 853 763.481C853 766.16 853 768.839 853.113 771.518C853.226 774.296 853.339 777.074 853.452 779.852C853.565 783.126 853.678 786.5 853.904 789.774C854.13 792.949 854.582 796.025 855.147 799.199C855.712 802.275 856.277 805.252 857.068 808.228C857.746 811.205 858.537 814.181 859.441 817.059C860.345 820.035 861.249 822.912 862.266 825.79C863.283 828.766 864.3 831.643 865.317 834.62C866.334 837.597 867.464 840.573 868.594 843.649C868.707 844.145 868.933 844.542 869.046 845.038C878.085 870.437 875.826 894.051 871.984 919.947C869.159 938.897 869.159 956.856 873.227 976.104C877.633 996.741 882.944 1017.18 888.933 1037.52C889.95 1041.09 891.306 1044.37 892.775 1047.64C893.001 1048.14 893.905 1048.14 894.018 1047.54C898.877 1030.57 900.233 1013.51 897.86 996.344Z" fill="#474747" fill-opacity="0.5"/>
<path d="M403.551 -288.277C399.424 -240.971 378.904 -195.76 372.141 -148.753C353.111 -17.0145 441.267 120.713 389.451 245.665C370.88 290.277 335.915 328.401 314.937 372.214C291.551 421.018 286.507 474.911 285.131 527.806C284.329 560.94 284.787 594.474 292.926 626.81C303.817 669.625 244.32 568.425 258.077 492.176C263.694 461.238 261.287 431.197 273.209 400.857C285.017 370.817 303.244 343.172 320.554 315.427C338.781 286.285 357.009 256.643 367.097 224.507C399.31 121.611 340.73 14.2235 340.73 -92.4651C340.73 -173.604 374.777 -253.446 366.753 -334.186C360.562 -396.662 407.793 -336.781 403.551 -288.277Z" fill="#474747" fill-opacity="0.5"/>
<path d="M252.976 -34.9261C253.747 -33.636 253.967 -32.0481 253.637 -30.0634C249.675 -8.33081 243.401 14.4933 246.813 36.3251C248.354 46.1494 253.307 57.1646 257.269 67.1874C262.772 80.8819 265.854 95.0727 266.624 109.66C268.495 144.492 263.873 181.011 241.42 209.789C241.09 210.186 240.319 209.987 240.429 209.491C243.181 180.117 247.473 152.431 247.583 121.668C247.693 104.401 243.731 87.1337 235.806 69.8667C220.948 37.6152 223.039 2.88266 241.64 -27.4834C243.511 -30.5597 246.483 -32.9413 249.344 -35.3229C250.445 -36.4145 252.206 -36.1169 252.976 -34.9261Z" fill="#474747" fill-opacity="0.5"/>
<path d="M285.884 779.167C284.271 776.073 282.543 772.978 280.815 769.884C276.668 762.397 273.327 754.51 269.295 747.024C262.844 735.045 255.471 723.365 246.255 712.784C225.289 688.626 190.729 669.16 183.932 637.516C182.895 632.624 182.665 624.838 183.241 614.157C184.854 583.411 187.964 552.765 192.457 522.218C195.798 499.558 201.903 476.698 212.617 456.633C219.414 443.955 232.547 425.089 239.343 410.015C243.606 400.632 246.831 391.248 249.02 381.964C256.163 351.817 261.116 328.059 275.401 303.003C281.737 291.822 291.875 278.645 300.284 266.667C312.38 249.097 318.14 230.031 317.564 209.367C316.988 186.208 315.375 162.849 315.491 139.989C315.491 121.222 317.334 98.0624 317.795 83.2883C318.025 74.903 316.758 13.1113 301.782 14.0097C301.321 14.0097 300.975 14.2093 300.745 14.5088C299.247 16.5053 298.326 18.402 297.98 20.2987C293.027 42.1604 291.529 64.6211 293.718 87.5808C296.943 123.318 299.593 151.968 298.556 184.311C297.865 206.572 294.294 227.435 281.737 246.801C277.244 253.789 269.411 263.572 264.572 271.259C255.587 285.733 247.983 302.104 241.647 320.272C234.39 341.036 227.132 361.7 219.759 382.463C213.308 400.532 200.521 419.698 192.572 437.267C184.163 455.735 177.942 474.801 174.255 494.467C167.343 530.204 160.431 565.842 154.671 601.778C149.718 632.425 154.902 664.768 182.089 685.731C195.798 696.313 208.239 708.192 219.414 720.87C230.473 733.547 240.265 747.024 249.135 760.999C258.697 776.172 266.876 792.045 274.364 808.216C275.286 810.213 276.207 812.309 277.129 814.306C288.879 841.059 294.524 868.91 293.948 898.059C293.833 903.25 294.294 908.74 293.833 913.831C286.691 986.803 285.193 1045.1 287.151 1111.18C287.612 1125.16 288.649 1138.94 290.262 1152.61C290.262 1153.11 291.068 1153.11 291.183 1152.71C302.473 1127.46 306.966 1102.9 307.427 1075.95C308.003 1043.9 309.385 1016.75 311.689 994.689C313.417 977.819 315.26 960.948 316.412 944.078C317.679 927.108 318.371 910.038 317.795 893.067C317.219 876.197 315.375 859.327 311.574 842.656C307.657 825.586 301.206 809.314 293.372 793.442C290.838 788.75 288.419 783.959 285.884 779.167Z" fill="#474747" fill-opacity="0.5"/>
<path d="M403.551 911.723C399.424 959.029 378.904 1004.24 372.141 1051.25C353.111 1182.99 441.267 1320.71 389.451 1445.67C370.88 1490.28 335.915 1528.4 314.937 1572.21C291.551 1621.02 286.507 1674.91 285.131 1727.81C284.329 1760.94 284.787 1794.47 292.926 1826.81C303.817 1869.62 244.32 1768.43 258.077 1692.18C263.694 1661.24 261.287 1631.2 273.209 1600.86C285.017 1570.82 303.244 1543.17 320.554 1515.43C338.781 1486.28 357.009 1456.64 367.097 1424.51C399.31 1321.61 340.73 1214.22 340.73 1107.53C340.73 1026.4 374.777 946.554 366.753 865.814C360.562 803.338 407.793 863.219 403.551 911.723Z" fill="#474747" fill-opacity="0.5"/>
<path d="M216.761 781C206.378 781 199.341 790.095 203.263 798.49C207.416 807.186 211.569 815.681 214.223 822.177C229.566 860.356 233.373 901.534 225.99 941.812C224.49 950.207 221.26 967.198 216.184 992.884C211.454 1017.47 209.608 1047.35 207.07 1065.64C202.456 1099.63 188.15 1130.51 173.73 1162.79C160.117 1193.37 154.925 1221.36 154.118 1253.64C153.541 1274.63 153.31 1295.72 153.195 1316.71C153.08 1357.98 150.542 1399.56 152.272 1440.34C152.964 1455.53 157.002 1473.52 158.732 1486.91C160.694 1502.4 161.27 1519.79 160.578 1539.08C159.309 1574.36 154.002 1609.25 144.773 1643.63C136.813 1673.31 127.699 1703.09 116.048 1731.88C112.471 1740.57 108.318 1751.17 103.588 1763.56C93.2054 1790.45 91.4749 1815.53 94.9358 1843.32C98.9736 1875.5 106.818 1907.08 113.74 1938.86C122.277 1977.74 108.78 2016.92 113.971 2056C116.394 2074.39 123.546 2093.88 130.583 2111.87C135.66 2124.86 137.967 2134.46 138.313 2146.95C138.774 2170.24 135.313 2190.83 128.507 2213.61C123.085 2231.7 119.162 2250.09 116.509 2268.68C113.51 2290.57 107.741 2309.16 100.473 2331.75C90.552 2362.43 86.3989 2394.71 87.7832 2428.6C88.8215 2454.68 93.3207 2486.96 94.9358 2504.85C97.1278 2528.64 97.9353 2555.43 97.3585 2585.21C97.0124 2602.7 94.8205 2621.19 90.7827 2640.88C85.4759 2666.57 83.284 2691.05 85.2452 2717.14C86.6296 2736.53 90.4366 2757.42 93.5515 2777.4C100.358 2821.98 89.0522 2874.45 63.4413 2913.73C55.9426 2925.32 48.6747 2936.92 44.7523 2949.81C39.5609 2966.9 40.253 2987.59 42.445 3005.38C43.2525 3011.98 44.0601 3018.67 44.983 3025.27C45.7905 3031.97 46.7135 3038.56 47.521 3045.26C48.3286 3051.95 49.0207 3058.65 49.7129 3065.35C50.4051 3072.04 50.9819 3078.74 51.4434 3085.44C51.9049 3092.13 52.251 3098.83 52.4817 3105.52C52.7124 3112.22 52.7124 3119.02 52.597 3125.71C52.4817 3132.51 52.1356 3139.31 51.5588 3146C50.9819 3152.8 50.1744 3159.6 49.1361 3166.39C48.0978 3173.09 46.8288 3179.78 45.0984 3186.38C43.3679 3192.98 41.522 3199.47 39.7916 3206.07C38.0611 3212.67 36.446 3219.26 35.177 3225.96C33.908 3232.56 32.9851 3239.25 32.639 3245.95C32.5236 3248.35 32.4083 3250.75 32.4083 3253.24C32.4083 3276.93 33.2158 3300.92 31.6007 3324.6C29.0627 3362.78 23.5252 3401.16 17.4109 3439.04C16.4879 3444.94 14.9882 3452.63 12.9116 3462.13C-0.124551 3523 -2.43184 3586.06 2.18274 3648.73C4.72076 3683.61 6.79732 3718.59 8.29706 3753.57C9.33534 3777.26 12.1041 3801.04 20.6411 3822.93C27.2168 3839.92 32.5236 3852.82 35.9846 3870.01C39.7916 3888.6 43.9447 3906.99 48.6747 3925.38C50.9819 3934.27 54.0968 3942.97 58.1345 3951.66C58.9421 3953.36 59.865 3953.46 61.0187 3951.86C61.2494 3951.56 61.4801 3950.76 61.7108 3949.46C63.672 3938.47 64.2489 3927.47 63.4413 3916.28C61.134 3885.8 53.2892 3855.71 46.0213 3825.83C42.0989 3809.74 39.3301 3790.35 37.715 3767.36C34.6002 3724.29 31.4853 3681.11 28.2551 3638.03C25.9478 3606.35 24.7942 3572.67 26.1786 3546.68C27.1015 3529.89 28.2551 3516.8 29.7549 3507.6C42.9064 3426.95 53.1739 3352.49 60.5572 3284.23C62.1723 3268.94 63.2106 3249.95 63.4413 3227.36C63.4413 3224.36 63.672 3221.26 63.9028 3218.26C64.2489 3213.27 64.595 3208.17 65.0564 3203.17C65.6332 3196.57 66.2101 3189.98 66.7869 3183.28C67.3637 3176.49 67.9405 3169.69 68.1713 3162.89C68.2866 3160.49 68.2866 3158.1 68.2866 3155.7C68.5174 3114.02 66.0947 3072.34 61.134 3030.87C57.4424 3000.18 51.5588 2971 67.4791 2941.81C81.0921 2916.93 94.9358 2893.24 105.088 2866.06C116.97 2834.17 119.624 2800.59 114.086 2767.71C107.741 2729.53 105.203 2692.15 112.241 2656.37C116.509 2634.78 119.162 2621.19 120.085 2615.79C124.008 2593.81 125.507 2571.72 125.738 2549.63C125.969 2533.94 124.931 2519.65 122.623 2506.75C119.508 2489.36 115.817 2470.87 114.894 2454.08C113.394 2426.6 116.278 2398.51 123.546 2370.03C133.583 2330.85 140.505 2307.46 147.427 2269.18C152.041 2243.6 156.541 2218.01 160.924 2192.43C166.347 2160.64 166.116 2132.16 155.964 2101.08C152.387 2089.98 148.811 2078.89 145.35 2067.89C134.737 2034.11 139.467 2000.23 138.082 1965.85C136.698 1930.37 124.931 1896.09 115.24 1861.91C114.894 1860.51 114.432 1859.21 114.086 1857.81C107.049 1832.72 104.626 1805.04 115.009 1780.85C115.586 1779.35 119.162 1772.76 125.738 1761.06C135.429 1743.77 142.466 1725.68 146.85 1706.79C154.925 1672.11 162.655 1649.72 170.846 1621.14C180.767 1586.76 182.959 1551.68 181.805 1516.4C180.306 1472.62 177.191 1429.04 175.922 1385.27C174.883 1349.59 173.845 1313.81 172.807 1278.13C171.769 1244.25 178.806 1211.56 193.688 1180.28C212.262 1141.3 225.413 1114.32 230.72 1079.14C233.143 1062.75 235.219 1042.26 238.334 1025.17C241.795 1005.98 246.525 984.089 252.524 959.502C266.598 902.034 257.138 842.066 229.912 788.696C227.72 783.898 222.529 781 216.761 781Z" fill="#474747" fill-opacity="0.5"/>
</svg>
